<svg width="24" height="18" viewBox="0 0 24 18" fill="none" xmlns="http://www.w3.org/2000/svg">
<path d="M0.000618763 4.61975C0.117451 4.57848 0.239228 4.49101 0.349878 4.50272C1.94288 4.67026 3.49013 5.03738 4.95084 5.69646C5.64194 6.00814 6.29348 6.40852 6.95677 6.77934C6.99456 6.80408 7.0261 6.83719 7.04894 6.87608C7.07178 6.91497 7.0853 6.9586 7.08843 7.00355C6.8455 9.24752 7.28006 11.3769 8.22461 13.4034C8.63754 14.2904 9.17101 15.1214 9.65009 15.9782C9.66863 16.0102 9.68841 16.0398 9.74405 16.1347C9.37315 16.0367 9.06036 15.9609 8.75005 15.8692C6.85044 15.3056 5.11341 14.4463 3.66754 13.0665C2.36941 11.8247 1.49595 10.3113 0.885823 8.63894C0.46931 7.50846 0.186346 6.3335 0.0426531 5.13778C0.0333188 5.10168 0.0189618 5.06705 0 5.03491L0.000618763 4.61975Z" fill="#0770E3"/>
<path d="M0.000488281 13.5187L1.34313 12.4863C3.25942 15.1165 5.90391 16.5363 8.93413 17.3525L8.94773 17.4141C8.47545 17.5576 8.00936 17.727 7.52967 17.8385C5.60225 18.2881 3.92827 17.7368 2.43727 16.5111C1.56667 15.7859 0.810269 14.9346 0.193354 13.9856C0.131538 13.8895 0.0647769 13.7946 0.000488281 13.6992V13.5187Z" fill="#0770E3"/>
<path d="M15.2822 8.23982C15.2779 10.1222 14.7401 11.866 13.8926 13.5279C13.4016 14.4938 12.8103 15.4057 12.1283 16.2486C11.8996 16.5308 11.7939 16.5351 11.572 16.2603C10.2337 14.5837 9.22854 12.7364 8.70496 10.6476C8.12946 8.35193 8.40763 6.12767 9.3157 3.96624C9.89107 2.59803 10.6612 1.31951 11.6023 0.17003C11.7815 -0.0504866 11.9114 -0.0578771 12.0844 0.155864C13.5099 1.93601 14.5781 3.89725 15.0516 6.14061C15.1969 6.82741 15.2463 7.53454 15.339 8.2349L15.2822 8.23982Z" fill="#0770E3"/>
<path d="M14.0073 16.1149C14.4308 15.3598 14.8727 14.6465 15.2436 13.8975C16.1832 12.0089 16.7235 10.0169 16.6617 7.89239C16.6579 7.61606 16.6372 7.34021 16.5999 7.06637C16.5752 6.90499 16.6339 6.83354 16.7544 6.75408C17.8461 6.03094 19.0305 5.5086 20.2779 5.12362C21.271 4.81971 22.2905 4.60936 23.323 4.49532C23.624 4.46145 23.7217 4.57849 23.6778 4.93944C23.5308 6.20424 23.2371 7.44777 22.8025 8.6451C22.0891 10.5811 21.0383 12.2904 19.4113 13.6055C17.9506 14.7857 16.2716 15.5224 14.466 16.0016C14.3158 16.0447 14.1594 16.0786 14.0073 16.1149Z" fill="#0770E3"/>
<path d="M14.6929 17.3734C17.7837 16.54 20.4312 15.1183 22.3451 12.4943C22.7778 12.8134 23.1994 13.1171 23.6055 13.4423C23.6673 13.4903 23.6883 13.6758 23.6444 13.7447C22.6047 15.3697 21.3492 16.7735 19.5374 17.5711C18.1935 18.1631 16.8249 18.0953 15.4575 17.6537C15.222 17.5785 14.9945 17.4867 14.6929 17.3734Z" fill="#0770E3"/>
<path d="M16.3496 5.37374C16.0647 4.60932 15.7933 3.84737 15.4953 3.09466C15.3167 2.64007 15.2864 2.62591 15.6808 2.32531C16.3898 1.78573 17.1149 1.2677 17.8443 0.75152C18.0656 0.594448 18.1942 0.646185 18.2832 0.893188C18.6378 1.87361 18.8843 2.88957 19.0182 3.92314C19.0263 3.98905 18.9787 4.10792 18.928 4.12825C18.0372 4.46566 17.1785 4.88165 16.362 5.37128C16.3472 5.37867 16.3298 5.37743 16.3496 5.37374Z" fill="#0770E3"/>
<path d="M4.65234 4.03338C4.79203 2.96374 5.0461 1.91206 5.41021 0.896259C5.50108 0.64556 5.61544 0.60675 5.84848 0.746575C6.71378 1.26423 7.52348 1.86899 8.26487 2.55136C8.29275 2.58038 8.31347 2.61547 8.32538 2.65386C8.33729 2.69224 8.34006 2.73286 8.33348 2.77249C8.00648 3.63485 7.66772 4.4972 7.34443 5.32814L4.65234 4.03338Z" fill="#0770E3"/>
</svg>
