<svg width="25" height="13" viewBox="0 0 25 13" fill="none" xmlns="http://www.w3.org/2000/svg">
<path d="M0.00065291 3.89767C0.172201 3.4076 0.522468 3.13592 1.03255 3.05273C1.13642 3.03357 1.23775 3.0026 1.33455 2.96043C1.44943 2.91571 1.54398 2.83074 1.60043 2.72148C1.65688 2.61221 1.67135 2.48616 1.64112 2.36701C1.60003 2.18568 1.5472 2.00759 1.50415 1.82625C1.3776 1.29068 1.66591 0.751214 2.1949 0.597174C2.90327 0.390486 3.6162 0.200263 4.3337 0.0265067C4.87379 -0.103485 5.39821 0.25659 5.55801 0.844804C5.83784 1.87434 6.11245 2.90583 6.39032 3.93602C6.50381 4.35784 6.71646 4.47874 7.13065 4.3429C8.96165 3.73652 10.8828 3.44486 12.8119 3.4804C14.5121 3.50831 16.1981 3.79456 17.8116 4.32925C18.2884 4.48784 18.4893 4.37734 18.6191 3.89962C18.8926 2.89305 19.1646 1.88626 19.4351 0.879254C19.6197 0.192896 20.1376 -0.116483 20.8212 0.0603059C21.4409 0.220629 22.0599 0.385719 22.6782 0.555575C23.3468 0.738864 23.6468 1.26143 23.4753 1.93349C23.4394 2.07453 23.3957 2.21427 23.3625 2.35596C23.3264 2.48213 23.3416 2.61738 23.4049 2.73244C23.4681 2.84751 23.5742 2.93314 23.7003 2.97083C23.8758 3.03193 24.0604 3.06832 24.2385 3.12357C24.8079 3.30036 25.1132 3.82618 24.9612 4.39879C24.4315 6.392 23.8969 8.38327 23.3572 10.3726C23.1883 10.9926 22.6691 11.2825 22.0449 11.1402C21.887 11.1038 21.7318 11.0537 21.5739 11.0167C21.2784 10.9471 21.0397 11.0765 20.9425 11.3664C20.8832 11.5425 20.8466 11.7258 20.7912 11.9032C20.716 12.1634 20.5409 12.3836 20.3039 12.516C20.067 12.6485 19.7872 12.6826 19.5251 12.611C18.8572 12.442 18.1912 12.2646 17.5272 12.0787C16.9134 11.9052 16.614 11.3735 16.7804 10.758C17.0974 9.56207 17.4196 8.3681 17.7386 7.17282C17.8592 6.72175 17.7288 6.48387 17.282 6.33568C15.2794 5.66767 13.1577 5.42869 11.056 5.63437C9.90775 5.74047 8.77594 5.98043 7.68378 6.34932C7.27415 6.48776 7.14304 6.73215 7.25719 7.15917C7.57354 8.34665 7.89315 9.53348 8.2082 10.7216C8.38431 11.3859 8.09275 11.9091 7.43787 12.0904C6.78299 12.2718 6.12288 12.4466 5.46213 12.6104C5.20331 12.6777 4.92839 12.6423 4.69519 12.5118C4.46198 12.3812 4.28868 12.1657 4.21173 11.9104C4.15759 11.7414 4.12171 11.5666 4.06757 11.3969C3.9619 11.0641 3.73165 10.9419 3.39051 11.0245C3.27245 11.0544 3.15505 11.0856 3.03699 11.1168C2.3371 11.302 1.8081 11.0037 1.62155 10.3108C1.22692 8.84322 0.838822 7.37431 0.439631 5.90735C0.301349 5.39518 0.147414 4.88756 0 4.378L0.00065291 3.89767Z" fill="#0770E3"/>
</svg>
