<svg width="19" height="18" viewBox="0 0 19 18" fill="none" xmlns="http://www.w3.org/2000/svg">
<path d="M3.63476 16.2166C3.63476 16.5202 3.63476 16.8076 3.63476 17.0949C3.63023 17.5716 3.2955 17.9519 2.82053 17.9823C2.46166 18.0054 2.10168 18.0054 1.74281 17.9823C1.26785 17.9519 0.932544 17.5716 0.928021 17.0955C0.928021 16.7653 0.935938 16.4346 0.921802 16.1044C0.9131 16.0136 0.86881 15.9297 0.798534 15.8712C0.33205 15.5207 0.0397225 15.0705 0.0306755 14.4829C0.0148433 13.52 0.00918897 12.5565 0.0306755 11.5942C0.0470731 10.9231 0.40047 10.4346 0.977779 10.096C1.06907 10.0405 1.13944 9.95653 1.17795 9.85712C1.56583 8.72349 1.94411 7.58649 2.32408 6.45005C2.74364 5.19304 3.72862 4.4848 5.06305 4.4848C7.72248 4.4848 10.3819 4.4848 13.0413 4.4848C14.3769 4.4848 15.3596 5.19135 15.7803 6.44949C16.1603 7.58649 16.5386 8.72349 16.9264 9.85768C16.9656 9.95676 17.0363 10.0403 17.1277 10.0954C17.6881 10.4267 18.05 10.8989 18.0686 11.553C18.0969 12.5436 18.0901 13.5352 18.0686 14.5257C18.0573 15.0891 17.7723 15.5286 17.3189 15.8531C17.2714 15.8805 17.2328 15.9207 17.2073 15.9691C17.1818 16.0174 17.1705 16.072 17.1747 16.1264C17.1831 16.4498 17.1798 16.7732 17.1747 17.0966C17.1701 17.5722 16.8354 17.9525 16.3587 17.9829C15.9999 18.0057 15.6399 18.0057 15.281 17.9829C14.8072 17.9519 14.4724 17.571 14.4679 17.0944C14.4679 16.807 14.4679 16.5197 14.4679 16.2171L3.63476 16.2166ZM3.09251 9.87233H15.0006C14.9953 9.83431 14.9875 9.79667 14.9774 9.75964C14.6641 8.82153 14.3554 7.88286 14.0348 6.94757C13.8855 6.50922 13.5661 6.29511 13.0832 6.29455C10.3962 6.29455 7.70928 6.29455 5.02234 6.29455C4.52589 6.29455 4.21659 6.51992 4.0577 6.9887C3.91182 7.42085 3.77046 7.85413 3.62571 8.28459C3.45212 8.80801 3.27401 9.332 3.09251 9.87233ZM4.52985 13.0433C4.53112 12.8654 4.49689 12.689 4.42915 12.5243C4.3614 12.3597 4.26149 12.2101 4.13522 12.0843C4.00895 11.9585 3.85885 11.8589 3.69363 11.7914C3.52841 11.7239 3.35137 11.6898 3.1728 11.6911C2.81662 11.6958 2.47659 11.8399 2.22609 12.0923C1.97559 12.3446 1.83471 12.685 1.83385 13.0399C1.83381 13.3953 1.97415 13.7364 2.2245 13.9894C2.47485 14.2424 2.8151 14.3871 3.17167 14.3922C3.34998 14.3934 3.52676 14.3593 3.69178 14.292C3.85681 14.2247 4.00681 14.1255 4.13311 14C4.25941 13.8746 4.3595 13.7255 4.4276 13.5613C4.49569 13.397 4.53045 13.221 4.52985 13.0433ZM13.5768 13.0433C13.576 13.3983 13.716 13.7392 13.9662 13.9918C14.2165 14.2444 14.5567 14.3883 14.9129 14.3922C15.2728 14.3922 15.618 14.2497 15.8725 13.9961C16.127 13.7425 16.27 13.3986 16.27 13.0399C16.269 12.6849 16.1279 12.3445 15.8771 12.0922C15.6264 11.84 15.2862 11.6961 14.9299 11.6916C14.7519 11.6914 14.5756 11.7263 14.4112 11.7942C14.2467 11.8622 14.0974 11.9619 13.9718 12.0875C13.8462 12.2132 13.7468 12.3624 13.6793 12.5266C13.6118 12.6907 13.5775 12.8665 13.5785 13.0439L13.5768 13.0433Z" fill="#0770E3"/>
<path d="M0.130259 5.0871C0.117534 5.09186 0.103836 5.09345 0.0903505 5.09175C0.0768653 5.09005 0.0639998 5.0851 0.0528642 5.07734C0.0417286 5.06957 0.0326608 5.05923 0.0264423 5.04718C0.0202237 5.03514 0.0170404 5.02176 0.0171725 5.00821C0.0171725 4.62395 0.0171725 4.26167 0.0171725 3.89939C0.0171725 3.66894 -0.0444608 3.38667 0.0657991 3.22327C0.168708 3.07114 0.461607 3.04297 0.670253 2.96634C3.33534 2.00025 6.00023 1.03434 8.66493 0.0686251C8.9063 -0.0190513 9.17034 -0.0228207 9.41413 0.0579232C12.2515 1.00073 15.0887 1.94429 17.9256 2.8886C17.9912 2.91057 18.0766 3.00128 18.0777 3.06607C18.089 3.62105 18.084 4.1766 18.0828 4.73214C18.0821 4.74477 18.0784 4.75704 18.072 4.768C18.0657 4.77896 18.0569 4.78831 18.0463 4.7953C18.0357 4.8023 18.0237 4.80674 18.0111 4.80829C17.9985 4.80984 17.9857 4.80847 17.9737 4.80426C17.6158 4.6865 17.2641 4.57157 16.9129 4.45494C14.3647 3.60641 11.8161 2.75976 9.26712 1.91499C9.14317 1.87555 9.00997 1.87555 8.88602 1.91499C6.00268 2.95283 3.12141 3.99536 0.242215 5.04259L0.130259 5.0871Z" fill="#0770E3"/>
</svg>
