<svg width="19" height="18" viewBox="0 0 19 18" fill="none" xmlns="http://www.w3.org/2000/svg">
<path d="M18.065 10.2293C17.9144 10.5353 17.6621 10.6163 17.332 10.6159C11.787 10.6097 6.24224 10.6079 0.697803 10.6106C0.598324 10.614 0.498793 10.6056 0.401318 10.5855C0.276823 10.5564 0.167446 10.4826 0.0940886 10.3783C0.0207307 10.2739 -0.0114659 10.1462 0.00364576 10.0197C0.0178553 9.89619 0.0765685 9.78201 0.168884 9.69836C0.2612 9.61471 0.380843 9.56728 0.505596 9.56489C0.692502 9.55741 0.880293 9.56489 1.0482 9.56489C1.59301 5.6507 3.80539 3.26037 7.60272 2.27191C7.36986 1.32572 7.55102 0.686857 8.18465 0.264618C8.44827 0.090404 8.75794 -0.00170117 9.07426 2.37927e-05C9.39058 0.00174875 9.69923 0.0972299 9.96092 0.274308C10.435 0.605408 10.8773 1.26804 10.5318 2.27411C14.3251 3.25288 16.4779 5.6714 17.0139 9.55961C17.3775 9.59704 17.8534 9.42753 18.0637 9.94927L18.065 10.2293ZM9.07631 2.16227C9.34673 2.15655 9.6008 1.86904 9.59594 1.57404C9.59116 1.43525 9.53281 1.30366 9.43303 1.2067C9.33326 1.10974 9.19977 1.0549 9.06041 1.05362C8.9211 1.05896 8.78925 1.11774 8.69241 1.21768C8.59558 1.31762 8.54125 1.45098 8.54078 1.58989C8.54785 1.89061 8.80767 2.16756 9.07631 2.16227Z" fill="#0770E3"/>
<path d="M4.23508 18C4.23508 16.2362 4.24038 14.4724 4.23242 12.7086C4.23242 12.263 4.41536 11.968 4.81656 11.78C6.12623 11.1667 7.80485 11.404 8.879 12.3912C9.14633 12.6368 9.41851 12.7579 9.77818 12.7311C10.053 12.7104 10.3305 12.7253 10.6071 12.7275C11.2403 12.7315 11.7091 13.1678 11.7118 13.7591C11.7162 14.3562 11.2496 14.818 10.6173 14.8282C10.0822 14.837 9.54709 14.8251 9.01244 14.833C8.91958 14.8324 8.8283 14.857 8.7484 14.9042C8.66851 14.9514 8.603 15.0193 8.5589 15.1008C8.51481 15.1822 8.49379 15.2741 8.49811 15.3665C8.50243 15.459 8.53191 15.5485 8.5834 15.6255C8.65189 15.7272 8.79151 15.8457 8.89933 15.8457C9.57316 15.851 10.2501 15.858 10.9199 15.7972C11.3296 15.7603 11.6596 15.4917 11.9526 15.1993C12.9211 14.2342 13.8919 13.271 14.8649 12.3097C15.3182 11.8619 15.916 11.8298 16.3672 12.2216C16.5657 12.3951 16.6901 12.6378 16.7148 12.8998C16.7394 13.1618 16.6625 13.4233 16.4997 13.6306C16.4372 13.7076 16.3704 13.7811 16.2996 13.8507C15.3569 14.7921 14.4143 15.7331 13.4717 16.6739C12.8531 17.2951 12.1245 17.7226 11.2597 17.904C11.094 17.9388 10.9266 17.9657 10.76 17.9965L4.23508 18Z" fill="#0770E3"/>
<path d="M1.44776 18C1.14111 17.8609 1.05009 17.6205 1.05539 17.2933C1.06821 15.9751 1.06069 14.6569 1.06114 13.3386C1.06114 12.9098 1.25158 12.716 1.67974 12.713C2.12646 12.7103 2.57317 12.713 3.01989 12.713C3.06408 12.713 3.11091 12.7191 3.17454 12.724V18H1.44776Z" fill="#0770E3"/>
</svg>
