<svg width="20" height="21" viewBox="0 0 20 21" fill="none" xmlns="http://www.w3.org/2000/svg">
<path d="M5.34513 0C5.42078 0.0236934 5.49644 0.0489928 5.57318 0.0710707C5.9907 0.191899 6.35125 0.457215 6.58999 0.819285C6.82873 1.18136 6.92998 1.61643 6.87555 2.04625C6.76422 2.91698 5.99955 3.60785 5.13167 3.62508C4.2065 3.64231 3.43751 3.02198 3.27917 2.13132C3.1961 1.67473 3.29199 1.2038 3.54707 0.815578C3.80215 0.427354 4.19698 0.151424 4.65017 0.0446854C4.69448 0.0339157 4.73663 0.0150776 4.77986 0H5.34513Z" fill="#0770E3"/>
<path d="M3.88004 6.66646C3.91463 6.98955 3.94867 7.31694 3.98434 7.64219C4.03135 8.07567 4.08863 8.50807 4.12538 8.94263C4.15402 9.27595 4.29453 9.52635 4.58365 9.70136C5.18782 10.0665 5.78712 10.4402 6.39237 10.8042C6.50423 10.8715 6.54909 10.9383 6.52801 11.0761C6.49073 11.3141 6.4783 11.5564 6.46479 11.7977C6.46234 11.8773 6.47443 11.9566 6.50045 12.0319C6.73445 12.7379 6.95709 13.4481 7.21594 14.1449C7.37104 14.5639 7.4013 14.9947 7.44075 15.4276C7.56397 16.7706 7.67691 18.1147 7.80174 19.4582C7.85578 20.0338 7.54343 20.5039 7.00843 20.6213C6.765 20.6729 6.511 20.6304 6.29775 20.5026C6.0845 20.3748 5.92788 20.1711 5.85954 19.9326C5.79469 19.6887 5.78334 19.4297 5.76064 19.1787C5.64608 17.882 5.538 16.5843 5.42073 15.2876C5.40386 15.1147 5.36761 14.9442 5.31265 14.7793C5.01489 13.8762 4.70956 12.9754 4.40585 12.0739C4.28264 11.7078 4.27615 11.7045 3.85518 11.7471C3.85896 11.8235 3.86221 11.9011 3.86599 11.9786C3.92003 13.0787 3.98218 14.1783 4.02487 15.279C4.02539 15.453 3.98602 15.6249 3.90976 15.7814C3.25047 17.1987 2.58506 18.6128 1.91352 20.0236C1.65412 20.5707 1.08292 20.7893 0.567916 20.5502C0.0529126 20.3112 -0.146497 19.7226 0.114518 19.1658C0.715986 17.8847 1.3234 16.6064 1.91784 15.3226C1.98111 15.178 2.01014 15.0209 2.00268 14.8633C1.95783 13.7766 1.8638 12.6905 1.85786 11.6038C1.85299 10.7665 1.95242 9.92859 2.007 9.09125C2.06861 8.14674 2.13094 7.20225 2.19398 6.25774C2.21722 5.91634 2.23235 5.57386 2.27234 5.23462C2.31058 4.92811 2.4652 4.64785 2.70442 4.45144C2.94364 4.25504 3.24927 4.15741 3.5585 4.17864C4.28408 4.22603 5.0102 4.27306 5.73686 4.31973C5.90045 4.32831 6.06065 4.36957 6.20792 4.44106C6.3552 4.51254 6.48655 4.61279 6.59417 4.73586C6.7018 4.85893 6.7835 5.00229 6.83443 5.15745C6.88536 5.3126 6.90447 5.47637 6.89062 5.63902C6.87117 5.87272 6.91872 6.04773 7.08895 6.2125C7.27161 6.3902 7.4267 6.59591 7.59585 6.78708C7.81579 7.03478 7.98872 7.34817 8.39943 7.34494C7.9671 7.49195 7.68772 7.76765 7.55748 8.20652C7.18622 7.97928 6.82956 7.76443 6.47667 7.5415C6.41974 7.49507 6.37317 7.43728 6.33995 7.37187C6.06975 6.94915 5.80279 6.52482 5.49692 6.11827L5.61419 6.45267C5.77955 6.92761 5.93843 7.40418 6.1146 7.87482C6.15483 7.97757 6.22576 8.06554 6.3178 8.12682C7.13326 8.63677 7.95792 9.13111 8.77338 9.64159C9.32351 9.98622 9.32405 10.7385 8.78041 11.061C8.50426 11.2253 8.20866 11.2344 7.93522 11.0691C6.9625 10.4816 5.98977 9.89198 5.03218 9.28026C4.87006 9.17741 4.74252 8.97602 4.67227 8.7924C4.4226 8.14191 4.20482 7.47956 3.97515 6.82153C3.95624 6.76769 3.93462 6.71384 3.91463 6.65999L3.88004 6.66646Z" fill="#0770E3"/>
<path d="M12.1668 11.3578C12.6775 11.9943 13.1774 12.6173 13.68 13.2425C13.781 13.3679 13.8886 13.4896 13.9783 13.6232C14.0466 13.7235 14.0905 13.8383 14.1065 13.9585C14.1226 14.0787 14.1103 14.2009 14.0707 14.3156C14.0311 14.4302 13.9653 14.5341 13.8784 14.619C13.7916 14.7038 13.6861 14.7674 13.5703 14.8046C13.5162 14.8235 13.4568 14.8375 13.3784 14.8585V15.5725H12.7597C12.7597 15.3248 12.7705 15.0669 12.7542 14.8105C12.7485 14.6944 12.7097 14.5824 12.6424 14.4875C11.9712 13.6381 11.2948 12.793 10.6132 11.9523C10.2349 11.4811 10.2349 11.1413 10.6424 10.6873C11.0568 10.2232 11.4757 9.76276 11.8669 9.26951L11.1482 9.78916C11.1482 9.41599 11.1071 9.06489 11.1568 8.72619C11.2406 8.15485 11.687 7.70306 12.2673 7.66322C12.9857 7.61394 13.7067 7.61663 14.4246 7.67129C15.0191 7.71706 15.4768 8.27708 15.5011 8.87695C15.5173 9.27866 15.5044 9.68092 15.5044 10.1214C15.7837 9.99539 16.0323 9.88393 16.2804 9.77084C16.5284 9.65776 16.7797 9.53767 17.0326 9.42782C17.4579 9.24312 17.9054 9.40144 18.0945 9.79723C18.288 10.2032 18.1237 10.6588 17.6946 10.8602C17.0202 11.1779 16.3423 11.4888 15.6611 11.7929C15.5411 11.8467 15.5054 11.9108 15.5087 12.0341C15.5162 12.3416 15.5087 12.649 15.5087 12.9813H16.5933C16.7484 12.9813 16.9035 12.9813 17.0586 12.9813C17.519 12.9851 17.8724 13.2425 18.0032 13.6851C18.3973 15.0134 18.7886 16.3436 19.1769 17.6758C19.3012 18.0985 19.1823 18.4534 18.8219 18.7813C19.078 18.7813 19.2893 18.7754 19.5001 18.7813C19.7973 18.791 19.9983 18.9967 20 19.2773C20.0021 19.3432 19.9909 19.4088 19.967 19.4702C19.9431 19.5317 19.9071 19.5877 19.8611 19.6351C19.8151 19.6824 19.76 19.72 19.6991 19.7457C19.6382 19.7714 19.5727 19.7846 19.5066 19.7845C18.449 19.791 17.3914 19.7845 16.2815 19.7845C16.3582 19.6941 16.4155 19.6354 16.4619 19.5691C16.6106 19.3537 16.7651 19.1416 16.8975 18.9165C16.9613 18.8088 17.0272 18.7663 17.1504 18.7733C17.325 18.7835 17.5006 18.776 17.6627 18.776C17.5546 18.5805 17.4336 18.3936 17.3563 18.1895C17.3127 18.059 17.3069 17.9188 17.3396 17.7851C17.9108 15.4023 16.2858 12.9452 13.8577 12.5214C13.7491 12.4991 13.6505 12.4425 13.5767 12.3599C13.2849 12.0174 13.0115 11.6598 12.724 11.312C12.6456 11.2178 12.6483 11.1504 12.711 11.0497C12.8464 10.8428 12.9575 10.6211 13.0423 10.389L12.1668 11.3578Z" fill="#0770E3"/>
<path d="M11.2408 13.4789L11.8752 14.271C11.4504 14.4961 11.0878 14.7642 10.8057 15.1616L12.1362 15.9322C12.0346 16.1061 11.9384 16.272 11.8298 16.4572L10.5139 15.7033C10.1789 16.217 10.1708 17.2687 10.501 17.9413L11.1743 17.5563L11.8314 17.1793L12.1367 17.7054L10.8003 18.4782C11.297 19.12 11.9303 19.4948 12.7533 19.6036V18.07H13.3748V19.602C14.2049 19.4991 14.8366 19.12 15.337 18.4771L13.9995 17.7049L14.3048 17.1793L15.6418 17.9451C15.9601 17.1955 15.952 16.4615 15.6483 15.6899L14.3054 16.4572L14.0001 15.9327L15.364 15.1444C15.1311 14.929 14.9263 14.7238 14.7004 14.5434C14.5848 14.4519 14.5275 14.3883 14.5588 14.2203C14.6269 13.8601 14.5048 13.5322 14.2751 13.2371C15.3559 13.2823 16.7377 15.0098 16.8799 16.3867C17.0858 18.3823 15.7353 20.1722 13.8563 20.5497C11.8973 20.9433 10.0232 19.8454 9.41744 17.9714C8.82084 16.132 9.74871 14.2451 11.2408 13.4789Z" fill="#0770E3"/>
<path d="M13.7387 3.66064C13.9696 3.66163 14.1981 3.70799 14.4111 3.79709C14.624 3.88619 14.8173 4.01627 14.9797 4.17988C15.1421 4.34349 15.2706 4.53742 15.3577 4.75056C15.4448 4.96371 15.4889 5.19189 15.4874 5.42203C15.4723 6.37946 14.6768 7.16241 13.7241 7.15757C13.4914 7.15697 13.2611 7.11019 13.0467 7.01996C12.8323 6.92973 12.6381 6.79786 12.4754 6.63204C12.3128 6.46622 12.1848 6.26978 12.0992 6.05417C12.0135 5.83856 11.9718 5.6081 11.9764 5.37625C11.9785 5.14812 12.0257 4.92264 12.1155 4.71278C12.2053 4.50291 12.3358 4.31279 12.4996 4.15336C12.6634 3.99393 12.8571 3.86833 13.0698 3.78377C13.2824 3.69921 13.5097 3.65737 13.7387 3.66064Z" fill="#0770E3"/>
<path d="M12.2149 16.8213C12.2134 16.7087 12.2344 16.597 12.2765 16.4925C12.3187 16.3881 12.3813 16.293 12.4606 16.2129C12.5399 16.1327 12.6344 16.0691 12.7387 16.0256C12.8429 15.9822 12.9547 15.9597 13.0677 15.9597C13.1825 15.9576 13.2967 15.9784 13.4034 16.0207C13.5101 16.0631 13.6073 16.1262 13.6892 16.2064C13.7712 16.2867 13.8363 16.3823 13.8807 16.4879C13.9251 16.5935 13.948 16.7068 13.948 16.8213C13.9441 17.0479 13.8529 17.2644 13.6932 17.4259C13.5336 17.5873 13.3177 17.6815 13.0904 17.6888C12.9755 17.6898 12.8616 17.668 12.7553 17.6249C12.6489 17.5817 12.5523 17.5179 12.4708 17.4372C12.3894 17.3565 12.3248 17.2605 12.2809 17.1548C12.237 17.0491 12.2146 16.9357 12.2149 16.8213Z" fill="#0770E3"/>
<path d="M9.89744 13.8041C9.64724 13.0551 9.40406 12.333 9.16844 11.6082C9.16647 11.5813 9.1707 11.5543 9.18082 11.5293C9.19093 11.5042 9.20667 11.4819 9.22681 11.4639C9.58293 11.1639 9.76721 10.7875 9.76397 10.319C9.83225 10.3939 9.87847 10.4861 9.89754 10.5855C9.91661 10.6849 9.90779 10.7876 9.87205 10.8823C9.72073 11.2441 9.74721 11.5909 9.98553 11.9086C10.139 12.1133 10.3038 12.3087 10.4627 12.5085C10.5077 12.5589 10.5484 12.6129 10.5843 12.6701C10.7686 13.0061 10.7464 13.1008 10.4416 13.3324C10.3508 13.4019 10.2611 13.4735 10.1752 13.5478C10.0893 13.6221 10.0098 13.7013 9.89744 13.8041Z" fill="#0770E3"/>
<path d="M9.44141 7.60236L10.9459 7.9793C10.5973 8.48117 10.6384 9.03473 10.6406 9.5786C10.245 9.57429 10.1828 9.53121 10.0731 9.20166C9.96506 8.88395 9.87157 8.56302 9.7516 8.25123C9.66621 8.02884 9.54787 7.82152 9.44141 7.60236Z" fill="#0770E3"/>
<path d="M9.54552 9.53389C9.20668 9.13272 8.73059 8.94802 8.31988 8.67231C8.12858 8.54469 8.08967 8.4483 8.18587 8.24152C8.22377 8.15098 8.28818 8.07392 8.37071 8.02041C8.45323 7.9669 8.55002 7.93944 8.64845 7.94158C8.75391 7.93934 8.85728 7.97111 8.94317 8.03214C9.02905 8.09317 9.09286 8.18021 9.12509 8.28029C9.27153 8.69762 9.40609 9.11657 9.54552 9.53389Z" fill="#0770E3"/>
</svg>
