<svg width="16" height="18" viewBox="0 0 16 18" fill="none" xmlns="http://www.w3.org/2000/svg">
<path d="M6.52367 0C6.62921 0.0286387 6.73475 0.0568005 6.83981 0.0863781C7.86081 0.374643 8.52938 1.34507 8.45965 2.43757C8.39557 3.44133 7.59178 4.30518 6.57502 4.46575C5.35567 4.65777 4.19474 3.85541 3.98932 2.6817C3.7674 1.41409 4.55989 0.26479 5.81458 0.0352115C5.84116 0.0270973 5.86664 0.0157452 5.89043 0.00140983L6.52367 0Z" fill="#0770E3"/>
<path d="M12.1666 0C12.2721 0.0286387 12.3776 0.0568005 12.4827 0.0863781C13.5037 0.374643 14.1732 1.34648 14.1021 2.43757C14.0371 3.4418 13.2342 4.30518 12.2174 4.46575C10.9981 4.65777 9.83716 3.85541 9.63126 2.6817C9.40982 1.41409 10.2023 0.26479 11.4565 0.0352115C11.4833 0.0272126 11.5089 0.0158552 11.5329 0.00140983L12.1666 0Z" fill="#0770E3"/>
<path d="M8.88721 5.60284C11.1488 5.61411 12.9702 7.07891 13.4268 9.14887C13.4796 9.42068 13.6377 9.66085 13.8669 9.81742C14.9034 10.5494 15.5531 11.5372 15.7477 12.7916C15.9293 13.9199 15.6724 15.0747 15.0294 16.0208C14.3863 16.9669 13.4054 17.6331 12.2866 17.8837C11.3468 18.1048 10.36 18.0089 9.48086 17.6109C9.16425 17.47 8.86459 17.4865 8.54797 17.6222C7.96839 17.8723 7.3425 17.9982 6.71093 17.9917C6.07935 17.9852 5.4562 17.8464 4.88194 17.5843C4.30769 17.3223 3.79515 16.9428 3.37761 16.4706C2.96006 15.9984 2.64684 15.4439 2.45827 14.8433C2.17206 13.9499 2.17686 12.9891 2.47197 12.0986C2.76707 11.2081 3.33736 10.4334 4.10119 9.88551C4.38138 9.69233 4.57874 9.40152 4.65433 9.07047C5.12549 7.2437 6.31751 6.13712 8.14089 5.69956C8.43207 5.63008 8.73549 5.62162 8.88721 5.60284Z" fill="#0770E3"/>
<path d="M2.25874 3.93662C2.55568 3.93555 2.84988 3.99317 3.12432 4.10614C3.39876 4.21911 3.64801 4.38518 3.85762 4.59476C4.06724 4.80433 4.23307 5.05323 4.34552 5.32708C4.45797 5.60092 4.51481 5.89427 4.51276 6.19015C4.51308 6.4861 4.45453 6.77918 4.34049 7.05245C4.22645 7.32572 4.05919 7.57376 3.84836 7.78222C3.63754 7.99068 3.38734 8.15543 3.11223 8.26695C2.83711 8.37847 2.54254 8.43455 2.24555 8.43195C1.95001 8.43158 1.65745 8.37315 1.3846 8.26001C1.11174 8.14688 0.863939 7.98125 0.655379 7.7726C0.446819 7.56395 0.28159 7.31638 0.169137 7.04404C0.0566835 6.7717 -0.000783418 6.47995 2.1924e-05 6.18546C-0.00128956 5.88962 0.0562504 5.59644 0.169321 5.32288C0.282391 5.04933 0.44875 4.80082 0.658778 4.59171C0.868807 4.3826 1.11834 4.21704 1.39296 4.1046C1.66759 3.99216 1.96185 3.93506 2.25874 3.93662Z" fill="#0770E3"/>
</svg>
