<svg width="19" height="18" viewBox="0 0 19 18" fill="none" xmlns="http://www.w3.org/2000/svg">
<path d="M9.04192 3.9613e-07C10.2293 0.000571376 11.4049 0.234496 12.5014 0.688375C13.5979 1.14225 14.5939 1.80718 15.4322 2.64508C16.2705 3.48299 16.9347 4.47742 17.3868 5.57144C17.8389 6.66547 18.0701 7.83762 18.067 9.02077C18.0611 13.9819 14.0134 18.0015 9.02656 18C7.83912 17.9992 6.66348 17.7652 5.56691 17.3112C4.47034 16.8572 3.47437 16.1922 2.63598 15.3543C1.79758 14.5164 1.13323 13.522 0.680922 12.4279C0.228616 11.3339 -0.00276345 10.1617 2.49045e-05 8.97851C0.00368145 4.01887 4.05221 -0.00145703 9.04192 3.9613e-07ZM9.85587 7.87669C9.85587 7.32578 9.86391 6.82661 9.85221 6.32744C9.84561 6.24283 9.85882 6.15784 9.8908 6.07919C9.92278 6.00053 9.97266 5.93036 10.0365 5.87418C10.438 5.49088 10.827 5.09372 11.219 4.69949C11.4223 4.49544 11.535 4.25206 11.4786 3.96058C11.4569 3.81127 11.3924 3.67138 11.2929 3.55765C11.1935 3.44392 11.0632 3.36116 10.9177 3.3193C10.596 3.2151 10.3202 3.30473 10.0899 3.52771C9.73813 3.8673 9.3988 4.21926 9.03022 4.59018C8.67627 4.23165 8.35522 3.8979 8.0254 3.56998C7.63854 3.18959 7.15222 3.1721 6.81143 3.51678C6.47064 3.86146 6.49477 4.33878 6.87871 4.72646C7.26265 5.11413 7.66706 5.50909 8.05685 5.90551C8.12194 5.97255 8.20311 6.06583 8.20311 6.14817C8.21628 6.71001 8.20969 7.27258 8.20969 7.87231C7.68242 7.70034 7.18001 7.54658 6.68565 7.37023C6.56361 7.3239 6.46064 7.23823 6.39313 7.12684C6.12766 6.64152 5.89218 6.14016 5.62671 5.65411C5.54229 5.49462 5.4246 5.35498 5.28154 5.24457C4.99633 5.03543 4.58094 5.07988 4.31913 5.31161C4.18253 5.4278 4.08887 5.58621 4.05309 5.76158C4.01731 5.93696 4.04145 6.11922 4.12168 6.27934C4.33741 6.72678 4.56997 7.16619 4.80545 7.6282L3.55345 8.26874C3.07152 8.5165 2.89527 8.96393 3.10882 9.39606C3.32236 9.82819 3.80356 9.95936 4.27891 9.72179C4.78424 9.47039 5.28519 9.2117 5.79052 8.95883C5.86804 8.92021 5.97189 8.87284 6.04429 8.8947C6.58911 9.05794 7.12882 9.2372 7.69192 9.41865C7.64585 9.49589 7.61879 9.54253 7.591 9.58479C7.29117 9.99652 6.99499 10.4104 6.68492 10.8149C6.62059 10.8755 6.53762 10.9127 6.44943 10.9205C5.90144 11.0119 5.35296 11.0979 4.80399 11.1785C4.25697 11.2594 3.91033 11.6711 3.99955 12.147C4.08877 12.6228 4.52682 12.8822 5.06068 12.7904C5.50678 12.7175 5.9558 12.652 6.42091 12.5813L6.53354 13.2794C6.57083 13.5126 6.60154 13.7465 6.64615 13.9782C6.75219 14.5248 7.13174 14.8104 7.6283 14.7252C8.08025 14.6472 8.34499 14.207 8.2565 13.678C8.20969 13.4004 8.19141 13.1147 8.11024 12.848C7.89084 12.1433 8.0371 11.5472 8.5578 11.0262C8.7377 10.8447 8.87006 10.6152 9.03827 10.3893C9.33079 10.7901 9.58236 11.1698 9.87049 11.5203C10.0621 11.7535 10.1009 11.9808 10.0423 12.2687C9.94289 12.7569 9.86903 13.2517 9.80321 13.7458C9.71984 14.3717 10.1594 14.8199 10.7481 14.7288C11.1283 14.6705 11.3704 14.3644 11.4435 13.8631C11.5042 13.4441 11.573 13.0265 11.6432 12.5805C12.1193 12.6534 12.569 12.719 13.0159 12.7992C13.5278 12.8881 13.9665 12.6308 14.0631 12.1681C14.1596 11.7054 13.8437 11.2936 13.3274 11.1989C12.8257 11.1107 12.3196 11.043 11.8165 10.9606C11.6754 10.9373 11.4808 10.9387 11.4092 10.8498C11.0479 10.401 10.7181 9.92584 10.3575 9.43177C10.8841 9.26125 11.3631 9.09291 11.8509 8.95664C12.0023 8.91666 12.1629 8.92794 12.3072 8.98871C12.8272 9.23065 13.331 9.51047 13.843 9.75823C14.3805 10.0169 14.9545 9.70649 15.035 9.13008C15.0818 8.79633 14.9004 8.47861 14.5465 8.29351C14.1216 8.07053 13.693 7.85628 13.2579 7.63256C13.4773 7.20189 13.6857 6.79891 13.8898 6.39375C14.1362 5.90332 14.0038 5.4129 13.5716 5.20084C13.1394 4.98879 12.6838 5.17097 12.4374 5.64827C12.1785 6.14817 11.9255 6.65099 11.6659 7.15016C11.6256 7.22303 11.5664 7.32141 11.4947 7.34618C10.9638 7.52763 10.427 7.69306 9.85367 7.87669H9.85587Z" fill="#0770E3"/>
</svg>
