<svg width="18" height="16" viewBox="0 0 18 16" fill="none" xmlns="http://www.w3.org/2000/svg">
<path d="M9.31355 0C12.1359 0.0334443 14.9087 1.00635 17.339 2.94689C18.0911 3.5466 18.2155 4.51954 17.6395 5.2386C17.0842 5.93181 16.0811 6.03214 15.3511 5.44534C13.8255 4.2231 12.0902 3.46909 10.1442 3.2631C7.45536 2.97502 5.02049 3.65379 2.87015 5.29636C2.44985 5.61636 2.02649 5.87631 1.47117 5.8193C0.810583 5.75089 0.349849 5.40049 0.121771 4.79241C-0.106308 4.18433 -0.0307897 3.55269 0.491731 3.12704C1.13346 2.59342 1.81881 2.11415 2.54062 1.69424C4.5384 0.551056 6.71163 0.00532069 9.31355 0Z" fill="#0770E3"/>
<path d="M9.06618 8.64687C8.23575 8.64268 7.4214 8.875 6.71903 9.3165C6.05311 9.71935 5.27505 9.6327 4.74566 9.12495C4.57447 8.96225 4.44186 8.76354 4.35749 8.5433C4.27313 8.32306 4.23913 8.08683 4.25799 7.85184C4.27684 7.61685 4.34807 7.38903 4.46648 7.18494C4.58489 6.98085 4.7475 6.80565 4.94247 6.67211C6.27163 5.76127 7.87333 5.33057 9.48191 5.45141C10.7506 5.52399 11.9762 5.93597 13.0297 6.644C13.5637 7.00201 13.8047 7.52419 13.7376 8.1642C13.6773 8.74491 13.3615 9.17133 12.8314 9.41912C12.2898 9.67147 11.7596 9.61066 11.2554 9.29978C10.5575 8.8688 9.80534 8.63699 9.06618 8.64687Z" fill="#0770E3"/>
<path d="M9.04349 10.4787C10.2983 10.4878 11.2953 11.5162 11.2869 12.7939C11.2777 14.0428 10.2434 15.0385 8.9634 15.0294C7.71087 15.021 6.71236 13.9896 6.72076 12.7141C6.72915 11.4645 7.76275 10.4703 9.04349 10.4787Z" fill="#0770E3"/>
</svg>
