<svg width="26" height="25" viewBox="0 0 26 25" fill="none" xmlns="http://www.w3.org/2000/svg">
<g clip-path="url(#clip0_756_389)">
<path d="M13.3547 6.67974V7.51523C13.7787 7.54656 14.1944 7.56954 14.6079 7.60992C15.9879 7.74499 17.3302 8.02767 18.5863 8.64036C20.4759 9.56428 21.5892 11.0974 22.1009 13.1061C22.3745 14.1804 22.4643 15.2763 22.5103 16.3784C22.5145 16.4647 22.5103 16.5511 22.5103 16.6569C22.5716 16.6667 22.6189 16.6729 22.6663 16.6827C22.8777 16.7222 23.0662 16.8408 23.1932 17.0144C23.3202 17.188 23.3763 17.4035 23.35 17.617C23.3075 18.025 22.9441 18.3411 22.5033 18.3418C20.6272 18.3418 18.751 18.3418 16.8749 18.3418C12.1056 18.3418 7.33683 18.3418 2.5685 18.3418C2.21272 18.3418 1.94188 18.2109 1.76921 17.906C1.69222 17.7785 1.65328 17.6316 1.65698 17.4827C1.66068 17.3338 1.70687 17.1891 1.7901 17.0656C1.86249 16.9451 1.96443 16.8451 2.08627 16.7751C2.20811 16.705 2.34581 16.6672 2.48634 16.6653C2.52742 16.0707 2.55596 15.4816 2.61306 14.8954C2.76832 13.3873 3.11435 11.9385 4.00554 10.6727C4.86401 9.45496 6.05458 8.69885 7.4422 8.22262C8.6655 7.80487 9.93057 7.61271 11.2179 7.54935C11.3641 7.54169 11.5097 7.52567 11.6656 7.51244V6.69506C11.103 6.55024 10.8392 6.26756 10.8433 5.8157C10.8455 5.60272 10.9309 5.39904 11.0813 5.24824C11.2318 5.09743 11.4352 5.01147 11.6482 5.00876C12.2052 5.00179 12.7622 5.00458 13.3192 5.00876C13.7759 5.00876 14.1421 5.32973 14.177 5.74886C14.2159 6.2063 13.9374 6.57252 13.4807 6.6693C13.441 6.67208 13.4062 6.67417 13.3547 6.67974ZM18.9246 14.1198C18.921 14.073 18.9142 14.0265 18.9044 13.9805C18.5932 12.7447 17.8817 11.8591 16.6702 11.3982C15.9252 11.1141 15.1496 10.9944 14.3629 10.9108C13.8198 10.8551 13.3881 11.1601 13.3456 11.669C13.3039 12.1348 13.6771 12.5087 14.1965 12.5651C14.6537 12.6103 15.1079 12.6819 15.5569 12.7795C16.4391 12.978 17.0998 13.4375 17.3017 14.3865C17.3154 14.4456 17.3372 14.5025 17.3664 14.5556C17.4508 14.7188 17.5876 14.8487 17.7549 14.9245C17.9221 15.0003 18.11 15.0175 18.2883 14.9734C18.6803 14.8773 18.9302 14.5556 18.9253 14.1205L18.9246 14.1198Z" fill="black"/>
<path d="M0 25.0007C0.265965 24.2014 0.522885 23.4209 0.789546 22.6439C0.805551 22.6124 0.828116 22.5846 0.855736 22.5625C0.883357 22.5404 0.915389 22.5245 0.949677 22.5158C1.95784 22.293 2.33451 21.9017 2.51831 20.8511H11.6683V20.0358H13.3393V20.8434H22.4907C22.5025 20.8777 22.5125 20.9125 22.5207 20.9479C22.6669 21.8711 23.1208 22.3341 24.0406 22.5144C24.082 22.5243 24.1208 22.5431 24.1544 22.5694C24.1879 22.5957 24.2153 22.629 24.2348 22.6669C24.4834 23.3777 24.7222 24.0935 24.9582 24.8078C24.977 24.8649 24.9896 24.9234 25.0104 25.0007H0Z" fill="black"/>
<path d="M13.3429 1.65847C13.3429 1.94532 13.3477 2.23217 13.3429 2.51833C13.3423 2.62695 13.3202 2.73439 13.2778 2.83438C13.2354 2.93438 13.1735 3.02495 13.0957 3.10081C13.018 3.17668 12.9259 3.23633 12.8249 3.2763C12.7239 3.31627 12.616 3.33575 12.5074 3.33363C12.3987 3.33446 12.291 3.3137 12.1905 3.27255C12.0899 3.2314 11.9985 3.17068 11.9216 3.09392C11.8447 3.01716 11.7839 2.92588 11.7426 2.8254C11.7012 2.72492 11.6803 2.61723 11.6809 2.50858C11.6754 1.94416 11.6754 1.37951 11.6809 0.814625C11.6809 0.705869 11.7026 0.598203 11.7449 0.497984C11.7871 0.397765 11.849 0.307019 11.9269 0.231096C12.0047 0.155174 12.097 0.0956179 12.1983 0.0559306C12.2995 0.0162432 12.4077 -0.00276489 12.5164 2.37294e-05C12.625 -0.000619583 12.7327 0.0202303 12.8332 0.0613869C12.9337 0.102544 13.025 0.163186 13.102 0.239816C13.1789 0.316447 13.24 0.407551 13.2816 0.507877C13.3231 0.608203 13.3444 0.715772 13.3443 0.824373C13.347 1.10287 13.3429 1.38067 13.3429 1.65847Z" fill="black"/>
<path d="M5.04382 4.15724C4.99438 4.51998 4.83494 4.77481 4.5279 4.92311C4.22085 5.07141 3.90128 5.04843 3.65133 4.82007C3.30838 4.5137 2.98296 4.18827 2.67659 3.84533C2.39391 3.52714 2.44404 3.03699 2.75108 2.7376C3.05813 2.43822 3.52948 2.40201 3.84001 2.67912C4.18839 2.99199 4.51871 3.3244 4.82938 3.67474C4.94217 3.79798 4.97489 3.99363 5.04382 4.15724Z" fill="black"/>
<path d="M20.9521 5.00875C20.4981 4.99482 20.2426 4.83259 20.0971 4.52625C19.9516 4.2199 19.9739 3.90451 20.2022 3.65038C20.5045 3.31552 20.8235 2.99623 21.1582 2.69374C21.3174 2.55567 21.5241 2.48488 21.7345 2.49631C21.945 2.50775 22.1428 2.6005 22.2861 2.75501C22.4329 2.90008 22.5188 3.09568 22.5263 3.30191C22.5338 3.50814 22.4623 3.70946 22.3265 3.86482C22.0307 4.19389 21.7167 4.50607 21.3859 4.79987C21.2466 4.92102 21.0405 4.96767 20.9521 5.00875Z" fill="black"/>
</g>
<defs>
<clipPath id="clip0_756_389">
<rect width="25.0111" height="25" fill="white"/>
</clipPath>
</defs>
</svg>
