<svg width="25" height="30" viewBox="0 0 25 30" fill="none" xmlns="http://www.w3.org/2000/svg">
<g clip-path="url(#clip0_756_359)">
<path d="M12.6742 1.38665e-05C12.7939 0.14866 12.9394 0.283222 13.0278 0.447516C13.2625 0.885632 13.4628 1.34174 13.6983 1.77751C13.732 1.83047 13.7758 1.87626 13.8272 1.91224C13.8786 1.94822 13.9366 1.97369 13.9979 1.98718C14.5244 2.08184 15.0611 2.12879 15.5837 2.24144C15.7716 2.29826 15.932 2.42217 16.0344 2.58959C16.1494 2.77892 16.0422 2.98077 15.8818 3.13724C15.5039 3.50416 15.1182 3.86404 14.7568 4.24739C14.6603 4.35862 14.6114 4.50334 14.6207 4.6503C14.6864 5.15179 14.7857 5.64858 14.8773 6.14694C14.9211 6.38164 14.9039 6.59836 14.6981 6.75404C14.4924 6.90973 14.2811 6.86905 14.0683 6.75404C13.613 6.50995 13.16 6.26116 12.6945 6.03819C12.568 5.98616 12.426 5.98616 12.2994 6.03819C11.8339 6.26116 11.381 6.5076 10.9264 6.75482C10.7128 6.86905 10.5032 6.90503 10.3005 6.75013C10.0979 6.59522 10.0799 6.37695 10.1237 6.14225C10.2153 5.64389 10.3146 5.1471 10.3803 4.64561C10.3889 4.49871 10.3394 4.35431 10.2426 4.24348C9.89606 3.87343 9.52679 3.52372 9.15909 3.17479C8.98306 3.00737 8.87196 2.82039 8.95568 2.57786C9.03939 2.33533 9.22559 2.2477 9.47203 2.21719C9.98447 2.1546 10.4961 2.07872 11.0031 1.98249C11.0644 1.96862 11.1224 1.94275 11.1737 1.90636C11.225 1.86997 11.2686 1.82379 11.3019 1.77047C11.5366 1.33392 11.7385 0.878593 11.9732 0.440477C12.0616 0.275402 12.2079 0.140834 12.326 -0.0078125L12.6742 1.38665e-05Z" fill="black"/>
<path d="M6.11944 20.1205C6.11944 17.0954 6.11944 14.0703 6.11944 11.0452C6.11944 9.70817 6.95655 8.8648 8.28811 8.86401C11.0994 8.86401 13.9103 8.86401 16.7211 8.86401C18.0338 8.86401 18.8764 9.71286 18.8764 11.0288C18.8764 17.1102 18.8764 23.1909 18.8764 29.2708C18.8764 29.8482 18.734 29.9883 18.1473 29.9883C17.3759 29.9883 16.6045 29.9883 15.8339 29.9883C15.4239 29.9883 15.2495 29.8138 15.2487 29.3999C15.2487 27.6047 15.2487 25.8089 15.2487 24.0127C15.2487 23.4705 15.0922 23.3085 14.5555 23.3085H10.3958C9.91931 23.3085 9.74719 23.4814 9.74641 23.9642C9.74641 25.75 9.74641 27.5361 9.74641 29.3225C9.74641 29.8341 9.59542 29.9859 9.08846 29.9859C8.31758 29.9859 7.54644 29.9859 6.77505 29.9859C6.27904 29.9859 6.11865 29.8216 6.11865 29.3139C6.11865 26.2465 6.11891 23.1821 6.11944 20.1205ZM12.5167 13.9399C11.5998 13.9399 10.6826 13.9399 9.76519 13.9399C9.35758 13.9399 9.14322 14.1105 9.13931 14.4304C9.1354 14.7504 9.35445 14.935 9.75502 14.935C11.5805 14.935 13.406 14.935 15.2315 14.935C15.6359 14.935 15.8573 14.7575 15.8573 14.4383C15.8573 14.1191 15.643 13.9407 15.2409 13.9399C14.3328 13.9363 13.4248 13.9347 12.5167 13.9352V13.9399ZM12.4815 19.7418C13.1152 19.7418 13.7489 19.7418 14.3826 19.7418C14.7621 19.7418 14.978 19.5611 14.9842 19.2536C14.9905 18.9462 14.7722 18.7459 14.4014 18.7451C13.134 18.742 11.8668 18.742 10.6 18.7451C10.2268 18.7451 10.0093 18.9399 10.0124 19.2489C10.0155 19.558 10.233 19.7395 10.6093 19.7418C11.2337 19.7395 11.8572 19.7371 12.4815 19.7371V19.7418Z" fill="black"/>
<path d="M5.13691 22.969C5.13691 25.086 5.13691 27.203 5.13691 29.3201C5.13691 29.8255 4.98044 29.9827 4.47582 29.9827C3.64653 29.9827 2.81724 29.9866 1.98795 29.9827C1.49046 29.9835 1.01101 29.7965 0.645374 29.4592C0.279741 29.1218 0.0548553 28.6589 0.015648 28.163C0.00547741 28.0464 0 27.9283 0 27.8125C0 24.5923 0 21.3724 0 18.1528C0 17.1272 0.496793 16.3808 1.3699 16.0984C1.57235 16.0335 1.78322 15.9987 1.99578 15.9951C2.81568 15.9834 3.6348 15.9896 4.4547 15.9904C4.96558 15.9904 5.12126 16.1422 5.12126 16.6468C5.12126 18.7544 5.12126 20.8621 5.12126 22.9697L5.13691 22.969ZM3.43295 22.0552C3.43295 21.7141 3.43686 21.373 3.43295 21.0319C3.42826 20.7189 3.2491 20.5124 2.97293 20.496C2.9067 20.4908 2.84013 20.4996 2.77746 20.5216C2.71479 20.5436 2.65738 20.5784 2.60889 20.6238C2.5604 20.6692 2.52189 20.7242 2.4958 20.7853C2.46971 20.8464 2.45662 20.9122 2.45736 20.9787C2.44067 21.689 2.44067 22.4002 2.45736 23.1121C2.45528 23.1785 2.46706 23.2446 2.49196 23.3061C2.51687 23.3676 2.55433 23.4233 2.60197 23.4696C2.64961 23.5158 2.70637 23.5516 2.76863 23.5746C2.83089 23.5977 2.89728 23.6075 2.96354 23.6035C3.24284 23.5933 3.42826 23.3938 3.43295 23.0785C3.43295 22.7374 3.43295 22.3963 3.43295 22.0552Z" fill="black"/>
<path d="M19.8709 22.9651C19.8709 20.8788 19.8709 18.791 19.8709 16.7016C19.8709 16.1297 20.0086 15.9896 20.5696 15.9896C21.3699 15.9896 22.1702 15.9896 22.9698 15.9896C24.0651 15.9943 24.8991 16.772 24.9844 17.8618C24.9914 17.9596 24.9961 18.0566 24.9961 18.1544C24.9961 21.374 24.9961 24.5937 24.9961 27.8133C24.9961 28.5659 24.7551 29.1887 24.1253 29.6291C23.7975 29.8631 23.4038 29.9869 23.0011 29.9827C22.1624 29.9827 21.323 29.9827 20.4843 29.9827C20.0149 29.9827 19.8584 29.8161 19.8584 29.3459V22.9651H19.8709ZM21.5678 22.056C21.5678 22.3971 21.5631 22.7382 21.5678 23.0793C21.5733 23.3922 21.7579 23.5941 22.0372 23.6035C22.1009 23.6076 22.1648 23.5987 22.225 23.5773C22.2851 23.556 22.3403 23.5225 22.3871 23.4791C22.4339 23.4357 22.4713 23.3832 22.4971 23.3248C22.5229 23.2664 22.5366 23.2034 22.5372 23.1395C22.5544 22.4093 22.5544 21.6791 22.5372 20.9489C22.5358 20.885 22.5213 20.8219 22.4945 20.7638C22.4677 20.7057 22.4292 20.6538 22.3814 20.6113C22.3336 20.5688 22.2775 20.5366 22.2167 20.5167C22.1558 20.4969 22.0915 20.4898 22.0279 20.496C21.7611 20.5124 21.5764 20.7095 21.5702 21.0037C21.5631 21.3542 21.5686 21.7055 21.5678 22.056Z" fill="black"/>
<path d="M10.7447 27.1507C10.7447 26.4004 10.7447 25.6494 10.7447 24.8983C10.7447 24.4876 10.9239 24.3045 11.326 24.3022C12.1083 24.299 12.8883 24.299 13.666 24.3022C14.0705 24.3022 14.2504 24.486 14.2504 24.8952C14.2504 26.3968 14.2504 27.8981 14.2504 29.3992C14.2504 29.7903 14.065 29.9804 13.684 29.982C12.8943 29.9851 12.1047 29.9851 11.315 29.982C10.9309 29.982 10.747 29.7943 10.7447 29.4031C10.7423 28.652 10.7447 27.9017 10.7447 27.1507Z" fill="black"/>
<path d="M18.7374 3.57456C18.9932 3.56439 19.1387 3.70599 19.224 3.90314C19.3022 4.08074 19.4024 4.18166 19.6058 4.1973C19.8303 4.21373 20.0244 4.30918 20.0979 4.54623C20.1714 4.78329 20.0564 4.96871 19.9054 5.15412C19.8151 5.26904 19.769 5.41257 19.7756 5.5586C19.7983 5.7933 19.7803 5.98889 19.5878 6.13519C19.382 6.29166 19.1591 6.26662 18.9619 6.12971C18.7945 6.01236 18.6654 6.0679 18.5089 6.14379C18.0278 6.3785 17.6523 6.12111 17.7266 5.59067C17.7563 5.3724 17.6937 5.24487 17.56 5.08293C17.447 4.93484 17.3914 4.75088 17.4035 4.56501C17.4238 4.34673 17.6131 4.22469 17.8424 4.2067C18.0513 4.19027 18.1952 4.11047 18.2789 3.89376C18.3548 3.6966 18.5113 3.55735 18.7374 3.57456Z" fill="black"/>
<path d="M6.25625 3.57301C6.48392 3.56205 6.64039 3.6974 6.73036 3.90942C6.80077 4.07371 6.89074 4.17542 7.08555 4.19106C7.33042 4.21141 7.53696 4.31311 7.61285 4.57755C7.68874 4.84198 7.5307 4.99376 7.38518 5.16979C7.31199 5.25907 7.2724 5.37119 7.27331 5.48664C7.2913 5.73699 7.3179 5.97717 7.07929 6.14459C6.85475 6.30106 6.6443 6.22283 6.42211 6.12034C6.31372 6.07649 6.19253 6.07649 6.08414 6.12034C5.86195 6.22283 5.65306 6.31045 5.42696 6.15163C5.20086 5.99282 5.19226 5.78158 5.22668 5.52966C5.23539 5.40187 5.19479 5.2756 5.11324 5.17682C4.95051 4.99062 4.82064 4.80834 4.89888 4.55094C4.97711 4.29355 5.18522 4.2114 5.41523 4.19341C5.6116 4.17776 5.70157 4.07684 5.76963 3.91098C5.80269 3.80923 5.86816 3.7211 5.95604 3.66007C6.04392 3.59903 6.14936 3.56845 6.25625 3.57301Z" fill="black"/>
<path d="M22.0867 8.14264C22.1712 7.91733 22.0726 7.73347 21.8825 7.53867C21.5782 7.22573 21.7659 6.76023 22.2213 6.70234C22.4466 6.67339 22.5514 6.58185 22.6516 6.3894C22.8792 5.95128 23.3557 5.94737 23.5826 6.38157C23.6222 6.47169 23.6853 6.54955 23.7652 6.60706C23.8452 6.66456 23.939 6.69962 24.0371 6.7086C24.5237 6.78683 24.6552 7.24137 24.3086 7.59734C24.1685 7.74051 24.088 7.86256 24.1412 8.07458C24.1944 8.2866 24.1552 8.50644 23.9479 8.64491C23.8596 8.70825 23.7532 8.74127 23.6446 8.73901C23.536 8.73676 23.4311 8.69935 23.3455 8.63239C23.153 8.49548 23.006 8.5878 22.8354 8.66447C22.4176 8.85458 22.0671 8.61988 22.0867 8.14264Z" fill="black"/>
<path d="M0.843136 8.14424C0.938583 7.91502 0.82436 7.73116 0.633467 7.52853C0.338521 7.21559 0.51142 6.77983 0.959707 6.70707C1.18894 6.6703 1.30238 6.5772 1.42208 6.38631C1.53069 6.23573 1.68931 6.1287 1.86958 6.08432C2.08864 6.0319 2.2678 6.18054 2.34681 6.38787C2.42583 6.59519 2.5604 6.65935 2.7732 6.70942C2.96093 6.76757 3.12022 6.89366 3.21992 7.06304C3.32866 7.25236 3.2293 7.46829 3.05719 7.61068C2.98299 7.66536 2.92792 7.74206 2.89983 7.82985C2.87174 7.91764 2.87205 8.01205 2.90072 8.09965C2.95313 8.31871 2.91011 8.54715 2.70669 8.63243C2.52446 8.70526 2.32187 8.70888 2.13714 8.6426C2.05282 8.60032 1.95916 8.58009 1.86491 8.58378C1.77065 8.58747 1.67886 8.61498 1.5981 8.66373C1.19832 8.86401 0.830619 8.62461 0.843136 8.14424Z" fill="black"/>
</g>
<defs>
<clipPath id="clip0_756_359">
<rect width="25" height="29.9844" fill="white"/>
</clipPath>
</defs>
</svg>
