<svg width="40" height="40" viewBox="0 0 40 40" fill="none" xmlns="http://www.w3.org/2000/svg">
<mask id="mask0_169_4480" style="mask-type:alpha" maskUnits="userSpaceOnUse" x="0" y="0" width="41" height="40">
<path d="M20.033 39.9344C31.0606 39.9344 40.0002 30.9948 40.0002 19.9672C40.0002 8.93963 31.0606 0 20.033 0C9.00543 0 0.0657959 8.93963 0.0657959 19.9672C0.0657959 30.9948 9.00543 39.9344 20.033 39.9344Z" fill="white"/>
</mask>
<g mask="url(#mask0_169_4480)">
<path d="M35.0137 20.6459C36.2925 21.0779 37.0923 21.9482 37.3915 23.2667C37.4023 23.311 37.4059 23.3571 37.4593 23.367V27.2929C36.8908 27.2504 36.3187 27.3263 35.7521 27.2278C35.6414 27.2187 35.5331 27.1902 35.4322 27.1438C35.4322 26.0548 35.4322 24.9667 35.4322 23.8786C35.4228 23.4193 35.3185 22.967 35.1258 22.5501C34.9008 22.0241 34.5158 21.6183 34.1434 21.2017C34.4697 21.0706 34.7345 20.8474 35.0137 20.6459Z" fill="#464646"/>
<path d="M8.79395 25.4682C8.27611 25.1555 7.74471 24.8699 7.27838 24.4741C6.49479 23.8121 5.88693 22.9668 5.50886 22.0132C5.32676 21.5792 5.20131 21.1236 5.13561 20.6576C5.10238 20.5278 5.0809 20.3953 5.07145 20.2617C5.09675 18.9269 4.99643 17.5903 5.12748 16.2564C5.30823 15.0237 6.13244 13.3843 6.77319 12.9966C6.79217 13.0635 6.81024 13.1267 6.82741 13.19C7.29645 14.9116 8.87529 16.2238 10.6294 16.2528C12.5634 16.2853 14.4984 16.2528 16.4333 16.2528L16.4242 16.2672C16.4634 16.3957 16.4876 16.5282 16.4965 16.6621C16.4902 17.9681 16.4902 19.274 16.4884 20.579C16.0944 20.579 15.7012 20.579 15.3081 20.588C14.8761 20.5934 14.6646 20.7913 14.6628 21.1872C14.6628 21.5487 14.9168 21.7927 15.3144 21.8026C15.5729 21.8099 15.8314 21.8026 16.0898 21.8026C16.0401 22.2436 15.7934 22.5988 15.5747 22.963C14.8879 24.1225 13.8938 24.9359 12.6755 25.4854C12.1631 25.7167 11.6082 25.8062 11.0867 26.0041C10.2788 26.0023 9.53682 25.7366 8.79395 25.4682ZM11.4889 23.4348C12.4252 23.5206 13.3361 22.6313 13.3868 21.7068C13.4084 21.2857 13.2367 21.0344 12.924 21.0019C12.6113 20.9694 12.3529 21.2396 12.3068 21.6228C12.2498 22.09 11.9453 22.3548 11.4573 22.353C11.0108 22.353 10.7406 22.1018 10.6792 21.6399C10.6691 21.5509 10.6479 21.4634 10.6159 21.3797C10.5138 21.1212 10.3168 20.9649 10.042 21.0128C9.76728 21.0606 9.61003 21.2315 9.59014 21.555C9.53592 22.5627 10.4686 23.4971 11.4889 23.4348ZM7.15095 20.5916C6.96026 20.5916 6.76867 20.5916 6.57798 20.5916C6.26529 20.5988 6.07188 20.7597 6.01766 21.067C5.96344 21.3742 6.10803 21.6671 6.39271 21.7376C6.89492 21.8586 7.41873 21.8586 7.92094 21.7376C8.21284 21.6698 8.36829 21.3761 8.30954 21.0796C8.29416 20.944 8.22916 20.8188 8.12706 20.7283C8.02495 20.6377 7.89295 20.588 7.75646 20.5889C7.55402 20.5844 7.35158 20.5916 7.15005 20.5916H7.15095ZM8.85992 18.9233C8.85992 18.7209 8.87077 18.5175 8.85992 18.316C8.84004 18.0187 8.67917 17.837 8.37371 17.8135C8.06825 17.79 7.85316 17.9437 7.8143 18.2338C7.75781 18.6917 7.75781 19.1549 7.8143 19.6129C7.8211 19.6807 7.84183 19.7465 7.8752 19.806C7.90857 19.8655 7.95385 19.9175 8.00821 19.9587C8.06258 20 8.12486 20.0295 8.19117 20.0456C8.25748 20.0616 8.32639 20.0639 8.39359 20.0521C8.69183 20.0123 8.85269 19.8298 8.86534 19.5306C8.86715 19.3282 8.85992 19.1257 8.85902 18.9233H8.85992ZM14.1152 18.9161C14.1152 19.1294 14.1043 19.3426 14.1152 19.555C14.1332 19.856 14.3059 20.0331 14.605 20.0512C14.9041 20.0692 15.1129 19.912 15.1472 19.6174C15.2051 19.1607 15.2051 18.6986 15.1472 18.2419C15.1093 17.9418 14.8996 17.7963 14.5996 17.8144C14.2995 17.8325 14.1296 18.0087 14.1116 18.3097C14.1043 18.5112 14.1143 18.7136 14.1143 18.9161H14.1152Z" fill="#FFD3C6"/>
<path d="M16.4326 16.2548C14.4977 16.2548 12.5628 16.2855 10.6288 16.2548C8.87464 16.224 7.2958 14.9118 6.82676 13.1875C6.80959 13.1242 6.79152 13.0609 6.77254 12.9941C6.13179 13.3818 5.30758 15.0211 5.12683 16.2538C4.9018 16.2701 4.67496 16.2593 4.45535 16.3325C4.03421 14.9895 3.91311 13.6014 3.85708 12.2069C3.82816 11.511 3.8625 10.8115 3.83629 10.1147C3.82273 9.77042 3.9357 9.74602 4.21044 9.86441C4.60168 10.0459 5.03881 10.1042 5.46392 10.0316C5.94471 9.94123 6.3288 9.68457 6.65867 9.32217C7.80732 8.05693 9.26957 7.51469 10.9514 7.48486C10.9614 7.56258 11.0057 7.59422 11.0834 7.61048C12.458 7.88945 13.7065 8.60334 14.6441 9.64661C15.7629 10.8685 16.3721 12.3036 16.4236 13.9602C16.448 14.7238 16.4308 15.4902 16.4326 16.2548Z" fill="#D77F4A"/>
<path d="M16.8295 41.5006C12.6186 41.5006 8.40812 41.5042 4.1979 41.5114C3.97558 41.5114 3.91231 41.4464 3.91322 41.2258C3.92225 39.7293 3.90508 30.3864 3.92316 28.8889C3.93414 28.1599 4.22885 27.464 4.74471 26.9488C5.26056 26.4336 5.95691 26.1398 6.68589 26.1298C7.38358 26.1153 8.08217 26.1298 8.77986 26.1298C8.80064 26.2699 8.77172 26.419 8.8621 26.5455C8.85756 26.59 8.85756 26.6348 8.8621 26.6792C9.15762 27.9797 10.2484 28.8121 11.6176 28.7832C12.8494 28.756 13.8824 27.8306 14.1128 26.5455L14.1942 26.0936L14.4653 26.1045C14.4735 26.1309 14.4893 26.1544 14.5106 26.172C14.5319 26.1897 14.558 26.2008 14.5855 26.2039C15.9031 26.4578 16.8087 27.6209 16.8258 28.9377C16.8484 30.5111 16.8313 39.9281 16.8295 41.5006Z" fill="#1286F2"/>
<path d="M21.4496 17.3761C21.1722 17.3382 20.7989 17.4927 20.6363 17.3129C20.4555 17.1077 20.5874 16.7327 20.5757 16.4326C20.5106 14.7878 20.864 13.2578 21.8735 11.9275C23.1613 10.2285 24.8874 9.35003 27.0148 9.25875C27.398 9.24249 27.5408 9.33286 27.7478 9.69074C27.8264 9.60037 27.9041 9.50999 27.9809 9.41962C28.102 9.55608 28.281 9.56603 28.4328 9.61573C29.7152 10.0224 30.7464 10.7825 31.567 11.8362C32.2227 12.681 32.6604 13.6742 32.8413 14.7282C32.9949 15.5931 32.9154 16.4742 32.9235 17.349L31.7071 17.3725C31.6555 17.3535 31.6076 17.349 31.5751 17.406C30.6497 17.4304 29.7902 17.2252 29.0446 16.6495C28.2991 16.0739 27.9132 15.2939 27.7514 14.3811C27.5227 16.1073 26.1635 17.3301 24.4329 17.3563C23.6565 17.3671 22.8784 17.3671 22.1021 17.3716C21.8855 17.3417 21.6658 17.3432 21.4496 17.3761Z" fill="#5C5C5C"/>
<path d="M30.1612 26.4841L30.3717 26.5239C30.3934 26.6079 30.4621 26.598 30.5299 26.6143C31.7716 27.0137 32.472 27.9599 32.5127 29.1014C32.5669 30.6377 32.5226 40.0276 32.5199 41.5675C28.714 41.5675 24.9083 41.5709 21.103 41.5775C20.8843 41.5775 20.812 41.5151 20.8129 41.2919C20.8228 39.8504 20.8047 30.5645 20.8255 29.1231C20.8463 27.725 22.0257 26.5646 23.431 26.5338C24.0727 26.5194 24.7143 26.5284 25.356 26.5266C25.3614 26.5835 25.3632 26.6414 25.4201 26.6766C25.4201 26.8122 25.4201 26.9478 25.4201 27.0815C25.4102 28.0286 25.8991 28.6884 26.6854 29.1185C27.4716 29.5487 28.2995 29.5126 29.055 29.0236C29.8955 28.4814 30.2253 27.668 30.1557 26.6784L30.1612 26.4841Z" fill="#FA2F47"/>
<path d="M22.1079 17.3744C22.8851 17.3699 23.6633 17.3699 24.4396 17.359C26.1702 17.3328 27.5295 16.1101 27.7581 14.3839C27.9199 15.2958 28.3112 16.0784 29.0514 16.6523C29.7915 17.2262 30.6537 17.4331 31.5818 17.4087L31.7102 17.4223C31.7102 18.7225 31.7087 20.0229 31.7056 21.3237C31.4598 21.3282 31.214 21.3237 30.9691 21.3382C30.8777 21.3452 30.7892 21.3739 30.7111 21.422C30.6331 21.4701 30.5676 21.5362 30.5202 21.6147C30.4728 21.6932 30.4449 21.7819 30.4387 21.8734C30.4325 21.9649 30.4483 22.0565 30.4847 22.1407C30.6428 22.5447 30.9817 22.4877 31.2981 22.4968C30.7287 24.044 29.6117 25.0471 28.1223 25.6707C27.7961 25.8072 27.4499 25.8957 27.1137 26.006C26.8689 26.0173 26.624 25.9845 26.3907 25.9093C26.05 25.8117 25.7111 25.7087 25.3722 25.6084C24.7749 25.2225 24.1513 24.8763 23.6551 24.3476C23.4086 24.09 23.1817 23.8142 22.9764 23.5225C22.9159 23.4322 22.886 23.311 22.7496 23.2957C22.7206 23.153 22.6729 23.0147 22.6077 22.8845C22.3541 22.3817 22.1823 21.8417 22.0989 21.2849C21.9787 20.5736 22.0492 19.8579 22.0465 19.1439C22.0438 18.5547 21.9787 17.9609 22.1079 17.3744ZM27.7834 23.9717C28.7341 23.9717 29.5954 23.1149 29.5475 22.213C29.5213 21.7205 29.0568 21.4801 28.6302 21.7214C28.4034 21.8497 28.4061 22.072 28.3482 22.269C28.2398 22.6432 28.0916 22.7715 27.7391 22.7571C27.4093 22.7426 27.2366 22.5691 27.1833 22.1949C27.1336 21.8452 26.8643 21.5867 26.5724 21.6084C26.2805 21.6301 26.0302 21.9265 26.0302 22.2727C26.0274 23.1701 26.8553 23.9726 27.7834 23.9744V23.9717ZM25.6858 19.9763C25.6858 19.8073 25.6931 19.6373 25.6858 19.4693C25.6741 19.2433 25.5955 19.0391 25.3749 18.946C25.2198 18.8774 25.0523 18.8411 24.8826 18.8393C24.713 18.8374 24.5447 18.87 24.3881 18.9351C24.0437 19.0752 23.9226 19.5786 24.2073 19.8073C24.4631 20.0133 24.5019 20.2329 24.5173 20.5212C24.5169 20.5979 24.5325 20.6739 24.5631 20.7442C24.5936 20.8146 24.6386 20.8778 24.6949 20.9299C24.7513 20.9819 24.8179 21.0216 24.8905 21.0465C24.9631 21.0714 25.04 21.0808 25.1165 21.0743C25.4391 21.0653 25.6632 20.8393 25.6867 20.4832C25.6949 20.3179 25.6858 20.148 25.6858 19.979V19.9763ZM29.8882 19.988C29.8882 20.157 29.8792 20.3269 29.8882 20.495C29.9117 20.8456 30.1431 21.0707 30.4684 21.0734C30.8254 21.0734 31.0459 20.8456 31.0504 20.4408C31.0504 20.2103 31.0549 20.0178 31.3053 19.8796C31.5041 19.7702 31.5493 19.5307 31.486 19.3075C31.4647 19.201 31.4106 19.1038 31.3314 19.0294C31.2522 18.9551 31.1518 18.9073 31.0441 18.8927C30.3211 18.7896 29.8015 18.8773 29.8801 19.7883C29.89 19.8552 29.89 19.9229 29.89 19.9907L29.8882 19.988ZM23.9922 22.4886C24.1838 22.4886 24.3745 22.4886 24.5661 22.4886C24.9014 22.4778 25.121 22.2727 25.149 21.9536C25.1734 21.678 24.9285 21.3608 24.6312 21.3436C24.2155 21.321 23.7988 21.321 23.3831 21.3436C23.0858 21.3599 22.8481 21.6635 22.8598 21.9527C22.8716 22.2184 23.1572 22.4814 23.4518 22.4896C23.6316 22.495 23.8115 22.4914 23.9922 22.4914V22.4886Z" fill="#FDD2C5"/>
<path d="M22.0981 21.2849C22.1815 21.8417 22.3533 22.3817 22.6069 22.8845C22.6721 23.0147 22.7198 23.153 22.7488 23.2957C22.7362 23.9355 22.7353 24.5781 22.447 25.1737C21.7809 26.5546 20.6693 27.2324 19.1465 27.2595L18.541 27.2685C18.1696 27.2911 17.9942 27.1303 18.0512 26.7498C18.0566 25.8614 18.0602 24.9721 18.0665 24.0837C18.0801 22.4272 18.982 21.1791 20.5464 20.6495C20.9838 21.0571 21.4845 21.2993 22.0981 21.2849Z" fill="#5C5C5C"/>
<path d="M16.4333 16.2546C16.4333 15.4901 16.4487 14.7237 16.4243 13.9591C16.3728 12.3026 15.7637 10.8674 14.6448 9.64559C13.7072 8.60232 12.4588 7.88844 11.0841 7.60946C11.0064 7.5932 10.9621 7.56157 10.9521 7.48384C12.5726 7.29767 14.1387 7.46035 15.5775 8.28637C17.5061 9.39345 18.6755 11.0437 18.9972 13.2569C19.1554 14.3414 19.0488 15.4358 19.0569 16.5267C18.6954 16.3703 18.3267 16.2176 17.9146 16.2754L16.4243 16.2673L16.4333 16.2546Z" fill="#C96F37"/>
<path d="M18.0502 26.7507C17.9932 27.1311 18.1686 27.2929 18.54 27.2694C18.9422 27.8686 19.0822 28.5265 19.0741 29.2468C19.0488 30.6295 19.0615 39.8567 19.0741 41.2394C19.0741 41.469 19.0208 41.5575 18.7777 41.5449C18.1297 41.5087 17.4781 41.5883 16.831 41.5015C16.831 39.929 16.85 30.512 16.831 28.9395C16.8139 27.6228 15.9083 26.4597 14.5907 26.2057C14.5631 26.2026 14.5371 26.1915 14.5158 26.1739C14.4944 26.1562 14.4787 26.1327 14.4705 26.1063C14.9639 26.1063 15.4573 26.1063 15.9508 26.0955C16.7217 26.0828 17.4329 26.2654 18.0502 26.7507Z" fill="#2178BE"/>
<path d="M32.9266 17.3517C32.9184 16.4769 32.998 15.5958 32.8443 14.7309C32.6635 13.6769 32.2258 12.6837 31.57 11.8389C30.7495 10.7852 29.7183 10.0251 28.4359 9.61844C28.2813 9.56873 28.1024 9.55879 27.984 9.42233C28.1223 9.26056 28.3085 9.24158 28.5028 9.24158C29.9913 9.27451 31.4253 9.80822 32.5731 10.7565C33.721 11.7048 34.5157 13.0123 34.8289 14.4679C35.0259 15.3816 34.9383 16.3043 34.9645 17.2234C34.9645 17.3599 34.9057 17.396 34.7837 17.3942C34.5479 17.3942 34.312 17.4005 34.0752 17.4051C33.8783 17.3549 33.672 17.3549 33.4751 17.4051C33.2899 17.3517 33.1001 17.4349 32.9266 17.3517Z" fill="#464646"/>
<path d="M32.516 41.572C32.516 40.0356 32.563 30.6449 32.5088 29.1058C32.4681 27.9644 31.7677 27.0182 30.526 26.6187C30.4627 26.5988 30.3895 26.6088 30.3678 26.5283C31.164 26.5048 31.9674 26.4208 32.7501 26.6187C33.312 26.7576 33.8126 27.0775 34.1747 27.5291C34.5368 27.9807 34.7402 28.5389 34.7536 29.1176C34.7826 30.5798 34.7663 39.8892 34.7681 41.3524C34.7681 41.4717 34.7979 41.6172 34.6009 41.6118C33.9059 41.5892 33.2101 41.6624 32.516 41.572Z" fill="#EB576A"/>
<path d="M32.927 17.3517C33.1005 17.4348 33.2885 17.3517 33.4692 17.4041C33.5033 17.5097 33.5252 17.6189 33.5343 17.7294C33.5072 18.9133 33.6111 20.0991 33.4756 21.2802C33.3521 21.9653 33.1177 22.6255 32.7815 23.235C32.1542 24.2589 31.244 25.0794 30.1606 25.5974C29.7918 25.7619 29.4064 25.8865 29.0111 25.9688C28.3893 26.1089 27.7455 26.1215 27.1187 26.0059C27.4548 25.8956 27.801 25.8071 28.1272 25.6706C29.6166 25.047 30.7336 24.0439 31.303 22.4967C31.5813 22.4967 31.8606 22.4967 32.1389 22.4867C32.4173 22.4768 32.7155 22.2066 32.7245 21.9544C32.7232 21.8026 32.6666 21.6565 32.5653 21.5433C32.464 21.4302 32.3249 21.3579 32.1742 21.3399C32.0196 21.3254 31.8633 21.329 31.7069 21.3236C31.7069 20.0234 31.7084 18.723 31.7115 17.4222C31.7128 17.4065 31.7128 17.3908 31.7115 17.3752L32.927 17.3517Z" fill="#F9AF9F"/>
<path d="M32.781 23.2352C33.1162 22.6255 33.3498 21.9653 33.4724 21.2804L34.1411 21.1973C34.5135 21.6139 34.8985 22.0197 35.1235 22.5456C35.3162 22.9626 35.4205 23.4149 35.4299 23.8741C35.4299 24.9586 35.4299 26.0503 35.4299 27.1394C34.6986 26.962 34.0453 26.5504 33.5697 25.9672C33.0941 25.3841 32.8222 24.6614 32.7955 23.9094C32.7909 23.6844 32.7864 23.4593 32.781 23.2352Z" fill="#5C5C5C"/>
<path d="M4.45557 16.3324C4.67337 16.2592 4.90202 16.2701 5.12705 16.2538C4.99601 17.5877 5.09632 18.9243 5.07102 20.2592C5.08047 20.3928 5.10195 20.5252 5.13518 20.655C3.94676 20.6478 3.03037 19.8823 2.84782 18.7454C2.68153 17.7133 3.33945 16.7255 4.45557 16.3324Z" fill="#F9AF9F"/>
<path d="M17.9144 16.2763C18.3265 16.2185 18.6916 16.3712 19.0568 16.5275C19.7879 17.0382 20.1909 17.7187 20.1503 18.6305C20.0301 18.7959 20.0906 19.0047 20.0147 19.1809C19.6198 20.1344 18.8869 20.645 17.918 20.6423C18.0199 19.1887 18.0187 17.7297 17.9144 16.2763Z" fill="#F8A690"/>
<path d="M20.0148 19.1811C20.0907 19.0003 20.0301 18.7961 20.1503 18.6307C20.4558 18.1074 20.8092 17.6366 21.4336 17.4658C21.4463 17.4658 21.4445 17.4079 21.4499 17.3754C21.6683 17.3433 21.8903 17.3433 22.1087 17.3754C21.9786 17.9619 22.0437 18.5557 22.0464 19.1449C22.0464 19.8589 21.9786 20.5746 22.0988 21.2859C21.4888 21.3003 20.9845 21.0572 20.5471 20.6532C20.3379 20.3783 20.1844 20.0652 20.0952 19.7314C20.0482 19.5471 20.1368 19.3492 20.0148 19.1811Z" fill="#F7AE9F"/>
<path d="M34.1432 21.1972L33.4745 21.2803C33.61 20.0991 33.5061 18.9134 33.5332 17.7295C33.5241 17.6189 33.5022 17.5098 33.4681 17.4042C33.665 17.354 33.8713 17.354 34.0682 17.4042C34.3122 17.5587 34.5906 17.6527 34.8111 17.8488C35.1421 18.1396 35.3649 18.5339 35.4431 18.9675C35.5214 19.401 35.4506 19.8483 35.2422 20.2365C35.1699 20.3748 35.0904 20.5076 35.0144 20.645C34.7352 20.8474 34.4704 21.0707 34.1432 21.1972Z" fill="#F8A690"/>
<path d="M14.1959 26.0946L14.1146 26.5465C14.0381 26.5603 13.9627 26.5791 13.8886 26.6025C12.7978 27.0291 11.6736 27.1032 10.5186 26.964C9.9438 26.8953 9.42144 26.654 8.86203 26.5429C8.77165 26.4163 8.80057 26.2672 8.77979 26.1271L8.79334 25.4674C9.53622 25.7385 10.2809 26.0024 11.0861 26.0097C11.5841 26.1859 12.0748 26.0187 12.5656 25.9717C13.1241 25.9175 13.6356 25.6735 14.1733 25.5352L14.1959 26.0946Z" fill="#F8A690"/>
<path d="M27.1146 26.0059C27.7415 26.1216 28.3852 26.1089 29.0071 25.9689C29.404 25.8868 29.7909 25.7622 30.1611 25.5974C30.1611 25.8926 30.1611 26.1882 30.1611 26.484L30.1557 26.6819C28.5769 27.3317 26.9981 27.3678 25.4201 26.6819C25.3632 26.6467 25.3614 26.5915 25.356 26.5319L25.3749 25.6101C25.7138 25.7104 26.0527 25.8134 26.3935 25.911C26.6263 25.9854 26.8705 26.0175 27.1146 26.0059Z" fill="#F8A690"/>
<path d="M14.174 25.5316C13.6362 25.6698 13.1247 25.9138 12.5662 25.9681C12.0755 26.0151 11.5848 26.1823 11.0868 26.006C11.6082 25.8081 12.1631 25.7186 12.6756 25.4873C13.8956 24.936 14.8834 24.1226 15.5766 22.9695C15.7953 22.608 16.042 22.2465 16.0917 21.8091C16.6095 21.8091 16.8734 21.6672 16.9575 21.3418C17.0343 21.0463 16.887 20.8077 16.4903 20.5827C16.4903 19.2777 16.4903 17.9718 16.4984 16.6659C16.4892 16.5306 16.4643 16.3969 16.4243 16.2673L17.9127 16.2728C18.0158 17.7263 18.0158 19.1852 17.9127 20.6387C17.8224 20.7119 17.8404 20.824 17.8224 20.9189C17.3958 22.8059 16.352 24.2365 14.6783 25.2089C14.5093 25.3129 14.2978 25.3544 14.174 25.5316Z" fill="#F9AF9F"/>
<path d="M11.4887 23.4348C10.4684 23.498 9.5357 22.5627 9.59083 21.5505C9.608 21.2315 9.76344 21.0607 10.0427 21.0082C10.322 20.9558 10.5145 21.1167 10.6166 21.3752C10.6485 21.4589 10.6698 21.5463 10.6798 21.6354C10.7413 22.0972 11.0115 22.3467 11.458 22.3485C11.9424 22.3485 12.2505 22.0855 12.3075 21.6183C12.3536 21.2351 12.6211 20.9667 12.9247 20.9974C13.2284 21.0281 13.4091 21.2812 13.3874 21.7023C13.3359 22.6313 12.425 23.5206 11.4887 23.4348Z" fill="#F8A79A"/>
<path d="M7.14946 20.5917C7.35099 20.5917 7.55343 20.5845 7.75497 20.5917C7.89146 20.5908 8.02346 20.6405 8.12557 20.7311C8.22767 20.8217 8.29267 20.9468 8.30805 21.0824C8.3668 21.3834 8.21135 21.6726 7.91945 21.7404C7.41724 21.8615 6.89343 21.8615 6.39122 21.7404C6.10745 21.6699 5.96285 21.3789 6.01617 21.0698C6.06949 20.7607 6.2638 20.6017 6.57649 20.5944C6.76718 20.589 6.95877 20.5917 7.14946 20.5917Z" fill="#F58F85"/>
<path d="M16.4896 20.5826C16.8864 20.8077 17.0319 21.0463 16.9569 21.3418C16.8728 21.6671 16.6089 21.809 16.0911 21.809C15.8326 21.809 15.5741 21.8135 15.3157 21.809C14.918 21.7991 14.6632 21.5551 14.6641 21.1936C14.6641 20.7977 14.8773 20.5998 15.3093 20.5944C15.7007 20.5863 16.0956 20.5854 16.4896 20.5826Z" fill="#F58F85"/>
<path d="M8.85872 18.9233C8.85872 19.1257 8.86686 19.3282 8.85872 19.5306C8.84607 19.8297 8.6852 20.0123 8.38697 20.052C8.31956 20.064 8.25042 20.0618 8.18389 20.0457C8.11736 20.0296 8.05489 19.9999 8.00039 19.9585C7.9459 19.917 7.90056 19.8648 7.86724 19.805C7.83392 19.7452 7.81333 19.6792 7.80677 19.611C7.75028 19.1531 7.75028 18.6899 7.80677 18.2319C7.84563 17.9418 8.06253 17.7882 8.36618 17.8117C8.66984 17.8352 8.83251 18.0168 8.8524 18.3142C8.86957 18.5175 8.85872 18.7208 8.85872 18.9233Z" fill="#5E5D5D"/>
<path d="M14.1135 18.9163C14.1135 18.7138 14.1036 18.5114 14.1135 18.3099C14.1316 18.0089 14.2943 17.8327 14.6016 17.8146C14.9088 17.7965 15.1113 17.942 15.1492 18.2421C15.2071 18.6988 15.2071 19.1609 15.1492 19.6176C15.1122 19.9122 14.9043 20.0694 14.607 20.0514C14.3097 20.0333 14.1352 19.8562 14.1172 19.5552C14.1027 19.3401 14.1135 19.1296 14.1135 18.9163Z" fill="#5C5C5C"/>
<path d="M8.86285 26.5428C9.42226 26.654 9.94733 26.8953 10.5194 26.964C11.6744 27.0995 12.7986 27.0254 13.8894 26.6025C13.9635 26.579 14.039 26.5603 14.1154 26.5465C13.8849 27.8316 12.8501 28.757 11.6202 28.7841C10.251 28.813 9.16018 27.9807 8.86465 26.6802C8.85927 26.6346 8.85867 26.5886 8.86285 26.5428Z" fill="#F7AE9F"/>
<path d="M31.711 17.3754C31.7123 17.391 31.7123 17.4067 31.711 17.4224L31.5826 17.4088C31.6116 17.3519 31.6595 17.3564 31.711 17.3754Z" fill="#F8A690"/>
<path d="M25.4162 26.6803C26.9942 27.368 28.573 27.3319 30.1518 26.6803C30.2214 27.6672 29.8916 28.4824 29.0511 29.0255C28.2956 29.5144 27.4695 29.5515 26.6815 29.1204C25.8934 28.6893 25.4081 28.0305 25.4162 27.0834C25.4189 26.9505 25.4171 26.8159 25.4162 26.6803Z" fill="#F9AF9F"/>
<path d="M27.7825 23.9744C26.8544 23.9744 26.0265 23.1701 26.0302 22.2754C26.0302 21.9292 26.2724 21.6337 26.5724 21.6111C26.8724 21.5885 27.1336 21.8479 27.1833 22.1976C27.2367 22.5718 27.4093 22.7453 27.7391 22.7598C28.0916 22.7742 28.2398 22.6459 28.3483 22.2717C28.4061 22.0747 28.4034 21.8524 28.6302 21.7241C29.0568 21.4828 29.5213 21.7241 29.5475 22.2157C29.5945 23.1176 28.7332 23.9762 27.7825 23.9744Z" fill="#F8A79A"/>
<path d="M25.6854 19.9789C25.6854 20.1479 25.6945 20.3178 25.6854 20.4859C25.6619 20.8419 25.4378 21.0679 25.1152 21.0769C25.0387 21.0834 24.9617 21.074 24.8892 21.0491C24.8166 21.0242 24.75 20.9845 24.6936 20.9325C24.6372 20.8804 24.5923 20.8172 24.5617 20.7469C24.5312 20.6765 24.5156 20.6005 24.516 20.5238C24.5006 20.2355 24.4618 20.0159 24.206 19.8099C23.9222 19.5812 24.0433 19.0778 24.3867 18.9377C24.5434 18.8726 24.7117 18.84 24.8813 18.8419C25.0509 18.8437 25.2184 18.88 25.3736 18.9486C25.5923 19.039 25.6728 19.2459 25.6845 19.4719C25.6926 19.64 25.6854 19.8099 25.6854 19.9789Z" fill="#5E5D5D"/>
<path d="M29.8892 19.9907C29.8892 19.9229 29.8892 19.8551 29.8892 19.7882C29.8105 18.8773 30.3347 18.7896 31.0532 18.8926C31.1608 18.9072 31.2612 18.955 31.3405 19.0294C31.4197 19.1037 31.4737 19.2009 31.4951 19.3075C31.5547 19.5307 31.5096 19.7702 31.3144 19.8795C31.064 20.0178 31.0622 20.2103 31.0595 20.4407C31.055 20.8483 30.8345 21.0788 30.4775 21.0734C30.1521 21.0734 29.9208 20.8456 29.8973 20.495C29.8855 20.3269 29.8973 20.157 29.8973 19.988L29.8892 19.9907Z" fill="#5C5C5C"/>
<path d="M31.702 21.3282C31.8584 21.3336 32.0147 21.3282 32.1692 21.3445C32.32 21.3625 32.4591 21.4348 32.5604 21.5479C32.6617 21.661 32.7183 21.8072 32.7196 21.959C32.7106 22.2111 32.4114 22.4859 32.134 22.4913C31.8566 22.4967 31.5764 22.4976 31.298 22.5012C30.9781 22.4922 30.6392 22.5491 30.4847 22.1452C30.4483 22.061 30.4325 21.9694 30.4387 21.8779C30.4449 21.7864 30.4728 21.6977 30.5202 21.6192C30.5676 21.5406 30.633 21.4746 30.7111 21.4265C30.7892 21.3784 30.8776 21.3497 30.9691 21.3427C31.2104 21.3228 31.4562 21.3282 31.702 21.3282Z" fill="#F58F85"/>
<path d="M23.9923 22.4913C23.8115 22.4913 23.6308 22.4913 23.45 22.4913C23.1554 22.4831 22.8698 22.2201 22.8581 21.9544C22.8463 21.6652 23.084 21.3616 23.3813 21.3453C23.7971 21.3227 24.2137 21.3227 24.6294 21.3453C24.9267 21.3625 25.1717 21.6797 25.1473 21.9553C25.1192 22.2744 24.8996 22.4795 24.5643 22.4904C24.3773 22.4958 24.1839 22.4913 23.9923 22.4913Z" fill="#F58F85"/>
</g>
</svg>
