<svg width="25" height="26" viewBox="0 0 25 26" fill="none" xmlns="http://www.w3.org/2000/svg">
<path d="M12.4875 0.5C5.5875 0.5 0 6.1 0 13C0 19.9 5.5875 25.5 12.4875 25.5C19.4 25.5 25 19.9 25 13C25 6.1 19.4 0.5 12.4875 0.5ZM17.5 18C17.3844 18.1159 17.247 18.2078 17.0958 18.2705C16.9446 18.3333 16.7825 18.3656 16.6187 18.3656C16.455 18.3656 16.2929 18.3333 16.1417 18.2705C15.9905 18.2078 15.8531 18.1159 15.7375 18L11.625 13.8875C11.5069 13.7717 11.4129 13.6337 11.3486 13.4813C11.2842 13.329 11.2507 13.1654 11.25 13V8C11.25 7.3125 11.8125 6.75 12.5 6.75C13.1875 6.75 13.75 7.3125 13.75 8V12.4875L17.5 16.2375C17.9875 16.725 17.9875 17.5125 17.5 18Z" fill="black"/>
</svg>
