<svg width="29" height="25" viewBox="0 0 29 25" fill="none" xmlns="http://www.w3.org/2000/svg">
<g clip-path="url(#clip0_756_293)">
<path d="M27.2632 -0.00378418C27.8607 0.262316 28.0644 0.718625 28.0624 1.36995C28.0461 6.98784 28.0528 12.6096 28.0528 18.2246C28.0528 19.0748 27.6503 19.4821 26.804 19.4821H1.25064C0.40815 19.4821 0.0017946 19.0757 0.0017946 18.2246C0.0017946 12.6057 0.00947923 6.98496 -0.0078125 1.36995C-0.0078125 0.716703 0.195846 0.263277 0.791451 -0.00378418H27.2632ZM14.0302 8.69972H7.77827C6.99918 8.69972 6.22009 8.68915 5.44197 8.69972C4.62637 8.71509 4.09705 9.48361 4.41791 10.1926C4.63982 10.6873 5.05963 10.8593 5.58606 10.8583C11.2155 10.8545 16.8449 10.8545 22.4743 10.8583C22.5583 10.8612 22.6423 10.8593 22.726 10.8525C23.5099 10.768 23.9595 9.97835 23.6079 9.29821C23.3793 8.85439 22.9902 8.69684 22.5108 8.69684C19.6839 8.70132 16.8571 8.70228 14.0302 8.69972ZM16.1821 6.54594H17.7268C19.3436 6.54594 20.9603 6.5517 22.5771 6.54594C23.4081 6.54594 23.9355 5.81969 23.6598 5.08863C23.4878 4.63424 23.0834 4.38927 22.481 4.38927H9.90611C9.82227 4.38495 9.73827 4.38495 9.65442 4.38927C9.38975 4.41183 9.14188 4.52834 8.95565 4.71775C8.76941 4.90716 8.65709 5.15696 8.63901 5.42198C8.63349 5.67556 8.71694 5.92307 8.87488 6.12154C9.03281 6.32001 9.25526 6.45691 9.5036 6.50847C9.65589 6.5369 9.81085 6.5485 9.96568 6.54306C12.0381 6.54562 14.1102 6.54658 16.1821 6.54594ZM10.7966 15.1745C12.5681 15.1745 14.3405 15.1745 16.1129 15.1745C16.7719 15.1745 17.2657 14.6942 17.2657 14.0947C17.2657 13.4953 16.7709 13.0207 16.1129 13.0198C12.5694 13.0153 9.02488 13.0175 5.47943 13.0265C5.24194 13.0341 5.01038 13.1025 4.80697 13.2254C4.61715 13.3421 4.4719 13.5191 4.39442 13.728C4.31693 13.937 4.31168 14.1658 4.37948 14.3781C4.52839 14.8796 4.92033 15.1726 5.48231 15.1745C7.25183 15.1745 9.02424 15.1745 10.7966 15.1745Z" fill="black"/>
<path d="M8.60241 22.8452C8.8272 21.4283 9.60917 20.6914 10.8638 20.6886H12.9301V19.9047C12.5545 19.9047 12.1866 19.9143 11.8196 19.9047C11.3095 19.8883 10.8273 19.5002 10.8129 19.0036C10.7802 17.8806 10.8023 16.7576 10.8023 15.6154H17.2387C17.2464 15.7009 17.2636 15.7912 17.2636 15.8824C17.2636 16.8431 17.2636 17.8015 17.2636 18.7576C17.2636 19.4628 16.8246 19.9018 16.1272 19.9104C15.8044 19.9104 15.4816 19.9104 15.1339 19.9104V20.6934H17.1301C18.4549 20.6934 19.3118 21.4782 19.4357 22.85H19.8075C20.7422 22.85 21.6769 22.85 22.6106 22.85C23.2735 22.85 23.7394 23.3111 23.7327 23.9423C23.725 24.5542 23.26 24.999 22.6135 24.999C16.8861 24.999 11.159 24.999 5.43226 24.999C4.78958 24.999 4.32463 24.5436 4.31982 23.9327C4.31982 23.3054 4.78478 22.8491 5.44763 22.8462C6.38234 22.8462 7.31706 22.8462 8.25177 22.8462L8.60241 22.8452Z" fill="black"/>
</g>
<defs>
<clipPath id="clip0_756_293">
<rect width="28.0606" height="25" fill="white"/>
</clipPath>
</defs>
</svg>
