<svg width="22" height="21" viewBox="0 0 22 21" fill="none" xmlns="http://www.w3.org/2000/svg">
<path d="M7.90386 14.498H11.5219C11.5075 14.6643 11.5001 14.8311 11.4999 14.998C11.4999 16.199 11.9569 17.359 12.7719 18.486C12.2319 19.445 11.6149 19.997 10.9999 19.997C9.80286 19.997 8.59986 17.903 7.96186 14.793L7.90386 14.499V14.498ZM7.67386 12.998H11.8739C12.3658 11.7426 13.3003 10.7107 14.5009 10.097V9.999C14.5009 9.313 14.4749 8.644 14.4249 7.999H7.57486L7.54186 8.487C7.45497 9.99165 7.49913 11.501 7.67386 12.998ZM16.9999 9.498C17.7333 9.49695 18.4596 9.64316 19.1355 9.92796C19.8114 10.2128 20.4233 10.6304 20.9349 11.156C21.0566 10.1029 21.0117 9.03715 20.8019 7.998H15.9319L15.9699 8.655C15.9849 8.963 15.9939 9.275 15.9989 9.589C16.3229 9.529 16.6589 9.498 16.9999 9.498ZM2.06586 14.499H6.37186C6.73586 16.581 7.35486 18.353 8.16386 19.592C5.62139 18.8374 3.48131 17.1065 2.21186 14.778L2.06586 14.499ZM1.19886 7.999H6.06886C5.96425 9.47093 5.97528 10.9488 6.10186 12.419L6.15886 12.999H1.45586C0.949317 11.3808 0.860561 9.66074 1.19786 7.999H1.19886ZM13.9439 0.575L13.8359 0.405C15.3222 0.84615 16.686 1.62597 17.8201 2.68319C18.9542 3.74041 19.8276 5.04621 20.3719 6.498H15.7819C15.4659 4.082 14.8249 2.006 13.9439 0.575ZM8.04186 0.442L8.16386 0.405C7.28286 1.755 6.62786 3.734 6.27986 6.058L6.21786 6.498H1.62986C2.16635 5.06633 3.02309 3.77628 4.13459 2.72648C5.24609 1.67668 6.58291 0.894934 8.04286 0.441L8.04186 0.442ZM10.9999 0C12.3189 0 13.6459 2.542 14.2139 6.183L14.2609 6.498H7.73886C8.27986 2.689 9.64386 0 10.9999 0ZM21.4999 14.998C21.4999 13.8045 21.0258 12.6599 20.1818 11.816C19.3379 10.9721 18.1933 10.498 16.9999 10.498C15.8064 10.498 14.6618 10.9721 13.8179 11.816C12.974 12.6599 12.4999 13.8045 12.4999 14.998C12.4999 16.861 13.9199 18.813 16.6999 20.898C16.7864 20.9629 16.8917 20.998 16.9999 20.998C17.108 20.998 17.2133 20.9629 17.2999 20.898C20.0799 18.813 21.4999 16.861 21.4999 14.998ZM15.4999 14.998C15.4999 14.6002 15.6579 14.2186 15.9392 13.9373C16.2205 13.656 16.602 13.498 16.9999 13.498C17.3977 13.498 17.7792 13.656 18.0605 13.9373C18.3418 14.2186 18.4999 14.6002 18.4999 14.998C18.4999 15.3958 18.3418 15.7774 18.0605 16.0587C17.7792 16.34 17.3977 16.498 16.9999 16.498C16.602 16.498 16.2205 16.34 15.9392 16.0587C15.6579 15.7774 15.4999 15.3958 15.4999 14.998Z" fill="#484848"/>
</svg>
