<svg width="25" height="25" viewBox="0 0 25 25" fill="none" xmlns="http://www.w3.org/2000/svg">
<g clip-path="url(#clip0_756_791)">
<path d="M0 13.232V11.7644C0.0179935 11.6953 0.031717 11.6252 0.0410929 11.5545C0.132612 10.0421 0.520831 8.56256 1.18363 7.20009C3.07097 3.36303 6.11847 1.01852 10.3217 0.197393C10.7979 0.1042 11.2845 0.0645748 11.7666 0H13.2342C13.411 0.0198127 13.5871 0.0403591 13.764 0.059438C16.402 0.35296 18.7539 1.32819 20.7315 3.10399C23.8964 5.94676 25.3009 9.52405 24.9303 13.7559C24.6955 16.435 23.6366 18.7979 21.8358 20.8004C19.4928 23.4062 16.5524 24.8011 13.0522 24.9831C11.0107 25.0895 9.04268 24.7153 7.20597 23.8142C3.3645 21.9312 1.01632 18.8793 0.197394 14.6746C0.1042 14.1991 0.0623734 13.7133 0 13.232ZM19.9896 5.01335C19.8942 5.05225 19.856 5.06545 19.8193 5.08233C16.5197 6.61794 13.2205 8.15551 9.92178 9.69503C9.81149 9.75658 9.724 9.85205 9.67228 9.96727C8.15918 13.2053 6.64999 16.4455 5.14471 19.688C5.10508 19.7724 5.07133 19.859 5.01996 19.9815C5.11169 19.9426 5.16232 19.9228 5.21148 19.9001C8.49746 18.3723 11.782 16.8423 15.065 15.3101C15.1819 15.2445 15.2748 15.1432 15.3299 15.021C16.6141 12.2766 17.8941 9.53017 19.1699 6.78183C19.4348 6.20946 19.7012 5.63709 19.9896 5.01409V5.01335Z" fill="black"/>
<path d="M19.9896 5.0141C19.7013 5.6371 19.4364 6.20947 19.17 6.78184C17.8917 9.5292 16.6117 12.2756 15.33 15.021C15.2748 15.1432 15.182 15.2445 15.0651 15.3101C11.783 16.8452 8.4985 18.3752 5.21154 19.9001C5.16238 19.9228 5.11175 19.9426 5.02002 19.9815C5.07212 19.8575 5.10514 19.7709 5.14477 19.688C6.652 16.4465 8.16119 13.2063 9.67234 9.96728C9.72406 9.85206 9.81155 9.75659 9.92184 9.69504C13.2186 8.15356 16.5178 6.61673 19.8194 5.08454C19.8561 5.0662 19.8942 5.05299 19.9896 5.0141ZM12.499 11.1296C12.1379 11.1304 11.7918 11.2734 11.5354 11.5276C11.2791 11.7819 11.1333 12.1269 11.1297 12.4879C11.1285 12.6687 11.1631 12.848 11.2315 13.0154C11.2998 13.1828 11.4006 13.335 11.5279 13.4634C11.6553 13.5917 11.8068 13.6936 11.9737 13.7632C12.1406 13.8328 12.3196 13.8687 12.5004 13.8689C12.8615 13.8689 13.208 13.7261 13.4643 13.4717C13.7205 13.2172 13.8657 12.8718 13.8682 12.5107C13.87 12.3298 13.8358 12.1504 13.7678 11.9828C13.6998 11.8152 13.5991 11.6628 13.4718 11.5344C13.3445 11.406 13.1929 11.304 13.0259 11.2346C12.8589 11.1651 12.6798 11.1294 12.499 11.1296Z" fill="white"/>
<path d="M12.4987 11.1296C12.6796 11.1294 12.8587 11.1651 13.0257 11.2346C13.1926 11.3041 13.3442 11.406 13.4715 11.5344C13.5989 11.6628 13.6995 11.8152 13.7675 11.9828C13.8356 12.1504 13.8697 12.3298 13.868 12.5107C13.8655 12.8718 13.7202 13.2172 13.464 13.4717C13.2078 13.7261 12.8613 13.8689 12.5002 13.8689C12.3193 13.8687 12.1403 13.8328 11.9735 13.7632C11.8066 13.6936 11.6551 13.5917 11.5277 13.4634C11.4003 13.3351 11.2995 13.1828 11.2312 13.0154C11.1629 12.848 11.1283 12.6687 11.1294 12.4879C11.1331 12.1269 11.2789 11.7819 11.5352 11.5276C11.7915 11.2734 12.1377 11.1304 12.4987 11.1296Z" fill="black"/>
</g>
<defs>
<clipPath id="clip0_756_791">
<rect width="24.9861" height="25" fill="white"/>
</clipPath>
</defs>
</svg>
