<svg width="50" height="50" viewBox="0 0 50 50" fill="none" xmlns="http://www.w3.org/2000/svg">
<g clip-path="url(#clip0_756_487)">
<path d="M26.6592 50.0012H23.3391C23.1991 49.9693 23.0604 49.9264 22.9181 49.9067C22.0343 49.784 21.1408 49.7152 20.2668 49.5385C14.5839 48.4093 9.81908 45.6574 6.06565 41.251C1.2284 35.573 -0.744055 28.9768 0.251379 21.5878C1.14126 14.9806 4.28957 9.5493 9.52327 5.42764C15.5131 0.710678 22.3265 -0.923016 29.826 0.483603C34.2361 1.31088 38.1208 3.27106 41.4729 6.24631C45.9886 10.2551 48.7503 15.247 49.6966 21.2208C49.8095 21.9229 49.8918 22.6311 49.9875 23.3368V26.6509C49.9568 26.7908 49.9138 26.9307 49.8942 27.0731C49.7715 27.9581 49.6978 28.8504 49.526 29.7256C48.705 34.0947 46.7035 38.1557 43.7387 41.4682C39.7287 45.9839 34.7393 48.7468 28.7642 49.6919C28.0708 49.822 27.3638 49.9043 26.6592 50.0012ZM25.1262 43.0234C25.8565 42.9546 26.7218 42.9129 27.5675 42.7853C32.444 42.0488 36.3313 39.6431 39.4121 35.8246C40.0442 35.0403 40.043 34.3222 39.6576 33.4925C39.5838 33.3305 39.5018 33.1724 39.4121 33.0187C38.6646 31.7606 37.5599 30.872 36.2944 30.2165C31.2314 27.5984 25.9216 26.5453 20.2705 27.8243C17.58 28.438 14.973 29.264 12.6814 30.8621C11.4884 31.6931 10.4721 32.6947 10.1161 34.1762C10.0253 34.5444 9.94551 34.9126 10.2217 35.2882C13.9002 40.258 18.8246 42.811 25.1262 43.0234ZM24.9899 22.4801C29.2282 22.4801 32.4588 19.2753 32.4944 15.0248C32.53 10.8258 29.2515 7.52775 25.0329 7.51793C20.775 7.50811 17.499 10.7657 17.5027 15.0052C17.5064 19.2447 20.7554 22.4752 24.9899 22.4801Z" fill="#F5F5F5"/>
<path d="M25.1263 43.0234C18.826 42.811 13.9004 40.258 10.2218 35.2907C9.94566 34.9224 10.0254 34.5542 10.1163 34.1786C10.4845 32.6971 11.4885 31.6956 12.6816 30.8646C14.9732 29.269 17.5802 28.4368 20.2707 27.8267C25.9168 26.5478 31.2315 27.6009 36.2946 30.219C37.5601 30.8744 38.6647 31.7631 39.4122 33.0212C39.502 33.1748 39.5839 33.333 39.6577 33.4949C40.0394 34.3185 40.0407 35.0366 39.4122 35.827C36.3314 39.6455 32.4442 42.0549 27.5677 42.7877C26.7183 42.9129 25.8567 42.9546 25.1263 43.0234Z" fill="#8E99A6"/>
<path d="M24.9902 22.4801C20.7556 22.4801 17.5029 19.2336 17.5029 15.0064C17.5029 10.7792 20.7752 7.50812 25.0331 7.51916C29.2518 7.52898 32.5302 10.827 32.4946 15.026C32.459 19.2753 29.2284 22.485 24.9902 22.4801Z" fill="#8E99A6"/>
</g>
<defs>
<clipPath id="clip0_756_487">
<rect width="49.9926" height="50" fill="white"/>
</clipPath>
</defs>
</svg>
