<svg width="79" height="24" viewBox="0 0 79 24" fill="none" xmlns="http://www.w3.org/2000/svg">
<g clip-path="url(#clip0_605_95)">
<path d="M37.7018 18.76H35.2689C35.2535 18.76 35.2535 18.76 35.2458 18.7519L33.1517 16.09L31.0576 18.7519C31.0499 18.76 31.0422 18.76 31.0345 18.76H29.0867C29.0713 18.76 29.0636 18.7519 29.0559 18.7439C29.0559 18.7359 29.0559 18.7199 29.0636 18.7118L32.1509 14.7671L29.1021 10.8624C29.0944 10.8464 29.0944 10.8383 29.0944 10.8223C29.1021 10.8143 29.1098 10.8063 29.1175 10.8063H31.5504C31.5581 10.8063 31.5657 10.8143 31.5734 10.8223L33.4135 13.1956L35.2843 10.8223C35.292 10.8143 35.2997 10.8063 35.3074 10.8063H37.286C37.2937 10.8063 37.3091 10.8143 37.3168 10.8223C37.3245 10.8383 37.3168 10.8464 37.3091 10.8624L34.422 14.4784L37.7326 18.7118C37.7403 18.7199 37.7403 18.7359 37.7403 18.7439C37.7249 18.7599 37.7172 18.76 37.7018 18.76Z" fill="#072F54"/>
<path d="M50.8592 12.2014C49.7813 12.2014 49.0499 12.8829 48.8344 14.0615H52.499V13.9813C52.499 13.0432 51.8292 12.2014 50.8592 12.2014ZM54.3853 15.2802C54.3776 15.2882 54.3699 15.2962 54.3622 15.2962H48.7959C48.9113 16.6432 49.7505 17.413 51.1132 17.413C51.9524 17.413 52.8455 17.1163 54.1004 16.4187C54.1235 16.4027 54.1466 16.4268 54.1466 16.4508V18.2308C54.1466 18.2468 54.1389 18.2548 54.1312 18.2548C52.961 18.768 51.783 19.1207 50.8592 19.1207C48.4648 19.1207 46.7249 17.3007 46.7249 14.7991C46.7249 12.2976 48.4648 10.4775 50.8592 10.4775C53.0456 10.4775 54.4468 12.0089 54.4468 14.1176C54.4468 14.4624 54.393 15.2562 54.3853 15.2802Z" fill="#072F54"/>
<path d="M65.6873 9.15465C65.0021 9.15465 64.4478 8.58539 64.4478 7.88784C64.4478 7.16623 65.0021 6.58093 65.6873 6.58093C66.3725 6.58093 66.9268 7.16623 66.9268 7.88784C66.9268 8.58539 66.3725 9.15465 65.6873 9.15465ZM64.6864 18.76C64.6633 18.76 64.6556 18.752 64.6556 18.7279V10.8304C64.6556 10.8143 64.6633 10.7983 64.6787 10.7983H66.6881C66.7035 10.7983 66.7112 10.8143 66.7112 10.8304V18.7279C66.7112 18.752 66.6958 18.76 66.6804 18.76H64.6864Z" fill="#072F54"/>
<path d="M41.3818 17.5733C41.02 17.5733 40.6504 17.5172 40.2193 17.4049L40.227 12.3377C40.7274 12.1693 41.1586 12.0971 41.5897 12.0971C42.9832 12.0971 43.9148 13.1635 43.9148 14.7591C43.9148 16.4668 42.9216 17.5733 41.3818 17.5733ZM41.9285 10.4775C41.3587 10.4775 40.789 10.5818 40.1885 10.7983H38.1868C38.1714 10.7983 38.156 10.8143 38.156 10.8303V23.7791C38.7565 23.6909 39.4956 23.4664 40.2193 22.9372V19.0005C40.712 19.0726 41.1201 19.1207 41.5127 19.1207C44.2535 19.1207 46.0243 17.413 46.0243 14.7671C46.0243 12.2415 44.3382 10.4775 41.9285 10.4775Z" fill="#072F54"/>
<path d="M61.0293 16.9159C60.4057 17.2607 59.8437 17.421 59.3202 17.421C58.0807 17.421 57.3339 16.507 57.3339 14.9756C57.3339 13.2117 58.2808 12.0651 59.7513 12.0651C60.1594 12.0651 60.552 12.1693 61.0293 12.3938V16.9159ZM61.0293 6.62101V10.7502C60.4442 10.5738 59.9284 10.4936 59.4049 10.4936C57.0182 10.4936 55.2244 12.3618 55.2244 14.8473C55.2244 17.3168 56.8103 19.1128 58.9968 19.1128C59.7513 19.1128 60.4596 18.9123 61.2911 18.4713V19.1849C61.8377 19.0727 62.469 18.8482 63.0926 18.3831V5.77112C62.4844 5.85931 61.7607 6.0758 61.0293 6.62101Z" fill="#072F54"/>
<path d="M73.6787 16.8998C73.0705 17.2606 72.5547 17.437 72.0928 17.437C70.7609 17.437 69.9679 16.5229 69.9679 14.9915C69.9679 13.2517 70.9071 12.0811 72.3006 12.0811C72.6702 12.0811 73.1244 12.2334 73.6787 12.5381V16.8998ZM75.7421 10.702C75.7421 10.6539 75.7036 10.6138 75.6574 10.6138H74.0329C73.9867 10.6138 73.9405 10.6539 73.9405 10.702V10.9906H73.902C73.1552 10.6459 72.5085 10.4935 71.8849 10.4935C69.6368 10.4935 67.8738 12.4338 67.8738 14.9194C67.8738 17.4289 69.4521 19.1127 71.8002 19.1127C72.4238 19.1127 73.2322 19.0646 73.9867 18.1666V19.1848C74.5179 19.0646 75.1492 18.8321 75.7421 18.3831V10.702Z" fill="#072F54"/>
<path d="M23.528 16.7876H28.5708C28.4938 17.3729 28.3013 18.0624 27.8702 18.76H22.6272C21.9882 18.76 21.457 18.2388 21.3954 17.5894C21.3954 17.5814 21.3877 17.5733 21.3877 17.5573V7.19828C21.3877 7.19026 21.3954 7.18224 21.3954 7.17422C21.457 6.51676 21.9882 5.99561 22.6272 5.99561H28.5631C28.4861 6.58091 28.2936 7.28647 27.8548 7.98402H23.528V10.8063H27.8163C27.8317 10.8063 27.8471 10.8223 27.8471 10.8384V12.7947C27.8471 12.8108 27.8317 12.8268 27.8163 12.8268H23.528V16.7876Z" fill="#072F54"/>
<path d="M17.215 18.9283C16.7146 18.9283 16.4066 18.5194 16.4066 18.0222C16.4066 17.4931 16.7608 17.1162 17.215 17.1162C17.6616 17.1162 18.0157 17.4851 18.0157 18.0222C18.0157 18.5594 17.6616 18.9283 17.215 18.9283ZM17.215 17.02C16.7069 17.02 16.2681 17.4209 16.2681 18.0222C16.2681 18.5915 16.6607 19.0245 17.215 19.0245C17.7155 19.0245 18.1543 18.6236 18.1543 18.0222C18.1543 17.4209 17.7232 17.02 17.215 17.02Z" fill="#072F54"/>
<path d="M16.9918 17.9421V17.5732H17.2304C17.3536 17.5732 17.4922 17.5893 17.4922 17.7416C17.4922 17.926 17.3613 17.934 17.215 17.934C17.2073 17.9421 16.9918 17.9421 16.9918 17.9421ZM17.6616 17.7657C17.6616 17.5251 17.523 17.4209 17.2458 17.4209H16.8147V18.6075H16.9995V18.1024H17.1765L17.4691 18.6075H17.6847L17.369 18.0864C17.5384 18.0703 17.6616 17.9821 17.6616 17.7657Z" fill="#072F54"/>
<path d="M77.405 12.1131C76.9045 12.1131 76.5966 11.7042 76.5966 11.2071C76.5966 10.6779 76.9507 10.3011 77.405 10.3011C77.8515 10.3011 78.2057 10.6699 78.2057 11.2071C78.2057 11.7443 77.8515 12.1131 77.405 12.1131ZM77.405 10.2129C76.8968 10.2129 76.458 10.6138 76.458 11.2151C76.458 11.7844 76.8507 12.2173 77.405 12.2173C77.9054 12.2173 78.3442 11.8165 78.3442 11.2151C78.3442 10.6058 77.9054 10.2129 77.405 10.2129Z" fill="#072F54"/>
<path d="M77.174 11.1269V10.7661H77.4127C77.5359 10.7661 77.6744 10.7821 77.6744 10.9345C77.6744 11.1189 77.5436 11.1269 77.3973 11.1269H77.174ZM77.8515 10.9585C77.8515 10.718 77.7129 10.6138 77.4358 10.6138H77.0046V11.8004H77.1894V11.2953H77.3665L77.659 11.8004H77.8746L77.559 11.2792C77.7206 11.2632 77.8515 11.175 77.8515 10.9585Z" fill="#072F54"/>
<path d="M10.7095 7.97591L10.3477 6.90153L7.23734 2.57992L7.79166 2.4356L13.1424 7.25431L16.2912 6.31623C16.6608 6.22001 17.0842 6.19596 17.3999 6.19596C16.4144 3.97502 14.5975 2.14696 12.2108 1.265C7.4914 -0.490899 2.29465 2.08282 0.616288 7.00576C0.0927634 8.52914 -0.0227199 10.1006 0.192849 11.5919L7.73007 8.86589L10.7095 7.97591Z" fill="#072F54"/>
<path d="M17.7386 7.04578C17.4614 7.23019 17.0534 7.47874 16.653 7.61504L13.4965 8.55313L11.3947 15.5928L10.8481 15.7772L11.2946 10.4052L11.0482 9.29077L8.09185 10.1727L0.269775 12.0729C0.893386 15.1999 3.01828 17.934 6.12093 19.0805C10.8481 20.8364 16.0371 18.2627 17.7232 13.3398C18.4469 11.2311 18.4007 9.01816 17.7386 7.04578Z" fill="#072F54"/>
<path d="M11.0405 9.28285L11.2869 10.3973L10.8403 15.7693L11.3869 15.5849L13.4887 8.54521L16.6453 7.60712C17.0456 7.47082 17.4537 7.23029 17.7308 7.03786C17.6308 6.74922 17.523 6.46859 17.3998 6.18797C17.0764 6.18797 16.6607 6.20401 16.2911 6.30824L13.1423 7.24632L7.79157 2.42761L7.23725 2.57193L10.3399 6.89354L10.7017 7.96793L7.72228 8.8579L0.185059 11.584C0.208155 11.7443 0.238951 11.9127 0.269746 12.073L8.08412 10.1568L11.0405 9.28285Z" fill="#FBC108"/>
</g>
<defs>
<clipPath id="clip0_605_95">
<rect width="78.2593" height="23.0811" fill="white" transform="translate(0.0849609 0.704834)"/>
</clipPath>
</defs>
</svg>
