<svg width="43" height="6" viewBox="0 0 43 6" fill="none" xmlns="http://www.w3.org/2000/svg">
<path fill-rule="evenodd" clip-rule="evenodd" d="M37.3154 3.02697C37.3154 1.66471 38.4561 0.556702 39.8584 0.556702C41.2607 0.556702 42.4014 1.66471 42.4014 3.02697C42.4014 4.38923 41.2607 5.49733 39.8584 5.49733C38.4561 5.49733 37.3154 4.38923 37.3154 3.02697Z" fill="white"/>
<mask id="mask0_756_607" style="mask-type:alpha" maskUnits="userSpaceOnUse" x="24" y="0" width="7" height="6">
<path d="M24.439 0.30365H30.0459V5.75038H24.439V0.30365Z" fill="white"/>
</mask>
<g mask="url(#mask0_756_607)">
<path fill-rule="evenodd" clip-rule="evenodd" d="M24.439 3.02697C24.439 1.52518 25.6965 0.30365 27.2425 0.30365C28.7885 0.30365 30.0459 1.52518 30.0459 3.02697C30.0459 4.52877 28.7885 5.75039 27.2425 5.75039C25.6965 5.75039 24.439 4.52877 24.439 3.02697Z" fill="#00AA6C"/>
</g>
<mask id="mask1_756_607" style="mask-type:alpha" maskUnits="userSpaceOnUse" x="18" y="0" width="6" height="6">
<path d="M18.1313 0.30365H23.7383V5.75038H18.1313V0.30365Z" fill="white"/>
</mask>
<g mask="url(#mask1_756_607)">
<path fill-rule="evenodd" clip-rule="evenodd" d="M18.1313 3.02697C18.1313 1.52518 19.3889 0.30365 20.9348 0.30365C22.4808 0.30365 23.7383 1.52518 23.7383 3.02697C23.7383 4.52877 22.4808 5.75039 20.9348 5.75039C19.3889 5.75039 18.1313 4.52877 18.1313 3.02697Z" fill="#00AA6C"/>
</g>
<mask id="mask2_756_607" style="mask-type:alpha" maskUnits="userSpaceOnUse" x="11" y="0" width="7" height="6">
<path d="M11.8232 0.30365H17.4302V5.75038H11.8232V0.30365Z" fill="white"/>
</mask>
<g mask="url(#mask2_756_607)">
<path fill-rule="evenodd" clip-rule="evenodd" d="M11.8232 3.02697C11.8232 1.52518 13.0809 0.30365 14.6268 0.30365C16.1727 0.30365 17.4302 1.52518 17.4302 3.02697C17.4302 4.52877 16.1727 5.75039 14.6268 5.75039C13.0809 5.75039 11.8232 4.52877 11.8232 3.02697Z" fill="#00AA6C"/>
</g>
<mask id="mask3_756_607" style="mask-type:alpha" maskUnits="userSpaceOnUse" x="37" y="0" width="6" height="6">
<path d="M37.0552 0.30365H42.6622V5.75038H37.0552V0.30365Z" fill="white"/>
</mask>
<g mask="url(#mask3_756_607)">
<path fill-rule="evenodd" clip-rule="evenodd" d="M41.9654 3.02697C41.9654 1.89883 41.0201 0.980593 39.8588 0.980593C38.6972 0.980593 37.752 1.89883 37.752 3.02697C37.752 4.15521 38.6972 5.06568 39.8588 5.06568C41.0201 5.06568 41.9654 4.15521 41.9654 3.02697ZM37.0552 3.02697C37.0552 1.52518 38.3127 0.30365 39.8588 0.30365C41.4047 0.30365 42.6622 1.52518 42.6622 3.02697C42.6622 4.52877 41.4047 5.75039 39.8588 5.75039C38.3127 5.75039 37.0552 4.52877 37.0552 3.02697Z" fill="#00AA6C"/>
</g>
<path fill-rule="evenodd" clip-rule="evenodd" d="M30.7471 3.0231C30.7471 1.52131 32.0047 0.299683 33.5506 0.299683C35.0966 0.299683 36.354 1.52131 36.354 3.0231C36.354 4.5249 35.0966 5.74653 33.5506 5.74653C32.0047 5.74653 30.7471 4.5249 30.7471 3.0231Z" fill="#00AA6C"/>
<path fill-rule="evenodd" clip-rule="evenodd" d="M3.39512 3.36739C3.39512 3.78453 3.03193 4.12267 2.58392 4.12267C2.13591 4.12267 1.77272 3.78453 1.77272 3.36739C1.77272 2.95025 2.13591 2.61211 2.58392 2.61211C3.03186 2.6118 3.39523 2.94967 3.39555 3.36672V3.36739H3.39512ZM7.15753 2.61211C6.70952 2.61211 6.34633 2.95025 6.34633 3.36739C6.34633 3.78453 6.70952 4.12267 7.15753 4.12267C7.60556 4.12267 7.96873 3.78453 7.96873 3.36739C7.96873 2.95025 7.60556 2.61211 7.15753 2.61211ZM7.15753 4.80817C6.30291 4.80817 5.6101 4.16312 5.6101 3.36739C5.6101 2.57167 6.30291 1.9266 7.15753 1.9266C8.01216 1.9266 8.70497 2.57167 8.70497 3.36739C8.70497 4.16312 8.01216 4.80817 7.15753 4.80817ZM4.87144 3.32585C4.87144 2.37776 4.13036 1.56422 3.15398 1.21603C4.25309 0.789743 5.48952 0.789743 6.58861 1.21603C5.61195 1.56435 4.87144 2.37776 4.87144 3.32585ZM2.58435 4.80817C1.72973 4.80817 1.03691 4.16312 1.03691 3.36739C1.03691 2.57167 1.72973 1.9266 2.58435 1.9266C3.43897 1.9266 4.13178 2.57167 4.13178 3.36739C4.13178 4.16312 3.43897 4.80817 2.58435 4.80817ZM8.69927 1.79391L9.44747 1.03597H7.78874C6.02965 -0.0786399 3.71751 -0.0786399 1.95842 1.03597H0.295405L1.04361 1.79391C0.108567 2.58427 0.038706 3.93075 0.887572 4.80135C1.73644 5.67201 3.18259 5.73701 4.11763 4.94665C4.12459 4.94077 4.13147 4.93486 4.13834 4.92893L4.87144 5.67201L5.60411 4.92985C6.02623 5.29504 6.58131 5.49771 7.15753 5.49698C8.42036 5.49698 9.44505 4.54371 9.44505 3.36792C9.44601 2.76881 9.17516 2.19718 8.69927 1.79391Z" fill="black"/>
</svg>
