<svg width="12" height="18" viewBox="0 0 12 18" fill="none" xmlns="http://www.w3.org/2000/svg">
<path d="M1.4935 17.9995C1.10446 17.9056 0.749464 17.7591 0.472273 17.4657C0.16538 17.1514 -0.0036548 16.7347 0.000565445 16.3027C0.000565445 12.6302 0.000565445 8.9579 0.000565445 5.28572C0.00396954 3.12035 1.42931 1.13808 3.52186 0.363865C4.25244 0.0887608 5.03523 -0.0333224 5.81837 0.00569928C6.60151 0.044721 7.36713 0.243962 8.0645 0.590217C8.76187 0.936473 9.37506 1.42184 9.86348 2.01416C10.3519 2.60649 10.7044 3.29226 10.8976 4.02603C11.041 4.55986 11.1339 5.1059 11.0303 5.65851C10.8703 6.51301 10.0665 7.09333 9.15271 7.02807C8.29196 6.96656 7.59656 6.23929 7.57322 5.38056C7.54647 4.32041 6.84085 3.54526 5.76613 3.39689C4.72934 3.25604 3.67212 4.03307 3.52915 5.0458C3.37597 6.12567 3.96682 7.09661 5.01868 7.48725C6.50287 8.0397 7.98771 8.59074 9.47319 9.14038C10.5012 9.52068 11.0678 10.3141 11.0678 11.3804V16.2121C11.0678 17.137 10.5557 17.7615 9.62296 17.9718C9.60568 17.978 9.58932 17.9864 9.57433 17.9967L1.4935 17.9995ZM5.49429 13.5012C6.34385 13.5012 7.19341 13.504 8.04298 13.4974C8.16948 13.4967 8.2943 13.4693 8.40867 13.4171C8.51629 13.3612 8.60173 13.2725 8.65169 13.1648C8.70165 13.0572 8.71333 12.9365 8.6849 12.8218C8.658 12.6939 8.58538 12.5793 8.47977 12.4979C8.37415 12.4166 8.24226 12.3737 8.10717 12.3767C7.55474 12.3711 7.0023 12.3767 6.45035 12.3767C5.29717 12.3767 4.14416 12.3767 2.99131 12.3767C2.77977 12.3767 2.59254 12.4283 2.46026 12.595C2.32118 12.7716 2.28812 12.9673 2.38975 13.1725C2.50063 13.396 2.69417 13.5012 2.9451 13.5012C3.79467 13.5026 4.64375 13.5007 5.49429 13.5012ZM5.51665 15.7506C6.35957 15.7506 7.20249 15.7506 8.04541 15.7506C8.24333 15.7506 8.42035 15.7036 8.55117 15.5548C8.70484 15.3801 8.74569 15.1792 8.64843 14.9665C8.53998 14.7318 8.34254 14.6252 8.08286 14.6242C7.34271 14.6242 6.60208 14.6242 5.86193 14.6242C4.90295 14.6242 3.94397 14.6242 2.98498 14.6242C2.68202 14.6242 2.4661 14.7529 2.37322 14.9811C2.21858 15.3614 2.50209 15.7464 2.94851 15.7487C3.80537 15.7539 4.66126 15.7506 5.51909 15.7506H5.51665Z" fill="#979797"/>
</svg>
