<svg width="30" height="31" viewBox="0 0 30 31" fill="none" xmlns="http://www.w3.org/2000/svg">
<rect y="0.971069" width="30" height="30" rx="7.0047" fill="#0770E3"/>
<path d="M20.8086 20.8328L18.5415 18.5725C19.273 17.6406 19.6699 16.4899 19.6684 15.3053C19.6684 14.2503 19.3555 13.2189 18.7694 12.3417C18.1833 11.4645 17.3502 10.7808 16.3755 10.3771C15.4008 9.97338 14.3283 9.86775 13.2935 10.0736C12.2588 10.2794 11.3084 10.7874 10.5624 11.5334C9.81635 12.2794 9.30832 13.2299 9.1025 14.2646C8.89668 15.2993 9.00231 16.3719 9.40604 17.3466C9.80978 18.3213 10.4935 19.1544 11.3707 19.7405C12.2479 20.3266 13.2792 20.6395 14.3342 20.6395C15.5188 20.6409 16.6695 20.244 17.6014 19.5126L19.8618 21.7796C19.9237 21.8421 19.9975 21.8917 20.0787 21.9256C20.16 21.9594 20.2471 21.9769 20.3352 21.9769C20.4232 21.9769 20.5103 21.9594 20.5916 21.9256C20.6728 21.8917 20.7466 21.8421 20.8086 21.7796C20.8711 21.7177 20.9207 21.6439 20.9545 21.5627C20.9884 21.4814 21.0058 21.3943 21.0058 21.3062C21.0058 21.2182 20.9884 21.1311 20.9545 21.0498C20.9207 20.9686 20.8711 20.8948 20.8086 20.8328ZM10.3336 15.3053C10.3336 14.514 10.5682 13.7405 11.0078 13.0826C11.4474 12.4247 12.0722 11.912 12.8032 11.6092C13.5342 11.3064 14.3386 11.2271 15.1147 11.3815C15.8907 11.5359 16.6036 11.9169 17.1631 12.4764C17.7226 13.0359 18.1036 13.7487 18.258 14.5248C18.4123 15.3008 18.3331 16.1052 18.0303 16.8362C17.7275 17.5673 17.2147 18.1921 16.5568 18.6317C15.8989 19.0713 15.1254 19.3059 14.3342 19.3059C13.2732 19.3059 12.2556 18.8844 11.5053 18.1341C10.755 17.3839 10.3336 16.3663 10.3336 15.3053Z" fill="#EDEDED"/>
</svg>
