<svg width="52" height="52" viewBox="0 0 52 52" fill="none" xmlns="http://www.w3.org/2000/svg">
<circle cx="26" cy="26" r="25.8" fill="#ECE9EC" stroke="#0770E3" stroke-width="0.4"/>
<path d="M40.9842 26.2807C40.9842 25.0516 40.8821 24.1547 40.6613 23.2246H26.2988V28.7721H34.7292C34.5593 30.1507 33.6415 32.2269 31.6018 33.622L31.5732 33.8077L36.1144 37.2455L36.429 37.2762C39.3184 34.6685 40.9842 30.8317 40.9842 26.2807Z" fill="#4285F4"/>
<path d="M26.2984 40.8968C30.4286 40.8968 33.8959 39.568 36.4285 37.2759L31.6014 33.6218C30.3097 34.5021 28.5759 35.1166 26.2984 35.1166C22.2531 35.1166 18.8198 32.509 17.5959 28.9048L17.4165 28.9197L12.6946 32.4907L12.6328 32.6585C15.1483 37.5416 20.3154 40.8968 26.2984 40.8968Z" fill="#34A853"/>
<path d="M17.5967 28.905C17.2738 27.9749 17.0869 26.9782 17.0869 25.9485C17.0869 24.9187 17.2738 23.9221 17.5797 22.992L17.5712 22.7939L12.7901 19.1655L12.6336 19.2382C11.5969 21.2646 11.002 23.5401 11.002 25.9485C11.002 28.3569 11.5969 30.6323 12.6336 32.6587L17.5967 28.905Z" fill="#FBBC05"/>
<path d="M26.2984 16.78C29.1708 16.78 31.1085 17.9925 32.2133 19.0058L36.5305 14.8866C33.8791 12.4782 30.4286 11 26.2984 11C20.3154 11 15.1483 14.3551 12.6328 19.2382L17.5789 22.992C18.8198 19.3877 22.2532 16.78 26.2984 16.78Z" fill="#EB4335"/>
</svg>
