<svg width="228" height="137" viewBox="0 0 228 137" fill="none" xmlns="http://www.w3.org/2000/svg">
<g clip-path="url(#clip0_189_9768)">
<path d="M174.562 135.451C171.643 132.972 169.87 129.056 170.335 125.243C170.8 121.431 173.68 117.926 177.416 117.117C181.151 116.307 185.41 118.548 186.544 122.216C187.169 115.145 187.889 107.777 191.629 101.756C195.016 96.3031 200.882 92.4017 207.24 91.7037C213.598 91.0057 220.292 93.6419 224.257 98.6853C228.222 103.729 229.193 111.061 226.416 116.851C224.37 121.117 220.601 124.291 216.652 126.874C203.892 135.149 188.587 138.514 173.554 136.35L174.562 135.451Z" fill="#F2F2F2"/>
<path d="M217.97 93.7881C212.724 98.0826 207.912 102.886 203.602 108.128C196.857 116.304 191.4 125.47 187.419 135.308C187.127 136.026 188.287 136.338 188.575 135.629C195.088 119.64 205.486 105.547 218.818 94.6403C219.417 94.1504 218.564 93.3022 217.97 93.7881Z" fill="white"/>
<path d="M73.3969 134.777C77.4062 131.372 79.8414 125.993 79.2028 120.757C78.5642 115.521 74.6085 110.707 69.4775 109.595C64.3465 108.483 58.4975 111.561 56.939 116.599C56.0813 106.887 55.093 96.7678 49.9553 88.4969C45.3033 81.0079 37.2458 75.6492 28.5134 74.6906C19.781 73.7319 10.5869 77.3527 5.14076 84.2799C-0.305336 91.2071 -1.63879 101.278 2.17551 109.231C4.98538 115.089 10.1621 119.449 15.5861 122.997C32.8904 134.313 54.3563 139.033 74.7815 136.012" fill="#F2F2F2"/>
<path d="M13.7757 77.5536C20.981 83.452 27.5912 90.049 33.5105 97.249C39.4308 104.442 44.6429 112.195 49.0737 120.399C51.5504 125.001 53.7752 129.735 55.7383 134.581C56.1385 135.567 54.5458 135.996 54.15 135.021C50.673 126.478 46.3711 118.298 41.3063 110.598C36.2661 102.926 30.4972 95.7634 24.0808 89.211C20.4517 85.5067 16.6227 82.0058 12.6111 78.7241C11.7888 78.0511 12.9602 76.8862 13.7757 77.5536L13.7757 77.5536Z" fill="white"/>
<path d="M163.662 136.7H68.0068V38.0601C68.0068 17.0736 84.9947 0 105.876 0H125.793C146.674 0 163.662 17.0736 163.662 38.0601V136.7Z" fill="#F2F2F2"/>
<path d="M143.745 136.7H68.007V38.06C67.9861 30.0185 70.5197 22.1802 75.2389 15.6864C75.4129 15.4481 75.5864 15.2129 75.7654 14.9802C78.0481 11.9712 80.7645 9.32129 83.8251 7.11782C83.998 6.99139 84.1715 6.86716 84.3477 6.74293C86.9087 4.96172 89.679 3.50562 92.5956 2.40777C92.7688 2.34179 92.9451 2.27568 93.1214 2.21228C95.7592 1.2662 98.4936 0.618134 101.274 0.280059C101.446 0.256393 101.623 0.237874 101.8 0.219355C104.51 -0.0718163 107.243 -0.0718163 109.952 0.219355C110.129 0.237874 110.306 0.25639 110.48 0.280312C113.26 0.618409 115.993 1.26639 118.63 2.21229C118.807 2.2757 118.983 2.3418 119.157 2.4079C122.037 3.49191 124.775 4.92628 127.309 6.67901C127.485 6.80055 127.661 6.92479 127.835 7.04902C129.55 8.27978 131.162 9.65092 132.652 11.1484C133.848 12.3496 134.962 13.63 135.987 14.981C136.165 15.2129 136.339 15.4481 136.513 15.686C141.232 22.1799 143.766 30.0183 143.745 38.06V136.7Z" fill="#CCCCCC"/>
<path d="M137.586 92.5821C139.902 92.5821 141.779 90.6953 141.779 88.3678C141.779 86.0404 139.902 84.1536 137.586 84.1536C135.27 84.1536 133.393 86.0404 133.393 88.3678C133.393 90.6953 135.27 92.5821 137.586 92.5821Z" fill="#0B6EFE"/>
<path d="M155.826 133.746H152.613L151.084 121.291L155.827 121.291L155.826 133.746Z" fill="#FFB8B8"/>
<path d="M150.318 132.823H156.514V136.744H146.417C146.417 136.229 146.517 135.719 146.713 135.244C146.91 134.768 147.197 134.336 147.559 133.971C147.921 133.607 148.352 133.319 148.825 133.121C149.298 132.924 149.806 132.823 150.318 132.823Z" fill="#2F2E41"/>
<path d="M171.812 133.746H168.599L167.07 121.291L171.812 121.291L171.812 133.746Z" fill="#FFB8B8"/>
<path d="M166.304 132.823H172.501V136.744H162.403C162.403 136.229 162.504 135.719 162.7 135.244C162.896 134.768 163.183 134.336 163.546 133.971C163.908 133.607 164.338 133.319 164.811 133.121C165.285 132.924 165.792 132.823 166.304 132.823Z" fill="#2F2E41"/>
<path d="M139.709 89.2027C139.477 88.8605 139.324 88.4714 139.258 88.063C139.193 87.6546 139.218 87.2367 139.33 86.8389C139.443 86.4411 139.641 86.0729 139.911 85.7603C140.18 85.4477 140.515 85.1984 140.891 85.0298L151.813 54.7749L157.187 57.7226L144.716 86.6353C144.956 87.2886 144.949 88.0078 144.697 88.6564C144.445 89.305 143.964 89.8381 143.347 90.1545C142.73 90.471 142.018 90.5489 141.348 90.3735C140.677 90.1981 140.094 89.7815 139.709 89.2027Z" fill="#FFB8B8"/>
<path d="M170.171 94.8877C169.814 94.6819 169.506 94.4 169.269 94.0617C169.032 93.7235 168.872 93.3371 168.8 92.9299C168.727 92.5227 168.745 92.1045 168.851 91.7047C168.957 91.305 169.149 90.9335 169.413 90.6163L166.029 58.6118L172.145 58.8926L173.552 90.3733C174.052 90.8548 174.36 91.5041 174.416 92.1983C174.472 92.8924 174.273 93.5832 173.856 94.1396C173.44 94.6961 172.834 95.0796 172.155 95.2174C171.476 95.3553 170.77 95.238 170.171 94.8877Z" fill="#FFB8B8"/>
<path d="M160.414 49.1707C163.969 49.1707 166.85 46.2744 166.85 42.7016C166.85 39.1288 163.969 36.2324 160.414 36.2324C156.859 36.2324 153.977 39.1288 153.977 42.7016C153.977 46.2744 156.859 49.1707 160.414 49.1707Z" fill="#FFB8B8"/>
<path d="M170.13 87.6089H150.725L150.748 87.4571C150.783 87.2303 154.206 64.6898 151.681 57.3157C151.428 56.591 151.45 55.7977 151.744 55.0886C152.038 54.3794 152.582 53.8045 153.272 53.4745H153.272C156.881 51.7663 163.809 49.6629 169.657 54.7675C170.517 55.5311 171.189 56.4853 171.619 57.5548C172.049 58.6244 172.226 59.7798 172.136 60.9298L170.13 87.6089Z" fill="#0B6EFE"/>
<path d="M154.451 68.021L145.715 66.2397L149.81 56.4863C150.055 55.5417 150.663 54.7333 151.5 54.2384C152.338 53.7436 153.336 53.6028 154.276 53.8468C155.217 54.0908 156.023 54.6998 156.517 55.5401C157.012 56.3805 157.154 57.3836 156.914 58.3294L154.451 68.021Z" fill="#0B6EFE"/>
<path d="M165.641 71.3286L165.115 59.228C164.717 56.9533 166.013 54.803 168.005 54.4515C169.998 54.1013 171.945 55.6789 172.345 57.9704L174.319 69.2772L165.641 71.3286Z" fill="#0B6EFE"/>
<path d="M169.484 86.1602C172.607 98.112 172.947 113.308 172.105 129.883L167.912 129.356L160.312 97.7494L156.119 129.883L151.402 129.62C149.992 112.228 148.62 97.2976 150.877 87.4771L169.484 86.1602Z" fill="#2F2E41"/>
<path d="M164.655 47.7013C163.454 48.9869 161.224 48.2968 161.068 46.5405C161.055 46.4042 161.056 46.267 161.07 46.1308C161.151 45.3528 161.598 44.6465 161.491 43.8252C161.467 43.6207 161.391 43.4259 161.271 43.2592C160.314 41.9713 158.068 43.8352 157.165 42.6693C156.611 41.9545 157.262 40.829 156.837 40.03C156.276 38.9755 154.615 39.4957 153.573 38.9182C152.414 38.2757 152.484 36.4884 153.247 35.4012C154.177 34.0754 155.809 33.368 157.42 33.266C159.031 33.1641 160.631 33.6018 162.135 34.1909C163.844 34.8603 165.539 35.7853 166.59 37.2956C167.869 39.1323 167.992 41.6015 167.353 43.7492C166.964 45.0556 165.636 46.6515 164.655 47.7013Z" fill="#2F2E41"/>
<path d="M220.133 136.87H26.649C26.5664 136.869 26.4873 136.836 26.429 136.777C26.3706 136.719 26.3379 136.639 26.3379 136.556C26.3379 136.473 26.3706 136.393 26.429 136.335C26.4873 136.276 26.5664 136.243 26.649 136.242H220.133C220.216 136.243 220.295 136.276 220.353 136.335C220.411 136.393 220.444 136.473 220.444 136.556C220.444 136.639 220.411 136.719 220.353 136.777C220.295 136.836 220.216 136.869 220.133 136.87Z" fill="#3F3D56"/>
<path d="M122.91 108.122H88.8411C88.3925 108.125 87.9611 107.948 87.6418 107.631C87.3225 107.314 87.1412 106.883 87.1377 106.432V30.0042C87.1412 29.5533 87.3225 29.1221 87.6418 28.8054C87.9611 28.4886 88.3925 28.3121 88.8411 28.3145H122.91C123.359 28.3121 123.79 28.4886 124.109 28.8054C124.429 29.1221 124.61 29.5533 124.614 30.0042V106.432C124.61 106.883 124.429 107.314 124.109 107.631C123.79 107.948 123.359 108.125 122.91 108.122Z" fill="white"/>
<path d="M124.614 53.0442H87.1377V53.571H124.614V53.0442Z" fill="#CCCCCC"/>
<path d="M124.745 83.1001H87.269V83.6269H124.745V83.1001Z" fill="#CCCCCC"/>
<path d="M99.4553 28.3145H98.9312V108.385H99.4553V28.3145Z" fill="#CCCCCC"/>
<path d="M112.559 28.3145H112.035V108.385H112.559V28.3145Z" fill="#CCCCCC"/>
</g>
<defs>
<clipPath id="clip0_189_9768">
<rect width="228" height="137" fill="white"/>
</clipPath>
</defs>
</svg>
