<svg width="212" height="607" viewBox="0 0 212 607" fill="none" xmlns="http://www.w3.org/2000/svg">
<path opacity="0.3" fill-rule="evenodd" clip-rule="evenodd" d="M170.325 607L155.829 592.992C141.333 577.428 112.342 549.413 108.718 519.841C106.906 491.826 126.838 462.254 130.462 434.238C134.085 404.667 119.59 375.095 112.342 347.079C106.906 317.508 106.906 289.492 115.966 259.92C126.838 231.905 148.581 202.333 148.581 172.762C148.581 144.746 126.838 115.174 99.6581 87.1589C70.6667 57.5872 36.2393 29.5718 18.1196 14.0077L-2.65328e-05 0L212 -9.26682e-06L212 14.0077C212 29.5718 212 57.5871 212 87.1589C212 115.174 212 144.746 212 172.762C212 202.333 212 231.905 212 259.92C212 289.492 212 317.508 212 347.079C212 375.095 212 404.667 212 434.238C212 462.254 212 491.826 212 519.841C212 549.413 212 577.428 212 592.992L212 607L170.325 607Z" fill="#E0F3FF"/>
</svg>
