<svg width="25" height="25" viewBox="0 0 25 25" fill="none" xmlns="http://www.w3.org/2000/svg">
<g clip-path="url(#clip0_516_1150)">
<path d="M12.5 25C19.4036 25 25 19.4036 25 12.5C25 5.59644 19.4036 0 12.5 0C5.59644 0 0 5.59644 0 12.5C0 19.4036 5.59644 25 12.5 25Z" fill="#0770E3"/>
<path d="M12.0909 21.7187H11.8934C11.8555 21.6734 11.7973 21.67 11.7465 21.6511L6.19204 19.8136C5.97825 19.7459 5.93359 19.6782 5.93359 19.4543V7.116C5.93359 6.89883 5.98028 6.83456 6.18257 6.76758C8.06519 6.14425 9.94804 5.5216 11.8311 4.89962C12.1085 4.80761 12.2533 4.91382 12.2553 5.20609C12.258 5.61744 12.2598 6.02878 12.2607 6.44013C12.2607 6.49493 12.256 6.54973 12.256 6.60453C12.256 11.0612 12.256 15.5181 12.256 19.9753C12.256 20.0301 12.2594 20.0849 12.2607 20.1397C12.2607 20.5388 12.2506 20.938 12.2607 21.3365C12.26 21.4975 12.2228 21.6247 12.0909 21.7187ZM10.409 14.0777C10.5657 14.0783 10.719 14.0322 10.8494 13.9454C10.9799 13.8586 11.0816 13.735 11.1416 13.5902C11.2016 13.4455 11.2173 13.2862 11.1865 13.1325C11.1558 12.9789 11.0801 12.8378 10.969 12.7273C10.8579 12.6168 10.7165 12.5418 10.5627 12.5119C10.4089 12.4819 10.2496 12.4984 10.1052 12.5592C9.96078 12.6199 9.83768 12.7223 9.75155 12.8532C9.66542 12.9841 9.62015 13.1376 9.62149 13.2943C9.62667 13.5011 9.71143 13.698 9.85812 13.844C10.0048 13.9899 10.2021 14.0736 10.409 14.0777Z" fill="#6292FB"/>
<path d="M22.7916 13.3883C21.9797 14.2029 21.1678 15.017 20.356 15.8306C20.2207 15.966 20.0853 15.9592 19.95 15.8259C19.6993 15.5815 19.4512 15.3334 19.2058 15.0817C19.061 14.9329 19.0624 14.8023 19.2099 14.6528C19.3885 14.4714 19.5732 14.2962 19.7559 14.119L19.7335 14.0838H18.0489C17.9772 14.0838 17.9062 14.0791 17.8351 14.0791H14.4354C14.1885 14.0791 14.1006 13.9891 14.0972 13.7408C14.0972 13.4614 14.0972 13.1819 14.0972 12.9025C14.0972 12.5642 14.1648 12.4966 14.499 12.4966L18.0496 12.4912H19.7856C19.5827 12.2929 19.4128 12.1265 19.2444 11.9581C19.0516 11.7652 19.0516 11.6495 19.2444 11.4588C19.4758 11.2253 19.7071 10.9919 19.9419 10.7619C20.0921 10.6151 20.224 10.611 20.3708 10.7572C21.1475 11.5302 21.9224 12.3047 22.6955 13.0805C22.73 13.115 22.7631 13.1522 22.7929 13.188L22.7916 13.3883Z" fill="#6293FB"/>
<path d="M18.0519 12.494L14.5014 12.4994C14.1631 12.4994 14.0995 12.5671 14.0995 12.9053C14.0995 13.1847 14.0995 13.4642 14.0995 13.7436C14.0995 13.9919 14.1888 14.0819 14.4378 14.0819H17.8402C17.9112 14.0819 17.9822 14.0852 18.054 14.0866C18.054 15.9728 18.054 17.8593 18.054 19.746C18.054 20.0734 17.9863 20.1397 17.6595 20.1397H12.264C12.264 20.0849 12.2593 20.0301 12.2593 19.9753C12.2593 15.5182 12.2593 11.0613 12.2593 6.60459C12.2593 6.54979 12.2627 6.49499 12.264 6.44019H17.6595C17.9877 6.44019 18.054 6.50784 18.054 6.83394C18.0517 8.72107 18.051 10.6078 18.0519 12.494Z" fill="white"/>
<path d="M10.409 14.0777C10.2523 14.0772 10.0993 14.0301 9.96948 13.9424C9.83964 13.8546 9.7388 13.7303 9.67978 13.5852C9.62076 13.44 9.60623 13.2806 9.63802 13.1272C9.66982 12.9738 9.74651 12.8332 9.85835 12.7235C9.97019 12.6138 10.1121 12.5397 10.2661 12.5109C10.4201 12.482 10.5793 12.4995 10.7233 12.5613C10.8673 12.623 10.9897 12.7262 11.0749 12.8577C11.1601 12.9892 11.2043 13.143 11.2019 13.2997C11.1956 13.5066 11.1096 13.7031 10.9619 13.8481C10.8141 13.9931 10.616 14.0754 10.409 14.0777Z" fill="#4C6CF6"/>
</g>
<defs>
<clipPath id="clip0_516_1150">
<rect width="25" height="25" fill="white"/>
</clipPath>
</defs>
</svg>
