<svg width="40" height="40" viewBox="0 0 40 40" fill="none" xmlns="http://www.w3.org/2000/svg">
<mask id="mask0_169_4380" style="mask-type:alpha" maskUnits="userSpaceOnUse" x="0" y="0" width="40" height="40">
<path d="M20 40C31.0457 40 40 31.0457 40 20C40 8.9543 31.0457 0 20 0C8.9543 0 0 8.9543 0 20C0 31.0457 8.9543 40 20 40Z" fill="white"/>
</mask>
<g mask="url(#mask0_169_4380)">
<path d="M7.41548 4.33913C7.9851 3.7332 8.68857 3.30157 9.38685 2.87098C11.2449 1.72564 13.2777 0.891527 15.4047 0.401592C16.4194 0.168141 17.4425 -0.0238075 18.4883 -0.0528592C18.5786 -0.0528592 18.674 -0.0445587 18.7404 -0.127563H21.2565C21.3364 -0.032108 21.4464 -0.0538967 21.5481 -0.0528592C22.3076 -0.041446 23.0515 0.103812 23.7934 0.233507C25.4616 0.54744 27.0831 1.07215 28.619 1.79503C29.3706 2.1483 30.0941 2.55828 30.7834 3.02143C30.248 2.99549 29.7676 2.99757 29.4595 3.30676C28.9614 3.80479 28.4074 3.94382 27.7236 4.02475C26.6238 4.15548 26.075 4.97412 26.0635 6.18806C26.0563 6.94652 26.0552 7.70497 26.0521 8.46343C26.015 8.42924 25.9803 8.39249 25.9484 8.35345C24.8579 6.88012 23.3846 6.17457 21.5647 6.17457C20.0332 6.17457 18.5018 6.17457 16.9704 6.17457C16.6933 6.17457 16.409 6.17457 16.1663 6.30738C15.8892 6.45472 15.7585 6.38935 15.6558 6.10817C15.5987 5.9515 15.4763 5.80624 15.2708 5.83322C15.0913 5.85604 15.0208 6.00545 14.9596 6.15175C14.8397 6.45737 14.791 6.78632 14.8174 7.11357C14.6161 7.02745 14.42 6.92888 14.2136 6.85936C13.9355 6.76598 13.591 6.56885 13.3835 6.85936C13.176 7.14988 13.4603 7.41342 13.6564 7.63338C13.7602 7.74544 13.8131 7.81184 13.6834 7.94465C13.2818 8.36901 13.1739 8.89506 13.175 9.4626C13.175 11.3468 13.1656 13.231 13.1594 15.1152C12.2671 15.1453 11.7452 15.7243 11.74 16.6892C11.3976 16.6124 11.0552 16.5377 10.7108 16.6809C10.5863 16.7328 10.5416 16.6736 10.4898 16.5533C10.0146 15.468 9.36506 15.1744 8.21752 15.5105C8.17394 15.3487 8.14074 15.1827 8.08678 15.0229C7.37813 12.9523 7.01839 10.7785 7.02225 8.59001C7.03354 7.16452 7.16508 5.74251 7.41548 4.33913Z" fill="#A0DCF3"/>
<path d="M30.6672 2.94564C30.0561 2.60844 30.1567 3.02346 30.1121 3.0494C30.0976 3.05874 30.0779 3.03695 30.0613 3.03176C29.836 3.05306 29.6243 3.1487 29.4595 3.3036C28.9614 3.80163 28.4074 3.94066 27.7236 4.02159C26.6238 4.15233 26.075 4.97096 26.0635 6.18491C26.0563 6.94336 26.0552 7.70182 26.0521 8.46027C26.515 9.22638 26.8093 10.0824 26.9154 10.9712C27.3927 10.8238 27.7952 10.5468 28.176 10.2345C28.6087 9.69601 28.9552 9.12016 28.9749 8.40217C28.9832 8.11684 29.2042 8.204 29.3526 8.204C31.2638 8.19915 33.175 8.19915 35.0862 8.204C35.689 8.204 36.2908 8.21645 36.8926 8.19777C37.0028 8.18895 37.1132 8.21229 37.2104 8.26496C37.3077 8.31763 37.3875 8.39737 37.4404 8.49451C37.735 8.95104 37.8326 9.45841 37.8336 9.98964C37.8336 11.131 37.8284 12.2723 37.8388 13.4063C37.844 13.9386 38.2071 14.2623 38.6626 14.1752L38.673 13.0152C38.6344 12.8598 38.6369 12.6971 38.6803 12.5431C38.673 12.4653 38.6616 12.3874 38.6595 12.3096C38.646 11.6871 38.727 11.6352 39.2821 11.9102C39.4746 11.9942 39.6445 12.1227 39.778 12.285C39.9114 12.4472 40.0046 12.6388 40.0498 12.844H40.1277V11.4329C38.1729 7.09588 31.4256 3.36378 30.6672 2.94564Z" fill="#FEFEFE"/>
<path d="M40.1297 21.1818C39.9741 21.5606 40.0716 21.9694 39.9886 22.3616C39.9398 22.5971 39.9243 22.8471 39.8776 23.0878L36.3551 22.3356C35.902 22.1772 35.4318 22.0728 34.9543 22.0243C35.752 21.6563 36.4667 21.1304 37.0554 20.4784C38.145 19.2667 38.7161 17.6761 38.646 16.048C38.6398 15.8467 38.5734 15.633 38.7124 15.439C39.0392 15.495 39.2903 15.2999 39.5642 15.1816C39.7458 16.0719 39.9025 16.9652 40.0228 17.8658C40.0654 18.1833 39.9554 18.5184 40.1266 18.8193L40.1297 21.1818Z" fill="#A0DCF3"/>
<path d="M40.1297 18.8225C39.9554 18.5216 40.0654 18.1864 40.0259 17.869C39.9056 16.9683 39.7489 16.075 39.5684 15.1848C39.7862 14.9389 40.028 14.7075 40.0612 14.3547L40.1328 14.3423L40.1297 18.8225Z" fill="#FEFEFE"/>
<path d="M9.95127 30.9452L9.24573 30.7585C9.74064 30.5167 10.1297 30.1027 10.6101 29.8568C11.9589 29.1689 12.4476 28.3482 12.3179 26.8479C12.5833 26.8064 12.838 26.713 13.0673 26.5731C13.2966 26.4332 13.496 26.2494 13.6543 26.0324L15.1225 25.7429C15.083 25.8529 15.0457 25.9629 15.0042 26.0729C14.6335 27.0542 14.5959 28.1303 14.8972 29.1351C15.1985 30.1399 15.822 31.0177 16.6715 31.6331C16.9351 31.8251 17.0949 31.8573 17.3428 31.5906C17.9768 30.911 18.6543 30.2719 19.3049 29.6078C19.4449 29.4636 19.5269 29.4595 19.6691 29.6078C20.1878 30.1442 20.7211 30.6672 21.2493 31.1953C21.9911 31.9382 22.0098 31.9558 22.7485 31.1953C24.2935 29.6141 24.6037 27.7817 23.7861 25.7429C25.3746 26.0947 26.9704 26.4194 28.5495 26.8095C29.7438 27.1052 30.6392 27.8533 31.2928 28.8847C31.8189 29.7147 32.0015 30.6433 32.0056 31.6134C32.0119 33.1179 32.0167 34.623 32.0202 36.1289C28.9405 38.4413 25.2549 39.8083 21.4122 40.0633C19.7822 40.1909 18.1426 40.103 16.5356 39.8019C16.5356 38.2735 16.545 36.7442 16.5356 35.2148C16.5386 34.4177 16.269 33.6436 15.7715 33.0209C15.274 32.3981 14.5786 31.9641 13.8006 31.7909C12.5223 31.5003 11.2358 31.2306 9.95127 30.9452Z" fill="#ED1D66"/>
<path d="M13.6543 26.0334C13.4961 26.2505 13.2966 26.4342 13.0673 26.5741C12.838 26.7141 12.5834 26.8075 12.318 26.849C12.252 26.5432 12.1389 26.2495 11.9828 25.9784C12.9696 25.6848 13.3763 24.6099 12.8388 23.7269C12.7204 23.5384 12.5464 23.3913 12.3408 23.3057C12.0918 23.1916 11.9434 23.2102 11.9704 23.5412C11.9859 23.7487 11.9704 23.9562 11.9704 24.1638C11.8282 24.4408 11.9465 24.7406 11.8988 25.026V25.0363C11.4703 24.9326 11.3022 24.7355 11.2866 24.2644C11.27 23.7684 11.2783 23.2725 11.2731 22.7765C11.2671 22.1123 11.0297 21.471 10.6017 20.963C10.1736 20.4551 9.58184 20.1123 8.92826 19.9938C8.00898 19.8351 7.08037 19.9399 6.1559 19.9336C4.69605 19.9129 3.35449 21.2057 3.30469 22.569C3.28186 23.1687 3.26664 23.7684 3.25903 24.3682C3.25385 24.7531 3.08369 24.9814 2.69564 25.0343C2.64791 24.7458 2.77138 24.4439 2.6199 24.1648C2.6199 24.0081 2.63235 23.8535 2.6199 23.6948C2.60745 23.536 2.70498 23.3358 2.55038 23.2611C2.39578 23.1864 2.20384 23.314 2.05339 23.4167C1.45161 23.8234 1.57404 24.4543 1.61139 25.0208C1.6394 25.4524 1.92266 25.7668 2.35013 25.8913C2.58877 25.9608 2.63961 26.0552 2.51095 26.2731C2.38612 26.5178 2.30901 26.784 2.28373 27.0575C1.71307 26.9849 1.26484 26.6954 0.890286 26.2742L0.506389 25.0758C0.520914 24.6815 0.957727 24.1959 0.266712 23.9511C0.0956738 23.1693 -0.00845866 22.3745 -0.0445557 21.575C0.0462649 21.4635 0.145841 21.3594 0.253224 21.2638C0.39952 21.1528 0.387069 21.0708 0.304064 20.911C-0.24273 19.8631 0.232473 18.7778 1.38624 18.4478C1.5647 18.397 1.6145 18.3441 1.60828 18.1677C1.5564 16.8988 2.83571 16.1237 3.80479 16.462C3.95835 16.5159 4.03824 16.5097 4.13162 16.3333C4.84546 14.9845 6.36238 14.8392 7.34806 16.0137C7.45181 16.1351 7.51718 16.215 7.62612 16.0314C7.76516 15.7979 8.00483 15.6776 8.20819 15.5126C9.35574 15.1764 10.0052 15.47 10.4805 16.5553C10.5323 16.6757 10.5769 16.7348 10.7015 16.683C11.0459 16.5398 11.3883 16.6145 11.7307 16.6913C12.1903 17.015 12.4643 17.429 12.3771 18.0193C12.3543 18.177 12.4176 18.2351 12.5846 18.2746C13.7259 18.5495 14.198 19.4314 13.7903 20.5385C13.7488 20.6537 13.6948 20.746 13.8152 20.8498C14.5715 21.518 14.6452 22.3397 14.3402 23.2434L14.0237 23.6927C13.8722 23.7643 13.8857 23.8649 13.9324 24.0092C14.1679 24.7282 14.0953 25.4078 13.6543 26.0334Z" fill="#BC5E4D"/>
<path d="M32.0223 36.1382C32.0181 34.6331 32.0133 33.1279 32.0077 31.6228C32.0077 30.6526 31.821 29.7261 31.2949 28.894C30.6413 27.8564 29.7459 27.1104 28.5516 26.8189C26.9725 26.4287 25.3767 26.104 23.7882 25.7523C23.5962 25.4026 23.4116 25.0488 23.1387 24.752C23.7245 24.2796 24.249 23.7358 24.7002 23.1335L28.4147 22.3314C28.4147 22.5939 28.4043 22.8554 28.4147 23.1169C28.4686 24.1171 28.7259 25.0561 29.3993 25.8218C29.832 26.3144 30.3796 26.6925 30.9936 26.9226C31.6075 27.1527 32.2687 27.2277 32.9186 27.1409C33.5685 27.054 34.1869 26.8081 34.7188 26.4248C35.2508 26.0416 35.6799 25.5329 35.9681 24.944C36.3831 24.1139 36.3686 23.2289 36.352 22.3397L39.8745 23.092C39.6452 24.7394 39.1914 26.3477 38.5257 27.872C37.1356 31.1591 34.8898 34.0135 32.0223 36.1382Z" fill="#4873B8"/>
<path d="M6.16108 19.9378C7.08554 19.944 8.01416 19.8392 8.93344 19.9979C9.58702 20.1165 10.1788 20.4592 10.6068 20.9672C11.0349 21.4751 11.2723 22.1165 11.2783 22.7807C11.2783 23.2766 11.2783 23.7726 11.2918 24.2685C11.3074 24.7396 11.4755 24.9367 11.904 25.0405C11.9403 25.3517 11.8147 25.6775 11.9828 25.9743C12.1389 26.2454 12.252 26.539 12.318 26.8448C12.4477 28.3441 11.9558 29.1648 10.6101 29.8537C10.1297 30.0996 9.74066 30.5136 9.24574 30.7554C9.12367 30.7794 9.01142 30.839 8.92306 30.9266L8.75186 30.9349C8.49559 30.9909 8.24865 31.1424 7.97266 31.0179C4.94921 30.4244 3.90439 28.4177 3.98324 25.7263C4.1202 25.7263 4.28828 25.9234 4.38893 25.7056C4.48957 25.4877 4.31111 25.4555 4.15132 25.4078C3.99154 25.36 4.03823 25.1909 4.03927 25.0716C4.03927 24.198 4.02889 23.3244 4.10671 22.4507C4.13875 21.9825 4.28096 21.5286 4.52173 21.1258C4.90356 20.5084 5.49081 20.1629 6.16108 19.9378ZM5.38187 23.7767L5.31132 23.867V24.4532C5.31132 24.5839 5.31132 24.7157 5.32065 24.8454C5.34348 25.082 5.46591 25.2604 5.71389 25.2501C5.96187 25.2397 6.08845 25.0882 6.08741 24.835C6.08741 24.4947 6.08741 24.1544 6.08741 23.8141C6.09212 23.7673 6.08685 23.7201 6.07196 23.6756C6.05706 23.631 6.03288 23.5901 6.00101 23.5556C5.96913 23.5211 5.9303 23.4937 5.88706 23.4753C5.84383 23.4569 5.79718 23.4479 5.7502 23.4489C5.53128 23.4374 5.35904 23.507 5.37565 23.7767H5.38187ZM6.25135 27.3916C5.67031 27.3698 5.59872 27.4756 5.82906 28.0141C5.85961 28.0699 5.89429 28.1233 5.93282 28.1739C6.38104 28.9407 7.25052 29.198 8.05462 28.8037C8.38001 28.6624 8.63961 28.4028 8.78092 28.0774C9.06417 27.5026 8.97598 27.3646 8.35033 27.3885L6.25135 27.3916ZM8.45097 24.4688C8.45097 24.5725 8.45097 24.6763 8.45097 24.78C8.45097 25.056 8.57755 25.2563 8.866 25.2449C9.12435 25.2345 9.23848 25.0374 9.23537 24.78C9.23537 24.4926 9.23537 24.2042 9.23537 23.9168C9.23537 23.6657 9.15651 23.4696 8.87533 23.452C8.59416 23.4343 8.47276 23.5941 8.46031 23.8587L8.45097 24.4688ZM6.71306 25.8072C6.7058 26.4702 6.93821 26.7805 7.3273 26.7618C7.70082 26.7452 8.03284 26.3405 7.96124 25.9245C7.88343 25.4638 7.75373 25.0104 7.63753 24.558C7.61898 24.4872 7.57604 24.4251 7.51626 24.3828C7.45648 24.3405 7.38369 24.3206 7.31069 24.3266C7.24528 24.3175 7.17887 24.334 7.12533 24.3727C7.07178 24.4113 7.03523 24.4692 7.02329 24.5341C6.90397 24.999 6.75249 25.4576 6.71306 25.8072ZM5.6755 22.2069C5.38199 22.2151 5.09749 22.31 4.8579 22.4798C4.77594 22.5368 4.61408 22.5835 4.74792 22.7412C4.833 22.845 4.90148 22.9259 5.05919 22.8108C5.23976 22.6673 5.46357 22.5893 5.69418 22.5893C5.92478 22.5893 6.14859 22.6673 6.32916 22.8108C6.48687 22.9228 6.56261 22.8481 6.64873 22.7423C6.77428 22.5877 6.61449 22.5348 6.5346 22.4767C6.28441 22.2954 5.98238 22.1997 5.67343 22.2038L5.6755 22.2069ZM8.85251 22.2069C8.53678 22.2098 8.22987 22.3114 7.97473 22.4974C7.89899 22.5514 7.76722 22.6012 7.88343 22.735C7.96643 22.8274 8.03076 22.9342 8.1947 22.8159C8.62321 22.5119 9.0704 22.5171 9.49787 22.8274C9.64417 22.9311 9.70538 22.8274 9.78527 22.7495C9.90356 22.6292 9.79669 22.5659 9.7168 22.5047C9.46808 22.3135 9.16414 22.2079 8.85043 22.2038L8.85251 22.2069ZM10.8104 26.6082C10.6215 26.5937 10.4846 26.657 10.4908 26.8842C10.4866 26.9299 10.4923 26.9761 10.5074 27.0194C10.5225 27.0628 10.5468 27.1024 10.5786 27.1355C10.6104 27.1687 10.6489 27.1946 10.6916 27.2116C10.7343 27.2285 10.7801 27.2362 10.8259 27.2339C11.049 27.2463 11.1196 27.1218 11.1196 26.9226C11.1196 26.7234 11.0355 26.5968 10.8083 26.6082H10.8104ZM4.43458 26.6082C4.22707 26.5947 4.10982 26.6777 4.12331 26.8987C4.12121 26.9446 4.12893 26.9903 4.14596 27.0329C4.16299 27.0755 4.18894 27.114 4.22205 27.1457C4.25517 27.1774 4.29469 27.2017 4.33797 27.2169C4.38125 27.2321 4.42728 27.2379 4.47297 27.2339C4.67114 27.2401 4.74688 27.1301 4.75311 26.9434C4.75518 26.7203 4.67737 26.5906 4.4325 26.6082H4.43458ZM9.64935 26.2046C9.70841 26.2059 9.76604 26.1864 9.81227 26.1497C9.8585 26.1129 9.89043 26.0611 9.90252 26.0033C9.90468 25.9618 9.89481 25.9206 9.87411 25.8846C9.8534 25.8486 9.82274 25.8193 9.7858 25.8002C9.74886 25.7812 9.70721 25.7733 9.66586 25.7773C9.62451 25.7814 9.58521 25.7973 9.55269 25.8232C9.52016 25.849 9.4958 25.8837 9.48251 25.9231C9.46923 25.9625 9.46759 26.0049 9.4778 26.0451C9.48801 26.0854 9.50962 26.1219 9.54006 26.1502C9.57049 26.1785 9.60844 26.1974 9.64935 26.2046ZM10.771 25.524C10.6983 25.5748 10.5873 25.6194 10.5946 25.7315C10.5945 25.7603 10.6004 25.7888 10.6119 25.8152C10.6234 25.8416 10.6403 25.8653 10.6614 25.8848C10.6826 25.9044 10.7076 25.9192 10.7349 25.9286C10.7621 25.9379 10.791 25.9415 10.8197 25.939C10.9235 25.9317 10.9546 25.8352 10.9546 25.7388C10.9581 25.7123 10.956 25.6855 10.9484 25.6599C10.9409 25.6343 10.928 25.6107 10.9107 25.5904C10.8934 25.5701 10.872 25.5538 10.8479 25.5423C10.8238 25.5309 10.7976 25.5246 10.771 25.524ZM5.4462 25.939C5.44608 25.8929 5.42862 25.8485 5.39729 25.8147C5.36596 25.7808 5.32305 25.76 5.27708 25.7564C5.25187 25.7545 5.22654 25.7578 5.20268 25.7662C5.17881 25.7745 5.15693 25.7877 5.1384 25.8049C5.11986 25.8221 5.10508 25.8429 5.09497 25.8661C5.08485 25.8892 5.07964 25.9142 5.07964 25.9395C5.07964 25.9648 5.08485 25.9898 5.09497 26.013C5.10508 26.0361 5.11986 26.057 5.1384 26.0742C5.15693 26.0914 5.17881 26.1045 5.20268 26.1129C5.22654 26.1212 5.25187 26.1246 5.27708 26.1227C5.32322 26.119 5.36628 26.098 5.39764 26.064C5.429 26.0299 5.44634 25.9853 5.4462 25.939Z" fill="#FBBB85"/>
<path d="M8.20919 15.5157C8.00168 15.6776 7.76616 15.7979 7.62712 16.0345C7.51818 16.2181 7.45177 16.1382 7.34906 16.0168C6.36234 14.8423 4.84542 14.9897 4.13262 16.3364C4.03924 16.5128 3.95935 16.519 3.80579 16.4651C2.83671 16.1268 1.55636 16.9019 1.60409 18.1739C1.61031 18.3462 1.56051 18.4032 1.38205 18.4541C0.227245 18.7799 -0.247957 19.8662 0.298837 20.9141C0.381842 21.0739 0.394293 21.1559 0.247997 21.2669C0.140614 21.3626 0.0410376 21.4667 -0.049783 21.5782C-0.311248 18.6958 0.0871749 15.9017 1.05833 13.1895C1.85578 10.9436 3.05694 8.86228 4.60263 7.04818C5.38848 6.136 6.24317 5.28547 7.15918 4.50408C7.22936 4.42591 7.31988 4.3688 7.42065 4.33911C7.16526 5.74484 7.0292 7.16964 7.01392 8.59829C7.01006 10.7867 7.36981 12.9606 8.07846 15.0312C8.13241 15.1878 8.16562 15.3559 8.20919 15.5157Z" fill="#93C6EB"/>
<path d="M9.95122 30.9453C11.2357 31.2286 12.5223 31.5004 13.8037 31.7971C14.5817 31.9704 15.2771 32.4044 15.7746 33.0271C16.272 33.6499 16.5416 34.424 16.5387 35.2211C16.548 36.7505 16.5387 38.2798 16.5387 39.8081C14.7676 39.5311 13.0475 38.9923 11.4349 38.2093C9.38886 37.234 8.11474 36.3593 6.29175 34.7293C6.48266 34.6504 6.64659 34.7677 6.81053 34.7988C7.18649 34.8743 7.57447 34.8662 7.94695 34.7751C8.31944 34.6839 8.66732 34.512 8.96593 34.2714C9.26454 34.0308 9.50657 33.7275 9.67487 33.3829C9.84318 33.0383 9.93362 32.661 9.93981 32.2775C9.95226 31.8355 9.94915 31.3904 9.95122 30.9453Z" fill="#FEC447"/>
<path d="M6.16107 19.9378C5.4908 20.1629 4.90355 20.5084 4.5238 21.1299C4.28302 21.5327 4.14082 21.9867 4.10878 22.4549C4.03096 23.3285 4.04237 24.2022 4.04133 25.0758C4.04133 25.1951 3.97804 25.3601 4.15339 25.4119C4.32874 25.4638 4.49267 25.4908 4.39099 25.7097C4.28931 25.9286 4.12226 25.7357 3.98531 25.7305C3.90645 28.4178 4.95127 30.4244 7.97472 31.022C7.92596 31.2295 7.7558 31.158 7.62403 31.1704C6.96829 31.2358 6.33849 31.0729 5.70558 30.938C5.61924 30.8426 5.50054 30.7827 5.37252 30.7699C4.90666 30.5043 4.5155 30.0945 4.04652 29.8818C2.81494 29.3111 2.23702 28.4022 2.28786 27.0648C2.31314 26.7913 2.39025 26.5251 2.51508 26.2804C2.64374 26.0625 2.5929 25.9691 2.35426 25.8986C1.92367 25.7741 1.64353 25.4597 1.61552 25.028C1.57817 24.4574 1.45573 23.8307 2.05752 23.424C2.20797 23.3202 2.38539 23.1853 2.55451 23.2683C2.72363 23.3514 2.61158 23.5526 2.62403 23.702C2.63648 23.8515 2.62403 24.0133 2.62403 24.1721C2.32936 24.309 2.15401 24.6639 2.35841 24.8413C2.66138 25.1007 2.61365 25.4202 2.69769 25.7315V25.0343C3.08574 24.9814 3.2559 24.7531 3.26109 24.3682C3.2687 23.7685 3.28392 23.1687 3.30674 22.569C3.36277 21.2098 4.70122 19.9212 6.16107 19.9378Z" fill="#F5A96D"/>
<path d="M8.75394 30.9349L8.92513 30.9266C8.92513 31.2929 8.92513 31.6581 8.92513 32.0233C8.91683 33.0184 8.25279 33.7 7.30031 33.6938C6.36651 33.6876 5.69106 32.9675 5.69521 31.9881C5.69521 31.9237 5.70455 31.8584 5.7087 31.793C6.55535 31.9486 7.38851 31.9549 8.15734 31.4994C8.3939 31.3593 8.68961 31.2638 8.75394 30.9349Z" fill="#F5A96D"/>
<path d="M2.28889 27.0617C2.23805 28.3991 2.81597 29.308 4.05274 29.8787C4.52068 30.0945 4.91184 30.5012 5.37771 30.7658L4.66905 30.937L3.35135 31.2047C3.07225 31.0096 2.95085 30.6973 2.78484 30.4213C1.99734 29.1129 1.31773 27.7537 0.896484 26.2783C1.27001 26.6996 1.71823 26.989 2.28889 27.0617Z" fill="#93C6EB"/>
<path d="M8.75386 30.9349C8.68953 31.2638 8.39382 31.3592 8.15726 31.4993C7.38843 31.9548 6.55527 31.9486 5.70862 31.7929V30.9338C6.34153 31.0687 6.97133 31.2316 7.62707 31.1663C7.75884 31.1538 7.929 31.2264 7.97776 31.0179C8.25064 31.1434 8.49758 30.9909 8.75386 30.9349Z" fill="#EB9C59"/>
<path d="M3.35132 31.2047L4.66902 30.937C4.70015 31.6633 4.60469 32.3896 4.78938 33.1221C4.25918 32.5131 3.68334 31.9569 3.35132 31.2047Z" fill="#FEC447"/>
<path d="M0.266724 23.951C0.957738 24.1959 0.520926 24.6773 0.5064 25.0758L0.266724 23.951Z" fill="#93C6EB"/>
<path d="M26.0511 8.46348C26.514 9.22959 26.8083 10.0856 26.9144 10.9744C26.9144 11.7027 26.9144 12.429 26.9144 13.1533L26.0698 13.1782L25.7585 13.1595H24.8808C23.4552 13.1595 22.0285 13.1284 20.6039 13.1709C19.141 13.2155 17.8471 12.8223 16.7172 11.8926C16.5097 11.6851 16.3344 11.4371 16.0781 11.2763C16.0708 11.239 16.0781 11.1902 16.0532 11.1632C15.0675 9.98662 15.0042 8.52885 14.8185 7.10843C14.7921 6.78118 14.8407 6.45223 14.9607 6.14661C15.0219 6.00032 15.0924 5.85091 15.2719 5.82808C15.4794 5.8011 15.5998 5.94636 15.6569 6.10303C15.7606 6.38421 15.8903 6.44958 16.1673 6.30224C16.4101 6.17151 16.6944 6.16944 16.9714 6.16944C18.5029 6.16944 20.0343 6.16944 21.5658 6.16944C23.3856 6.16944 24.859 6.87602 25.9494 8.34831C25.9806 8.38907 26.0145 8.42756 26.0511 8.46348Z" fill="#89412F"/>
<path d="M14.3402 23.2465C14.6514 22.3428 14.5716 21.5211 13.8152 20.8529C13.6948 20.7491 13.7488 20.6568 13.7903 20.5416C14.198 19.4345 13.7311 18.5526 12.5846 18.2776C12.4186 18.2382 12.3553 18.1801 12.3771 18.0224C12.4643 17.432 12.1904 17.0181 11.7307 16.6943C11.7359 15.7294 12.2578 15.1504 13.1501 15.1204C13.1501 15.543 13.1501 15.9649 13.1501 16.3862C12.8326 16.4059 12.6894 16.5802 12.6842 16.8935C12.678 17.2442 12.761 17.5161 13.174 17.5565C13.7 17.5244 14.004 17.2214 14.0144 16.684C14.0258 15.9805 14.0144 15.277 14.0144 14.5736C14.0144 14.4345 13.9884 14.2996 14.1835 14.2343C14.7158 14.0558 15.1246 13.6916 15.4981 13.287C15.4317 13.84 15.2563 14.3692 15.2667 14.9419C15.2947 16.602 15.2812 18.2673 15.275 19.9294C15.2714 20.794 15.4626 21.6483 15.8343 22.4289C16.5172 23.9344 17.7627 25.1125 19.3039 25.7107C19.3983 25.7481 19.5176 25.7512 19.529 25.8913C18.7405 25.9483 17.9976 25.7304 17.2578 25.5032C16.7423 25.2773 16.2452 25.0116 15.771 24.7084C15.2365 24.2809 14.7561 23.79 14.3402 23.2465Z" fill="#F5A96D"/>
<path d="M13.1521 16.3863C13.1521 15.9643 13.1521 15.5424 13.1521 15.1205C13.1583 13.2363 13.1687 11.352 13.1677 9.46784C13.1677 8.9003 13.2714 8.37425 13.6761 7.94989C13.8058 7.81293 13.7497 7.74238 13.6491 7.63862C13.453 7.41866 13.1562 7.16653 13.3762 6.8646C13.5962 6.56267 13.9313 6.76811 14.2063 6.8646C14.4138 6.93412 14.6088 7.03269 14.8101 7.11881C14.9958 8.53923 15.0591 9.997 16.0448 11.1736C16.0666 11.2006 16.0625 11.2493 16.0697 11.2867C16.1112 11.7411 15.9929 12.1748 15.8954 12.6106H15.9006L15.8466 12.703L15.5022 13.2995C15.1287 13.7042 14.7199 14.0684 14.1876 14.2468C13.9925 14.3122 14.0185 14.4471 14.0185 14.5861C14.0185 15.2896 14.0257 15.9931 14.0185 16.6965C14.0091 17.234 13.7072 17.5369 13.178 17.5691C13.1677 17.1665 13.1604 16.7764 13.1521 16.3863Z" fill="#6F3524"/>
<path d="M38.7124 15.442C38.5733 15.6319 38.6398 15.8498 38.646 16.0511C38.7161 17.6791 38.145 19.2697 37.0554 20.4814C36.4666 21.1337 35.7514 21.6597 34.9533 22.0274C34.8205 22.0504 34.6977 22.1125 34.6005 22.2059L34.5404 22.2131L34.4657 22.2816C33.8161 22.4082 33.1656 22.5275 32.5067 22.5929C32.4424 22.3729 32.2214 22.3854 32.0679 22.3179C31.3437 22.0207 30.6838 21.5863 30.1245 21.0386C28.7321 19.6794 28.1189 17.9996 28.1812 16.0646C28.6377 16.4121 29.1336 16.6145 29.7271 16.5698C30.5572 16.5076 31.0656 16.0189 31.4713 15.3632C31.5906 15.4472 31.5501 15.5707 31.5563 15.6879C31.5781 16.1216 31.8873 16.4951 32.2691 16.5439C32.7506 16.6051 33.0442 16.3997 33.2237 15.9214C33.2828 15.7637 33.2299 15.5779 33.3596 15.4441C33.4198 15.5271 33.482 15.6101 33.5401 15.6941C33.8 16.0587 34.17 16.3301 34.5957 16.4685C35.0213 16.6069 35.4802 16.605 35.9047 16.463C36.7441 16.1756 37.3418 15.3154 37.2878 14.4345C37.2214 13.3617 36.4007 12.3906 34.9606 12.4632C34.8682 12.1519 34.6555 12.0233 34.338 12.0783C34.1129 12.1177 33.9956 12.293 33.9904 12.5493C33.8867 12.7246 33.9531 12.955 33.7643 13.1085C33.4789 13.3571 33.2871 13.6958 33.2206 14.0683C33.1853 14.2218 33.1365 14.3059 32.9695 14.2758C32.9176 14.0507 32.8481 13.8276 32.819 13.6003C32.7869 13.3524 32.624 13.2829 32.4217 13.2528C32.2193 13.2227 32.0762 13.3441 32.0066 13.5277C31.9065 13.7656 31.8574 14.0219 31.8624 14.28C31.6995 14.3007 31.5906 14.2571 31.5511 14.0724C31.4474 13.5537 31.1361 13.1656 30.7491 12.8274C30.7595 12.4829 30.7097 12.1561 30.3061 12.0741C30.0156 12.016 29.806 12.1561 29.725 12.4559C29.1564 12.4375 28.6013 12.6322 28.1687 13.0017V10.2376C28.6014 9.69913 28.9479 9.12328 28.9676 8.40529C28.9759 8.11996 29.1969 8.20711 29.3453 8.20711C31.2565 8.20227 33.1677 8.20227 35.0788 8.20711C35.6817 8.20711 36.2835 8.21957 36.8852 8.20089C36.9955 8.19207 37.1059 8.21541 37.2031 8.26808C37.3004 8.32075 37.3802 8.40048 37.4331 8.49763C37.7277 8.95416 37.8253 9.46152 37.8263 9.99275C37.8263 11.1341 37.8211 12.2754 37.8315 13.4094C37.8367 13.9417 38.1998 14.2654 38.6553 14.1783C38.6739 14.1781 38.6924 14.1805 38.7103 14.1855C38.7138 14.604 38.7145 15.0228 38.7124 15.442ZM33.3721 19.363C34.0039 19.0849 34.364 18.5775 34.5404 17.9322C34.6514 17.5171 34.5549 17.4061 34.1357 17.4051C33.1303 17.4051 32.1239 17.3926 31.1185 17.4113C30.8342 17.4165 30.4461 17.2422 30.2812 17.5441C30.0996 17.8761 30.3414 18.2123 30.524 18.5142C30.7951 18.9983 31.2442 19.3577 31.7759 19.5162C32.3076 19.6746 32.8802 19.6197 33.3721 19.363ZM34.4823 11.8137C34.7313 11.8137 34.9813 11.8282 35.2293 11.8137C35.5406 11.7929 35.7481 11.6176 35.7771 11.2949C35.8041 11.0044 35.5613 10.7512 35.2314 10.7388C34.7468 10.7201 34.2613 10.717 33.7788 10.7388C33.4675 10.7533 33.2175 10.9141 33.2175 11.271C33.2175 11.6279 33.4603 11.7774 33.7777 11.8074C34.0091 11.8282 34.2467 11.8147 34.4823 11.8137ZM30.1463 11.8137C30.3808 11.8137 30.6163 11.8209 30.8508 11.8137C31.1828 11.8012 31.3966 11.6446 31.41 11.2949C31.4235 10.9452 31.2025 10.7626 30.8798 10.7471C30.3974 10.7242 29.9128 10.7211 29.4273 10.7471C29.116 10.7637 28.8753 10.9203 28.8794 11.2845C28.8836 11.6487 29.1253 11.7846 29.4376 11.8147C29.6742 11.8282 29.9118 11.8147 30.1463 11.8157V11.8137ZM32.3252 8.83484C31.6974 8.83484 31.0697 8.83484 30.443 8.83484C30.2687 8.83484 30.1318 8.84729 30.139 9.07866C30.139 9.28618 30.2552 9.30797 30.4181 9.30797C31.6736 9.30797 32.9287 9.30797 34.1834 9.30797C34.3422 9.30797 34.4625 9.2924 34.4677 9.08385C34.4677 8.85559 34.3463 8.83276 34.1679 8.8338C33.5567 8.83899 32.9425 8.83691 32.3283 8.83691L32.3252 8.83484ZM32.2795 10.2501H34.1627C34.3069 10.2501 34.4646 10.2708 34.4625 10.0426C34.4625 9.84853 34.3277 9.85061 34.1907 9.85061H30.4264C30.2957 9.85061 30.1546 9.83505 30.1473 10.0332C30.138 10.2542 30.2895 10.2407 30.4378 10.2407L32.2795 10.2501Z" fill="#FBBB85"/>
<path d="M28.1749 10.2377C28.1749 11.1583 28.1749 12.0786 28.1749 12.9986C27.2753 14.0113 27.2774 15.0094 28.1822 16.0615C28.1199 17.9965 28.7331 19.6764 30.1255 21.0356C30.6848 21.5832 31.3447 22.0176 32.0689 22.3149C32.2224 22.3782 32.4434 22.3699 32.5077 22.5898C32.2873 22.5931 32.0669 22.5823 31.8479 22.5577C31.2917 22.4881 30.7595 22.3252 30.2168 22.2059L29.7447 21.9808C28.5656 21.4209 27.584 20.5164 26.9298 19.3869C26.7929 19.1503 26.74 18.8038 26.5418 18.6803C26.3218 18.5444 26.023 18.8193 25.7397 18.8214C25.7397 18.4022 25.7397 17.9831 25.7397 17.5639V17.5577C26.0396 17.5577 26.1973 17.4031 26.2149 17.1136C26.2388 16.7494 26.2326 16.3925 25.7574 16.3053C25.7574 15.5728 25.7574 14.841 25.7574 14.1098C25.8476 14.1668 25.9539 14.193 26.0604 14.1845C26.1174 14.2613 26.1921 14.2478 26.2679 14.2281C26.7182 14.115 26.9215 13.7799 26.9122 13.1584C26.9122 12.4314 26.9122 11.7051 26.9122 10.9795C27.3915 10.827 27.7941 10.55 28.1749 10.2377Z" fill="#F5A96D"/>
<path d="M38.7124 15.4421C38.7124 15.0215 38.7124 14.6016 38.7124 14.1825C39.0994 14.2105 39.1274 13.894 39.1513 13.6554C39.1793 13.3576 39.06 13.092 38.7186 13.0079C38.6948 12.8533 38.7508 12.6967 38.675 12.5431C38.6678 12.4653 38.6564 12.3875 38.6543 12.3097C38.6408 11.6871 38.7217 11.6353 39.2768 11.9102C39.4694 11.9943 39.6393 12.1227 39.7727 12.285C39.9062 12.4473 39.9993 12.6388 40.0446 12.844L40.0508 14.3516C40.0176 14.7064 39.7759 14.9378 39.558 15.1816C39.2903 15.303 39.0392 15.4981 38.7124 15.4421Z" fill="#F5A96D"/>
<path d="M38.7228 13.0079C39.0642 13.092 39.1835 13.3576 39.1555 13.6554C39.1327 13.894 39.1036 14.2105 38.7166 14.1825C38.6987 14.1774 38.6802 14.175 38.6616 14.1752L38.671 13.0152C38.6885 13.0154 38.706 13.013 38.7228 13.0079Z" fill="#EB9C59"/>
<path d="M38.7227 13.0079C38.7059 13.0129 38.6884 13.0154 38.6709 13.0152C38.6331 12.8597 38.636 12.6971 38.6792 12.5431C38.7549 12.6925 38.7009 12.8533 38.7227 13.0079Z" fill="#FBBB85"/>
<path d="M29.7459 21.9807L30.218 22.2059C30.218 22.6209 30.1827 23.0421 30.2429 23.4592C30.4836 24.6006 31.3593 25.3549 32.4217 25.3362C33.534 25.3165 34.417 24.5144 34.5747 23.342C34.6245 22.9685 34.5934 22.5846 34.5996 22.2059C34.6967 22.1125 34.8196 22.0504 34.9523 22.0274C35.4302 22.0757 35.9007 22.1802 36.3541 22.3387C36.3707 23.2279 36.3842 24.1139 35.9702 24.9429C35.682 25.5319 35.2529 26.0405 34.7209 26.4238C34.189 26.807 33.5706 27.053 32.9207 27.1398C32.2708 27.2267 31.6096 27.1517 30.9957 26.9216C30.3817 26.6915 29.8341 26.3133 29.4014 25.8207C28.726 25.055 28.4676 24.116 28.4168 23.1158C28.4033 22.8543 28.4168 22.597 28.4168 22.3304L29.7459 21.9807Z" fill="#518DCA"/>
<path d="M15.7709 24.7085C16.2471 25.0119 16.7463 25.2777 17.2639 25.5033C17.2722 25.9256 17.2328 26.3489 17.3137 26.7681C17.3137 26.9112 17.3044 27.0555 17.3085 27.1997C17.3102 27.7776 17.5413 28.3311 17.9511 28.7386C18.3609 29.146 18.9158 29.374 19.4936 29.3723C20.0715 29.3707 20.6251 29.1395 21.0325 28.7297C21.44 28.32 21.6679 27.7651 21.6663 27.1872C21.6777 26.6508 21.6663 26.1144 21.6663 25.578L23.1386 24.7479C23.4115 25.0447 23.5961 25.3985 23.7881 25.7481C24.6036 27.7869 24.2934 29.6193 22.7505 31.2005C22.0118 31.9559 21.9931 31.9382 21.2513 31.2005C20.7231 30.6724 20.1909 30.1495 19.6711 29.613C19.5289 29.4657 19.4469 29.4699 19.3069 29.613C18.6563 30.2771 17.9788 30.9162 17.3448 31.5958C17.0969 31.8625 16.9371 31.8303 16.6735 31.6384C15.824 31.0229 15.2005 30.1451 14.8992 29.1403C14.5979 28.1355 14.6355 27.0594 15.0062 26.0781C15.0477 25.9681 15.085 25.8581 15.1245 25.7481C15.2587 25.5123 15.3918 25.2767 15.5239 25.0416C15.6567 24.9668 15.6941 24.8226 15.7709 24.7085Z" fill="#FEFEFE"/>
<path d="M15.5219 25.0374C15.3891 25.2732 15.2559 25.5088 15.1224 25.7439L13.6543 26.0334C14.0953 25.4109 14.1731 24.7282 13.9324 24.0123C13.8857 23.868 13.8722 23.7674 14.0237 23.6958C14.0237 23.8328 14.1368 23.8784 14.2177 23.9604C14.6182 24.363 15.1484 24.6078 15.5219 25.0374Z" fill="#93C6EB"/>
<path d="M11.9827 25.9785C11.8147 25.6776 11.9402 25.356 11.9039 25.0447V25.0343C12.1415 25.0478 12.2785 24.9389 12.2961 24.7003C12.3137 24.4616 12.2961 24.2157 11.9755 24.1721C11.9755 23.9646 11.989 23.7571 11.9755 23.5496C11.9485 23.2186 12.0969 23.1999 12.3459 23.3141C12.5515 23.3996 12.7254 23.5468 12.8439 23.7353C13.3762 24.61 12.9695 25.6849 11.9827 25.9785Z" fill="#F5A96D"/>
<path d="M15.5219 25.0374C15.1463 24.6079 14.6182 24.363 14.2177 23.9604C14.1368 23.8785 14.0247 23.8328 14.0237 23.6958L14.3401 23.2466C14.7561 23.7901 15.2365 24.281 15.7709 24.7085C15.6942 24.8226 15.6568 24.9669 15.5219 25.0374Z" fill="#A0DCF3"/>
<path d="M2.69767 25.0384V25.7315C2.61051 25.4202 2.65824 25.0965 2.35631 24.834C2.1488 24.6566 2.32726 24.3018 2.62193 24.1648C2.77652 24.448 2.65305 24.75 2.69767 25.0384Z" fill="#EB9C59"/>
<path d="M11.9725 24.168C12.2972 24.2115 12.3107 24.4471 12.2931 24.6961C12.2754 24.9451 12.1385 25.0437 11.9009 25.0302C11.9486 24.7449 11.8282 24.445 11.9725 24.168Z" fill="#EB9C59"/>
<path d="M23.1375 24.7479L21.6652 25.578H21.576C20.8975 25.6973 20.2407 25.9536 19.5341 25.8893C19.5227 25.7492 19.4034 25.7461 19.3089 25.7087C17.7678 25.1105 16.5223 23.9324 15.8393 22.4269C15.4677 21.6463 15.2765 20.792 15.2801 19.9274C15.2863 18.2673 15.2998 16.6021 15.2718 14.9399C15.2614 14.3672 15.4368 13.838 15.5032 13.285L15.8476 12.6884L15.9016 12.596H15.8964C16.2015 12.3989 16.3114 11.9828 16.7099 11.8884C17.8398 12.8222 19.1336 13.2113 20.5966 13.1667C22.0211 13.1242 23.4478 13.1563 24.8734 13.1553C24.8796 14.2893 24.8827 15.4234 24.8921 16.5574C24.8972 17.1955 25.1587 17.4996 25.7377 17.5566C25.7377 17.9758 25.7377 18.395 25.7377 18.8141C25.7231 19.2852 25.7522 19.7552 25.7055 20.2263C25.6017 21.2742 25.2313 22.2256 24.697 23.1221C24.247 23.7269 23.7231 24.2731 23.1375 24.7479ZM18.0369 20.7087C17.2411 20.7471 17.1529 20.8934 17.4797 21.6425C17.5072 21.7003 17.5381 21.7564 17.5721 21.8106C18.2444 22.8917 19.4397 23.2507 20.4772 22.6863C20.7017 22.5929 20.9053 22.4555 21.076 22.2823C21.2467 22.1091 21.381 21.9036 21.4712 21.6778C21.7721 20.9743 21.8271 20.6579 20.9037 20.7191C20.8902 20.7191 20.8777 20.7191 20.8642 20.7139L18.0369 20.7087ZM21.0292 16.7743V17.4829C21.0213 17.5866 21.0213 17.6906 21.0292 17.7942C21.0456 17.9037 21.0937 18.006 21.1674 18.0885C21.2411 18.1711 21.3373 18.2304 21.4442 18.259C21.6414 18.3265 21.823 18.2279 21.963 18.0806C22.1031 17.9332 22.0367 17.7382 22.0491 17.5618C22.0564 17.043 22.0689 16.5242 22.0668 16.0055C22.0668 15.6236 21.8707 15.3767 21.5656 15.3943C21.2149 15.4141 21.0292 15.6205 21.0365 15.9816L21.0292 16.7743ZM16.7804 17.4778C16.7735 17.5814 16.7735 17.6854 16.7804 17.789C16.7955 17.8982 16.8419 18.0007 16.9141 18.0839C16.9863 18.1672 17.0812 18.2277 17.1871 18.258C17.3832 18.3275 17.5648 18.23 17.7059 18.0837C17.847 17.9374 17.7817 17.7423 17.7972 17.5649C17.8076 17.0461 17.8284 16.5274 17.8232 16.0086C17.8232 15.6216 17.6157 15.3777 17.3158 15.3964C16.961 15.4182 16.7825 15.6309 16.7835 15.9889C16.7835 16.2514 16.7835 16.5128 16.7835 16.7753L16.7804 17.4778ZM20.3963 18.9169C20.2262 18.2072 20.1048 17.4892 19.8516 16.8054C19.825 16.7228 19.7693 16.6527 19.6949 16.6082C19.6204 16.5638 19.5322 16.5479 19.4469 16.5637C19.3491 16.5762 19.2578 16.6197 19.1865 16.6878C19.1152 16.756 19.0675 16.8452 19.0506 16.9424C18.9219 17.5379 18.7653 18.1273 18.6356 18.7228C18.588 18.8997 18.5938 19.0867 18.6523 19.2603C18.7109 19.4339 18.8195 19.5862 18.9645 19.6981C19.0819 19.8025 19.2281 19.869 19.384 19.889C19.5398 19.909 19.6981 19.8815 19.8381 19.8102C20.2241 19.6286 20.2749 19.2561 20.3973 18.9169H20.3963ZM21.5625 15.1267C21.823 15.1267 22.0813 15.1433 22.3459 15.1267C22.6634 15.1007 22.8512 14.9191 22.8346 14.5861C22.818 14.2748 22.6271 14.1109 22.3262 14.1057C21.8302 14.0974 21.3332 14.0995 20.8373 14.1057C20.5136 14.1057 20.3185 14.2727 20.3102 14.6058C20.3019 14.9389 20.499 15.109 20.8176 15.1246C21.0624 15.1391 21.3146 15.1267 21.5636 15.1267H21.5625ZM17.239 15.1267C17.487 15.1267 17.735 15.137 17.9829 15.1267C18.3036 15.1111 18.5017 14.9357 18.5017 14.6079C18.5017 14.28 18.3025 14.1067 17.9778 14.1015C17.4818 14.0932 16.9859 14.0943 16.4899 14.1015C16.161 14.1015 15.9784 14.2852 15.9773 14.6141C15.9763 14.943 16.1786 15.109 16.4961 15.1246C16.7431 15.137 16.9921 15.1277 17.2401 15.1267H17.239Z" fill="#FBBB85"/>
<path d="M24.7002 23.1293C25.2345 22.2328 25.6049 21.2814 25.7087 20.2335C25.7554 19.7624 25.7263 19.2924 25.7409 18.8213C26.0241 18.8213 26.3229 18.5443 26.5429 18.6802C26.7411 18.8037 26.794 19.1502 26.9309 19.3868C27.5851 20.5164 28.5667 21.4209 29.7458 21.9807L28.4147 22.3272L24.7002 23.1293Z" fill="#A0DCF3"/>
<path d="M6.71306 25.8073C6.75248 25.4576 6.90397 24.999 7.02432 24.5342C7.03626 24.4692 7.07281 24.4114 7.12636 24.3727C7.17991 24.3341 7.24631 24.3176 7.31173 24.3267C7.38472 24.3206 7.45751 24.3405 7.51729 24.3828C7.57707 24.4251 7.62001 24.4872 7.63856 24.558C7.75892 25.0104 7.88446 25.4638 7.96228 25.9245C8.03387 26.3395 7.70185 26.7452 7.32833 26.7618C6.93821 26.7805 6.70579 26.4703 6.71306 25.8073Z" fill="#F5A96D"/>
<path d="M8.04942 28.8058C7.24531 29.2001 6.37584 28.9428 5.92761 28.176C6.06665 28.0276 6.33122 28.0318 6.39555 27.7921L8.13346 27.8025C7.88964 27.9623 7.59393 27.7942 7.29719 27.9187C7.72985 28.1013 7.9301 28.4209 8.04942 28.8058Z" fill="#EF4140"/>
<path d="M5.37561 23.7809C5.35901 23.5112 5.53124 23.4417 5.75017 23.4531C5.79647 23.4522 5.84245 23.461 5.88514 23.479C5.92783 23.497 5.96629 23.5237 5.99805 23.5574C6.02981 23.5911 6.05416 23.6311 6.06954 23.6748C6.08493 23.7184 6.091 23.7649 6.08737 23.811C6.09464 24.1514 6.08737 24.4917 6.08737 24.832C6.08737 25.0852 5.95145 25.2398 5.71385 25.247C5.47625 25.2543 5.34344 25.0789 5.32062 24.8424C5.30817 24.7127 5.31439 24.5809 5.31128 24.4502C5.43164 24.4948 5.5935 24.5643 5.59453 24.3589C5.59557 24.1534 5.75847 23.8505 5.37561 23.7809Z" fill="#414345"/>
<path d="M8.45196 23.8639C8.46442 23.5993 8.59204 23.4385 8.86699 23.4572C9.14194 23.4758 9.2291 23.6709 9.22702 23.922C9.22702 24.2094 9.22702 24.4978 9.22702 24.7852C9.22702 25.0446 9.116 25.2397 8.85765 25.2501C8.57336 25.2615 8.44781 25.0612 8.44263 24.7852C8.44263 24.6815 8.44263 24.5777 8.44263 24.474C8.81304 24.5871 8.72899 24.3121 8.73729 24.1233C8.74559 23.9344 8.73314 23.7352 8.45196 23.8639Z" fill="#414345"/>
<path d="M8.04935 28.8058C7.93003 28.4208 7.72978 28.1013 7.29712 27.9187C7.59386 27.7941 7.88957 27.9622 8.13339 27.8024C8.35024 27.7402 8.35232 27.5669 8.3409 27.3874C8.96344 27.3636 9.05475 27.5016 8.77149 28.0764C8.63183 28.4022 8.37374 28.6629 8.04935 28.8058Z" fill="#DE2428"/>
<path d="M5.67343 22.2039C5.9832 22.1996 6.28604 22.2957 6.53668 22.4778C6.61657 22.5359 6.77635 22.5888 6.65081 22.7434C6.56469 22.8472 6.48895 22.9239 6.33124 22.8119C6.15067 22.6685 5.92686 22.5904 5.69625 22.5904C5.46565 22.5904 5.24184 22.6685 5.06127 22.8119C4.89837 22.9271 4.82989 22.842 4.75 22.7424C4.61615 22.5878 4.77801 22.5349 4.85998 22.4809C5.09792 22.3105 5.38091 22.2141 5.67343 22.2039Z" fill="#89412F"/>
<path d="M8.85046 22.2039C9.16452 22.2066 9.46923 22.3111 9.7189 22.5016C9.79879 22.5629 9.90566 22.6261 9.78738 22.7465C9.70853 22.8274 9.64627 22.9301 9.49998 22.8243C9.0725 22.513 8.62531 22.513 8.1968 22.8129C8.02872 22.9312 7.96439 22.8243 7.88553 22.732C7.76829 22.6012 7.9011 22.5483 7.97684 22.4944C8.23082 22.3092 8.53616 22.2076 8.85046 22.2039Z" fill="#89412F"/>
<path d="M8.34611 27.3916C8.35233 27.569 8.34611 27.7423 8.13859 27.8066L6.40068 27.7962C6.2492 27.6987 6.24609 27.5493 6.25646 27.3937L8.34611 27.3916Z" fill="#FEFEFE"/>
<path d="M6.25129 27.3916C6.24092 27.5473 6.24403 27.6967 6.39551 27.7942C6.33118 28.0339 6.06661 28.0297 5.92757 28.1781C5.88905 28.1275 5.85436 28.0741 5.82382 28.0183C5.60282 27.4736 5.67026 27.3678 6.25129 27.3916Z" fill="#DE2428"/>
<path d="M10.8082 26.6083C11.0355 26.5969 11.1195 26.712 11.1195 26.9196C11.1195 27.1271 11.0489 27.2474 10.8259 27.2308C10.78 27.2331 10.7342 27.2255 10.6915 27.2085C10.6488 27.1916 10.6103 27.1656 10.5785 27.1325C10.5467 27.0993 10.5225 27.0597 10.5073 27.0164C10.4922 26.973 10.4865 26.9269 10.4907 26.8812C10.4793 26.6571 10.6194 26.5938 10.8082 26.6083Z" fill="#F5A96D"/>
<path d="M4.43249 26.6083C4.67735 26.5906 4.75517 26.7203 4.74895 26.9434C4.74272 27.1323 4.66698 27.2402 4.46881 27.2339C4.42311 27.238 4.37708 27.2322 4.33381 27.217C4.29053 27.2018 4.25101 27.1775 4.21789 27.1457C4.18477 27.114 4.15883 27.0756 4.1418 27.033C4.12477 26.9904 4.11705 26.9446 4.11915 26.8988C4.10773 26.6778 4.22913 26.5948 4.43249 26.6083Z" fill="#F5A96D"/>
<path d="M8.45197 23.8639C8.73314 23.7404 8.75493 23.9179 8.7456 24.1212C8.73626 24.3246 8.82134 24.585 8.45093 24.4719C8.45093 24.2644 8.45197 24.061 8.45197 23.8639Z" fill="#FEFEFE"/>
<path d="M5.37561 23.7809C5.75847 23.8505 5.59868 24.1514 5.59868 24.3589C5.59868 24.5664 5.43579 24.4948 5.31543 24.4502C5.31543 24.2551 5.31543 24.06 5.31543 23.8639C5.35589 23.8473 5.39947 23.8328 5.38598 23.7737L5.37561 23.7809Z" fill="#FEFEFE"/>
<path d="M9.64935 26.2047C9.60777 26.1978 9.56908 26.179 9.53798 26.1505C9.50688 26.1221 9.4847 26.0852 9.47413 26.0444C9.46356 26.0036 9.46505 25.9606 9.47841 25.9206C9.49178 25.8807 9.51646 25.8454 9.54945 25.8192C9.58244 25.793 9.62233 25.7769 9.66429 25.7728C9.70625 25.7688 9.74847 25.7771 9.78584 25.7966C9.82321 25.8161 9.85412 25.846 9.87483 25.8827C9.89554 25.9194 9.90515 25.9613 9.90251 26.0034C9.89042 26.0612 9.85849 26.113 9.81226 26.1497C9.76603 26.1865 9.7084 26.2059 9.64935 26.2047Z" fill="#F5A96D"/>
<path d="M10.7709 25.524C10.7978 25.5247 10.8242 25.531 10.8484 25.5425C10.8727 25.5541 10.8942 25.5707 10.9115 25.5912C10.9289 25.6117 10.9417 25.6356 10.9491 25.6614C10.9565 25.6872 10.9584 25.7143 10.9546 25.7409C10.9546 25.8374 10.9224 25.9339 10.8197 25.9411C10.791 25.9436 10.7621 25.94 10.7349 25.9307C10.7076 25.9214 10.6826 25.9065 10.6614 25.887C10.6402 25.8675 10.6234 25.8437 10.6118 25.8173C10.6003 25.7909 10.5944 25.7624 10.5945 25.7336C10.5831 25.6278 10.6983 25.579 10.7709 25.524Z" fill="#F5A96D"/>
<path d="M5.44615 25.9391C5.44604 25.9852 5.42858 26.0295 5.39725 26.0634C5.36591 26.0972 5.323 26.118 5.27703 26.1217C5.25182 26.1236 5.2265 26.1202 5.20263 26.1119C5.17877 26.1035 5.15689 26.0904 5.13835 26.0732C5.11982 26.056 5.10503 26.0352 5.09492 26.012C5.08481 25.9888 5.07959 25.9638 5.07959 25.9385C5.07959 25.9133 5.08481 25.8882 5.09492 25.8651C5.10503 25.8419 5.11982 25.8211 5.13835 25.8039C5.15689 25.7867 5.17877 25.7735 5.20263 25.7652C5.2265 25.7568 5.25182 25.7535 5.27703 25.7554C5.32318 25.7591 5.36624 25.78 5.3976 25.8141C5.42896 25.8481 5.4463 25.8928 5.44615 25.9391Z" fill="#F5A96D"/>
<path d="M5.38183 23.7737C5.39532 23.8328 5.35174 23.8473 5.31128 23.8639L5.38183 23.7737Z" fill="#414345"/>
<path d="M25.7388 17.5639C25.1598 17.5069 24.8984 17.2029 24.8932 16.5648C24.8838 15.4307 24.8807 14.2967 24.8745 13.1626H25.7523C25.7523 13.4739 25.7523 13.7924 25.7523 14.1078C25.7523 14.8389 25.7523 15.5708 25.7523 16.3033C25.7474 16.7183 25.7416 17.1358 25.7346 17.5556L25.7388 17.5639Z" fill="#6F3524"/>
<path d="M26.9123 13.1584C26.9216 13.781 26.7182 14.1151 26.2679 14.2282C26.188 14.2479 26.1133 14.2614 26.0604 14.1846C26.0604 13.8505 26.0642 13.5168 26.0718 13.1833L26.9123 13.1584Z" fill="#FEFEFE"/>
<path d="M16.7109 11.8957C16.3166 11.9901 16.2025 12.4062 15.8975 12.6033C15.995 12.1676 16.1133 11.7339 16.0718 11.2794C16.328 11.4402 16.4972 11.6882 16.7109 11.8957Z" fill="#F5A96D"/>
<path d="M26.0677 13.1833C26.0635 13.5161 26.0597 13.8498 26.0563 14.1846C25.9499 14.1931 25.8436 14.1669 25.7533 14.1099C25.7533 13.7986 25.7533 13.4801 25.7533 13.1647L26.0677 13.1833Z" fill="#EB9C59"/>
<path d="M19.5352 25.8913C20.2418 25.9566 20.8985 25.7004 21.5771 25.58C20.8799 26.3769 19.9741 26.7462 18.9448 26.8365C18.4002 26.8683 17.8537 26.845 17.3138 26.767C17.2328 26.352 17.2723 25.9245 17.264 25.5022C18.0037 25.7315 18.7466 25.9483 19.5352 25.8913Z" fill="#EB9C59"/>
<path d="M13.1521 16.3862C13.1604 16.7764 13.1677 17.1665 13.176 17.5566C12.7609 17.5192 12.68 17.2453 12.6862 16.8936C12.6914 16.5803 12.8346 16.4059 13.1521 16.3862Z" fill="#EB9C59"/>
<path d="M15.9027 12.5981L15.8488 12.6905L15.9027 12.5981Z" fill="#F5A96D"/>
<path d="M28.1833 16.0615C27.2786 15.0094 27.2765 14.0113 28.176 12.9986C28.6087 12.6291 29.1637 12.4345 29.7324 12.4529C30.0895 12.5278 30.4343 12.6528 30.7565 12.8243C31.1455 13.1594 31.4537 13.5506 31.5585 14.0694C31.5958 14.252 31.7048 14.2956 31.8698 14.2769H32.9768C33.1439 14.3111 33.1926 14.2271 33.2279 14.0694C33.2945 13.6968 33.4863 13.3582 33.7716 13.1096C33.9604 12.9561 33.8961 12.7257 33.9978 12.5504C34.335 12.6998 34.6504 12.5981 34.9627 12.4643C36.4029 12.3958 37.2236 13.3669 37.29 14.4356C37.3439 15.3165 36.7463 16.1767 35.9069 16.4641C35.4824 16.6061 35.0235 16.608 34.5978 16.4696C34.1721 16.3312 33.8021 16.0597 33.5423 15.6952C33.4842 15.6112 33.4219 15.5282 33.3618 15.4452C33.321 15.3496 33.2911 15.2497 33.2725 15.1474C33.2466 14.7894 33.0422 14.7085 32.7206 14.7324C32.4473 14.75 32.1731 14.75 31.8998 14.7324C31.7141 14.7251 31.6021 14.7822 31.5699 14.9772C31.5481 15.1049 31.5066 15.2283 31.4734 15.3549C31.0677 16.0106 30.5562 16.4962 29.7293 16.5616C29.1358 16.6114 28.6367 16.4091 28.1833 16.0615ZM29.6878 13.4147C29.6743 12.8606 29.6649 12.8523 29.1358 12.9997C28.9254 13.0479 28.7292 13.1446 28.5628 13.2821C28.3963 13.4195 28.2643 13.5939 28.1771 13.7913C28.0309 14.0107 27.9529 14.2685 27.9529 14.5321C27.9529 14.7958 28.0309 15.0535 28.1771 15.2729C28.45 15.8644 28.9656 16.1206 29.5633 16.1186C30.2159 16.1186 30.7502 15.8021 31.0158 15.1692C31.2628 14.585 31.2234 14.0279 30.772 13.5371C30.6278 13.2725 30.3923 13.1356 30.1121 13.0401C30.0239 13.2373 30.1931 13.7239 29.6878 13.4147ZM34.9928 12.954C34.4585 12.9415 34.2717 13.4417 33.9127 13.6876C33.5537 14.1379 33.5848 14.6483 33.7706 15.1318C34.0756 15.9225 34.9274 16.2898 35.7347 16.0335C36.4734 15.799 36.9611 14.9866 36.8085 14.2447C36.6311 13.3773 35.8893 12.8502 34.9928 12.954Z" fill="#FEFEFE"/>
<path d="M34.6006 22.2039C34.5944 22.5826 34.6255 22.9665 34.5757 23.34C34.418 24.5124 33.5381 25.3113 32.4228 25.3342C31.3593 25.3529 30.4836 24.5985 30.2439 23.4572C30.9266 23.5029 31.6083 23.616 32.2931 23.4572C33.1314 23.2663 33.894 22.9436 34.472 22.2723L34.5467 22.2039H34.6006Z" fill="#F5A96D"/>
<path d="M30.5239 18.5143C30.3413 18.2124 30.0996 17.8762 30.2811 17.5442C30.4461 17.2422 30.8342 17.4165 31.1185 17.4114C32.1238 17.3927 33.1303 17.402 34.1357 17.4051C34.5507 17.4051 34.6545 17.5224 34.5403 17.9322C34.3639 18.5776 34.0039 19.0849 33.372 19.363C33.288 19.0766 33.1998 18.7924 32.9902 18.5641C32.3407 17.8544 31.4131 17.8336 30.5239 18.5143Z" fill="#DE2428"/>
<path d="M34.4677 22.2786C33.8929 22.9499 33.1303 23.2725 32.2888 23.4635C31.604 23.6181 30.9224 23.505 30.2397 23.4635C30.1795 23.0484 30.2158 22.6334 30.2148 22.2101C30.7574 22.3294 31.2897 22.4923 31.8458 22.5618C32.0649 22.5865 32.2853 22.5972 32.5057 22.594C33.1676 22.5245 33.8182 22.4051 34.4677 22.2786Z" fill="#EB9C59"/>
<path d="M30.524 18.5143C31.4132 17.8336 32.3408 17.8544 32.9903 18.5641C33.1978 18.7923 33.2881 19.0766 33.3722 19.363C32.8803 19.6197 32.3077 19.6746 31.776 19.5162C31.2443 19.3577 30.7952 18.9983 30.524 18.5143Z" fill="#EF4140"/>
<path d="M31.4734 15.3559C31.5066 15.2293 31.5481 15.1058 31.5699 14.9782C31.602 14.7832 31.7141 14.7261 31.8998 14.7334C32.1731 14.751 32.4472 14.751 32.7205 14.7334C33.0422 14.7053 33.2466 14.7863 33.2725 15.1484C33.2911 15.2507 33.321 15.3505 33.3617 15.4462C33.2321 15.58 33.285 15.7657 33.2258 15.9234C33.0463 16.3986 32.7527 16.6041 32.2713 16.546C31.8895 16.4972 31.5803 16.1237 31.5585 15.69C31.5522 15.5707 31.5927 15.4441 31.4734 15.3559Z" fill="#F5A96D"/>
<path d="M34.4823 11.8148C34.2468 11.8148 34.0092 11.8324 33.7757 11.8148C33.4582 11.7847 33.2155 11.6342 33.2155 11.2783C33.2155 10.9225 33.4614 10.7596 33.7768 10.7461C34.2613 10.7233 34.7469 10.7264 35.2294 10.7461C35.5593 10.7585 35.8021 11.0117 35.7751 11.3022C35.7461 11.6197 35.5406 11.795 35.2273 11.821C34.9814 11.8283 34.7313 11.8137 34.4823 11.8148Z" fill="#FEFEFE"/>
<path d="M30.1463 11.8148C29.9118 11.8148 29.6752 11.8324 29.4418 11.8148C29.1305 11.7847 28.8867 11.6488 28.8836 11.2846C28.8805 10.9204 29.1191 10.7658 29.4314 10.7471C29.9128 10.7222 30.3974 10.7254 30.884 10.7471C31.2067 10.7627 31.4277 10.9349 31.4142 11.295C31.4007 11.655 31.187 11.8044 30.8549 11.8138C30.6163 11.8283 30.3808 11.8158 30.1463 11.8148Z" fill="#FEFEFE"/>
<path d="M32.3283 8.83691C32.9426 8.83691 33.5568 8.83691 34.1711 8.83691C34.3495 8.83691 34.4761 8.8587 34.4709 9.08697C34.4657 9.29448 34.3454 9.31108 34.1866 9.31108C32.9312 9.31108 31.6761 9.31108 30.4213 9.31108C30.2584 9.31108 30.1464 9.28722 30.1422 9.08178C30.1422 8.8504 30.2719 8.83691 30.4462 8.83795C31.0729 8.83899 31.7006 8.83691 32.3283 8.83691Z" fill="#F5A96D"/>
<path d="M32.2827 10.2522H30.4379C30.2895 10.2522 30.138 10.2626 30.1474 10.0447C30.1546 9.84654 30.2958 9.8621 30.4265 9.8621H34.1939C34.3308 9.8621 34.4636 9.8621 34.4657 10.0541C34.4657 10.2771 34.3101 10.2616 34.1659 10.2616L32.2827 10.2522Z" fill="#F5A96D"/>
<path d="M32.9768 14.2675H31.8697C31.8647 14.0094 31.9138 13.7532 32.014 13.5153C32.0835 13.3316 32.2152 13.204 32.429 13.2403C32.6427 13.2766 32.7942 13.3441 32.8264 13.5879C32.8554 13.8193 32.9249 14.0424 32.9768 14.2675Z" fill="#F5A96D"/>
<path d="M30.7584 12.8243C30.4363 12.6528 30.0915 12.5277 29.7344 12.4528C29.8153 12.153 30.0249 12.0129 30.3154 12.071C30.719 12.153 30.7688 12.4798 30.7584 12.8243Z" fill="#414345"/>
<path d="M34.9658 12.4591C34.6545 12.593 34.3381 12.6946 34.0009 12.5452C34.006 12.289 34.1233 12.1136 34.3484 12.0742C34.6545 12.0192 34.8703 12.1489 34.9658 12.4591Z" fill="#414345"/>
<path d="M34.5404 22.2131L34.4657 22.2816L34.5404 22.2131Z" fill="#EB9C59"/>
<path d="M25.7314 17.5576C25.7377 17.1426 25.7435 16.7252 25.7491 16.3053C26.2243 16.3925 26.2305 16.7494 26.2066 17.1136C26.1921 17.403 26.0344 17.5618 25.7314 17.5576Z" fill="#EB9C59"/>
<path d="M17.3138 26.7691C17.8538 26.8472 18.4002 26.8705 18.9449 26.8386C19.9741 26.7484 20.8799 26.379 21.5772 25.5822H21.6664C21.6664 26.1186 21.6788 26.655 21.6664 27.1914C21.668 27.7693 21.4401 28.3241 21.0326 28.7339C20.6252 29.1437 20.0716 29.3749 19.4937 29.3765C18.9159 29.3782 18.361 29.1502 17.9512 28.7427C17.5414 28.3353 17.3103 27.7817 17.3086 27.2039C17.3045 27.0555 17.3117 26.9113 17.3138 26.7691Z" fill="#F5A96D"/>
<path d="M20.3974 18.9169C20.275 19.2561 20.2241 19.6286 19.8382 19.8102C19.6982 19.8815 19.5399 19.909 19.3841 19.889C19.2282 19.869 19.082 19.8025 18.9645 19.6981C18.8195 19.5862 18.7109 19.4339 18.6524 19.2603C18.5939 19.0867 18.588 18.8997 18.6356 18.7228C18.7664 18.1273 18.923 17.5379 19.0507 16.9424C19.0676 16.8452 19.1152 16.756 19.1865 16.6878C19.2579 16.6197 19.3491 16.5762 19.447 16.5637C19.5323 16.5479 19.6204 16.5638 19.6949 16.6083C19.7694 16.6528 19.8251 16.7228 19.8516 16.8054C20.1058 17.4892 20.2324 18.2072 20.3974 18.9169Z" fill="#F5A96D"/>
<path d="M20.4815 22.6822C19.4439 23.2466 18.2455 22.8897 17.5763 21.8065L18.425 21.3458H19.2229C19.5247 21.4509 19.7968 21.6272 20.0159 21.8599C20.235 22.0925 20.3947 22.3746 20.4815 22.6822Z" fill="#EF4140"/>
<path d="M21.5636 15.1266C21.3146 15.1266 21.0656 15.1391 20.8186 15.1266C20.5001 15.1069 20.2998 14.9388 20.3113 14.6078C20.3227 14.2768 20.5188 14.1119 20.8383 14.1077C21.3343 14.1025 21.8313 14.1005 22.3272 14.1077C22.6333 14.1129 22.819 14.2758 22.8356 14.5881C22.8522 14.9212 22.6644 15.1069 22.3469 15.1287C22.0865 15.1484 21.824 15.1266 21.5636 15.1266Z" fill="#89412F"/>
<path d="M17.2401 15.1267C16.9922 15.1267 16.7431 15.137 16.4962 15.1267C16.1777 15.1111 15.9774 14.9503 15.9774 14.6162C15.9774 14.2821 16.1611 14.1078 16.49 14.1036C16.9859 14.0964 17.4819 14.0953 17.9778 14.1036C18.3026 14.1088 18.4966 14.2842 18.5018 14.61C18.507 14.9357 18.3057 15.1111 17.983 15.1287C17.7361 15.137 17.4881 15.1267 17.2401 15.1267Z" fill="#89412F"/>
<path d="M20.4814 22.6821C20.3943 22.3742 20.2341 22.0919 20.0145 21.8592C19.7948 21.6265 19.5221 21.4504 19.2197 21.3457C19.5538 21.3457 19.8879 21.3333 20.223 21.3312C20.8342 21.3312 20.8601 21.3053 20.8684 20.7087C20.8819 20.7087 20.8943 20.7139 20.9078 20.7139C21.8313 20.6526 21.7763 20.9691 21.4754 21.6726C21.3853 21.8986 21.251 22.1043 21.0803 22.2777C20.9096 22.451 20.706 22.5885 20.4814 22.6821Z" fill="#DE2428"/>
<path d="M16.7856 15.9847C16.7856 15.6267 16.9631 15.414 17.3179 15.3922C17.6188 15.3736 17.8222 15.6174 17.8253 16.0044C17.8253 16.5232 17.8097 17.042 17.7993 17.5607C17.3916 17.983 17.1187 17.9592 16.7815 17.4736V16.767C17.0367 16.9195 17.1695 16.8562 17.1664 16.5502C17.1664 16.4339 17.1664 16.3167 17.1664 16.2005C17.1737 15.9006 17.044 15.8311 16.7856 15.9847Z" fill="#414345"/>
<path d="M21.0303 15.9785C21.023 15.6175 21.2087 15.411 21.5594 15.3913C21.8645 15.3736 22.0585 15.6206 22.0606 16.0024C22.0606 16.5212 22.0502 17.0399 22.0429 17.5587C21.6404 17.9831 21.3696 17.9623 21.0261 17.4809C21.0261 17.2443 21.0261 17.0081 21.0261 16.7723C21.2803 16.9196 21.4142 16.8553 21.4111 16.5513C21.4111 16.4361 21.4111 16.3199 21.4111 16.2037C21.4183 15.9049 21.2886 15.8343 21.0303 15.9785Z" fill="#414345"/>
<path d="M20.8684 20.7097C20.8601 21.3053 20.8342 21.3323 20.2231 21.3323C19.8879 21.3323 19.5539 21.3416 19.2198 21.3468H18.4219C18.0151 21.3022 18.0286 21.0054 18.038 20.7097H20.8684Z" fill="#FEFEFE"/>
<path d="M18.038 20.7087C18.0287 21.0044 18.0152 21.3012 18.4219 21.3458L17.5732 21.8065C17.5392 21.7523 17.5083 21.6962 17.4808 21.6384C17.154 20.8934 17.2422 20.7513 18.038 20.7087Z" fill="#DE2428"/>
<path d="M21.0261 17.4829C21.3696 17.9643 21.6404 17.9851 22.0429 17.5607C22.0305 17.735 22.1 17.927 21.9568 18.0795C21.8136 18.232 21.6341 18.3254 21.438 18.258C21.3311 18.2293 21.2349 18.17 21.1612 18.0875C21.0875 18.0049 21.0394 17.9026 21.023 17.7931C21.0162 17.6898 21.0172 17.5861 21.0261 17.4829Z" fill="#F5A96D"/>
<path d="M16.7815 17.4778C17.1187 17.9634 17.3916 17.9872 17.7994 17.5649C17.7838 17.7392 17.8543 17.9312 17.708 18.0837C17.5618 18.2362 17.3833 18.3275 17.1893 18.258C17.0833 18.2277 16.9885 18.1672 16.9163 18.0839C16.844 18.0007 16.7976 17.8982 16.7825 17.7891C16.7753 17.6854 16.775 17.5814 16.7815 17.4778Z" fill="#F5A96D"/>
<path d="M16.7857 15.9847C17.0441 15.8311 17.1738 15.9007 17.1696 16.2047C17.1696 16.3209 17.1696 16.4381 17.1696 16.5543C17.1696 16.8604 17.0399 16.9237 16.7847 16.7712C16.7857 16.5087 16.7857 16.2472 16.7857 15.9847Z" fill="#FEFEFE"/>
<path d="M21.0303 15.9784C21.2886 15.8321 21.4183 15.9027 21.4152 16.2036C21.4152 16.3198 21.4152 16.436 21.4152 16.5512C21.4152 16.8552 21.2845 16.9195 21.0303 16.7722V15.9784Z" fill="#FEFEFE"/>
<path d="M34.9927 12.954C35.8892 12.8502 36.631 13.3773 36.8085 14.2447C36.961 14.9866 36.4733 15.8011 35.7346 16.0335C34.9274 16.2898 34.0745 15.9225 33.7705 15.1318C33.5848 14.6483 33.5536 14.1379 33.9126 13.6876C33.9126 13.8214 33.922 13.9542 33.9272 14.0881C33.9147 14.2171 33.9147 14.3471 33.9272 14.4761C33.977 14.7251 34.1347 14.9171 34.3868 14.9451C34.49 14.9623 34.5959 14.9461 34.6892 14.8989C34.7826 14.8517 34.8584 14.7759 34.9056 14.6826C35.0012 14.4963 35.0336 14.284 34.9979 14.0777C34.9979 13.7028 34.9962 13.3282 34.9927 12.954Z" fill="#FBBB85"/>
<path d="M28.177 13.7871C28.2642 13.5897 28.3963 13.4153 28.5627 13.2779C28.7291 13.1405 28.9253 13.0438 29.1357 12.9955C29.6649 12.8523 29.6742 12.8606 29.6877 13.4105C29.6877 13.6325 29.6877 13.8546 29.6877 14.0756C29.6711 14.641 29.8661 14.9606 30.2272 14.9596C30.5883 14.9585 30.7854 14.6359 30.7668 14.0808C30.7719 13.8971 30.7761 13.7124 30.7813 13.5288C31.2326 14.0175 31.272 14.5767 31.0251 15.1609C30.7574 15.7938 30.2231 16.1082 29.5725 16.1102C28.9749 16.1102 28.4592 15.856 28.1863 15.2646C28.174 15.0979 28.1778 14.9305 28.1978 14.7645C28.261 14.4377 28.3088 14.1109 28.177 13.7871Z" fill="#FBBB85"/>
<path d="M33.9282 14.088C33.923 13.9542 33.9178 13.8214 33.9137 13.6875C34.2727 13.4416 34.4595 12.9415 34.9938 12.954C34.9979 13.3289 35.0024 13.7034 35.0073 14.0776C34.8942 14.3038 34.7749 14.5113 34.4709 14.5134C34.1669 14.5155 34.0413 14.3184 33.9282 14.088Z" fill="#414345"/>
<path d="M29.6836 14.0798C29.6836 13.8588 29.6836 13.6368 29.6836 13.4147C30.1847 13.726 30.0198 13.2373 30.1131 13.036C30.3933 13.1315 30.6319 13.2684 30.773 13.533C30.7678 13.7166 30.7637 13.9013 30.7585 14.085C30.6454 14.3122 30.5199 14.5145 30.2169 14.5135C29.9139 14.5125 29.7957 14.3081 29.6836 14.0798Z" fill="#414345"/>
<path d="M28.177 13.7871C28.3088 14.1129 28.2611 14.4377 28.1916 14.7686C28.1717 14.9346 28.1678 15.1021 28.1802 15.2687C28.0335 15.0496 27.955 14.792 27.9545 14.5284C27.9539 14.2648 28.0314 14.0068 28.177 13.7871Z" fill="#F5A96D"/>
<path d="M33.9283 14.088C34.0424 14.3152 34.168 14.5165 34.4709 14.5134C34.7739 14.5103 34.8942 14.3059 35.0073 14.0776C35.043 14.2839 35.0106 14.4963 34.915 14.6825C34.8678 14.7759 34.792 14.8517 34.6987 14.8989C34.6053 14.9461 34.4994 14.9623 34.3962 14.945C34.1451 14.917 33.9864 14.7251 33.9366 14.4761C33.9213 14.3473 33.9186 14.2173 33.9283 14.088Z" fill="#F5A96D"/>
<path d="M29.6836 14.0797C29.7956 14.308 29.917 14.5124 30.221 14.5134C30.5251 14.5145 30.6496 14.3121 30.7627 14.0849C30.7813 14.64 30.5832 14.9637 30.2231 14.9637C29.8631 14.9637 29.667 14.6452 29.6836 14.0797Z" fill="#F5A96D"/>
</g>
</svg>
