<svg width="26" height="25" viewBox="0 0 26 25" fill="none" xmlns="http://www.w3.org/2000/svg">
<path d="M13.2309 0.16626C16.482 0.16626 19.5999 1.45775 21.8988 3.75661C24.1976 6.05548 25.4891 9.1734 25.4891 12.4245C25.4891 15.6756 24.1976 18.7935 21.8988 21.0924C19.5999 23.3912 16.482 24.6827 13.2309 24.6827C9.9798 24.6827 6.86187 23.3912 4.56301 21.0924C2.26414 18.7935 0.972656 15.6756 0.972656 12.4245C0.972656 9.1734 2.26414 6.05548 4.56301 3.75661C6.86187 1.45775 9.9798 0.16626 13.2309 0.16626ZM13.2309 10.9377L10.3835 8.09033C10.1863 7.89317 9.91892 7.78241 9.6401 7.78241C9.36128 7.78241 9.09388 7.89317 8.89673 8.09033C8.69957 8.28749 8.58881 8.55488 8.58881 8.8337C8.58881 9.11252 8.69957 9.37992 8.89673 9.57708L11.7441 12.4245L8.89673 15.2719C8.7991 15.3695 8.72167 15.4854 8.66884 15.613C8.616 15.7405 8.58881 15.8772 8.58881 16.0153C8.58881 16.1533 8.616 16.29 8.66884 16.4176C8.72167 16.5451 8.7991 16.661 8.89673 16.7586C8.99435 16.8563 9.11024 16.9337 9.23779 16.9865C9.36534 17.0394 9.50204 17.0666 9.6401 17.0666C9.77816 17.0666 9.91486 17.0394 10.0424 16.9865C10.17 16.9337 10.2859 16.8563 10.3835 16.7586L13.2309 13.9112L16.0783 16.7586C16.1759 16.8563 16.2918 16.9337 16.4194 16.9865C16.5469 17.0394 16.6836 17.0666 16.8217 17.0666C16.9597 17.0666 17.0964 17.0394 17.224 16.9865C17.3515 16.9337 17.4674 16.8563 17.565 16.7586C17.6627 16.661 17.7401 16.5451 17.7929 16.4176C17.8458 16.29 17.873 16.1533 17.873 16.0153C17.873 15.8772 17.8458 15.7405 17.7929 15.613C17.7401 15.4854 17.6627 15.3695 17.565 15.2719L14.7176 12.4245L17.565 9.57708C17.6627 9.47946 17.7401 9.36356 17.7929 9.23602C17.8458 9.10847 17.873 8.97176 17.873 8.8337C17.873 8.69565 17.8458 8.55894 17.7929 8.43139C17.7401 8.30384 17.6627 8.18795 17.565 8.09033C17.4674 7.99271 17.3515 7.91527 17.224 7.86244C17.0964 7.80961 16.9597 7.78241 16.8217 7.78241C16.6836 7.78241 16.5469 7.80961 16.4194 7.86244C16.2918 7.91527 16.1759 7.99271 16.0783 8.09033L13.2309 10.9377Z" fill="#FF7B71"/>
</svg>
