<svg width="41" height="40" viewBox="0 0 41 40" fill="none" xmlns="http://www.w3.org/2000/svg">
<path d="M20.102 40C31.2041 40 40.2041 31.0457 40.2041 20C40.2041 8.95431 31.2041 0 20.102 0C8.99999 0 0 8.95431 0 20C0 31.0457 8.99999 40 20.102 40Z" fill="#34B6B3"/>
<path d="M20.102 40C31.2041 40 40.2041 31.0457 40.2041 20C40.2041 8.95431 31.2041 0 20.102 0C8.99999 0 0 8.95431 0 20C0 31.0457 8.99999 40 20.102 40Z" fill="#177CFD"/>
<path d="M33.2097 24.5964C33.6651 24.5964 34.1151 24.5964 34.5677 24.6101C35.3073 24.6274 35.8984 25.1833 35.9112 25.915C35.9276 26.9338 35.9112 27.9535 35.9057 28.9723L31.5584 28.9796C31.4218 28.9796 31.2851 28.9723 31.1503 28.9723H9.06108C8.92537 28.9723 8.78784 28.9769 8.65304 28.9796L4.30568 28.9723C4.30568 28.8593 4.29475 28.7463 4.29475 28.6324C4.29475 22.149 4.29172 15.6654 4.28564 9.18139C4.28564 8.84604 4.37035 8.74489 4.6946 8.78316C4.94387 8.79913 5.19383 8.80095 5.4433 8.78863C6.50258 8.78863 7.01902 9.31261 7.02084 10.3843C7.02084 10.7588 7.02813 11.1333 7.03177 11.5079C7.03177 14.0558 7.03177 16.6034 7.03177 19.1507C7.03177 20.8329 7.03815 22.5151 7.01264 24.1964C7.00627 24.5609 7.12468 24.6155 7.45075 24.6146C15.936 24.6067 24.4209 24.6043 32.9055 24.6073C33.0057 24.6073 33.1077 24.6 33.2097 24.5964Z" fill="#F15F43"/>
<path d="M33.2173 24.4722C33.1158 24.4722 33.0142 24.4828 32.9127 24.4828C24.4679 24.4828 16.0235 24.4851 7.57932 24.4898C7.2548 24.4898 7.13696 24.4377 7.14331 24.0843C7.16869 22.4543 7.15962 20.8234 7.16234 19.1926L10.2688 19.1837L13.6609 19.2023C13.6609 20.1679 13.6672 21.1344 13.6609 22.1009C13.6609 22.2847 13.6863 22.3766 13.9129 22.373C14.9155 22.358 15.918 22.3607 16.9206 22.3571C16.9659 22.3571 17.0112 22.3677 17.0557 22.3677C21.7996 22.3677 26.5435 22.3698 31.2874 22.3739C31.5403 22.3739 31.5775 22.2856 31.5756 22.0691C31.5675 21.1123 31.5757 20.1546 31.5802 19.197C32.0334 19.197 32.4812 19.189 32.9317 19.197C33.1102 19.1957 33.2872 19.2291 33.4522 19.2954C33.6172 19.3616 33.767 19.4593 33.8927 19.5828C34.0184 19.7062 34.1176 19.8529 34.1844 20.0142C34.2511 20.1756 34.2842 20.3482 34.2815 20.5222C34.2915 21.3235 34.2815 22.1248 34.2815 22.9261C34.2842 23.7892 34.0277 24.1621 33.2173 24.4722Z" fill="#FAC852"/>
<path d="M31.6328 19.0798C31.6328 20.0954 31.6201 21.1111 31.6283 22.1258C31.6283 22.3553 31.5929 22.449 31.3394 22.449C26.5838 22.4409 21.8287 22.4387 17.0743 22.4425C17.0289 22.4425 16.9835 22.435 16.939 22.4312C16.939 20.9409 16.9411 19.4502 16.9453 17.9592C21.5828 17.9592 26.2206 17.9592 30.8587 17.9592C31.3503 17.9592 31.6129 18.2319 31.6238 18.7322C31.6265 18.8465 31.6292 18.9636 31.6328 19.0798Z" fill="#7FD1E6"/>
<path d="M10.2062 19.1746L7.14307 19.1837C7.14307 16.623 7.14307 14.0613 7.14307 11.4988C7.43534 10.6796 7.82057 10.4139 8.70098 10.4084C9.18274 10.4084 9.65825 10.3891 10.0524 10.7575C10.3715 11.0562 10.4779 11.442 10.527 11.857C10.67 13.0409 10.8059 14.2257 10.9462 15.4104C11.0186 16.0198 11.074 16.6318 11.1741 17.2366C11.344 18.2573 11.1017 18.7668 10.2062 19.1746Z" fill="#80D2E6"/>
<path d="M16.9386 17.9668C16.9386 19.4555 16.9365 20.944 16.9323 22.4322C15.9303 22.4322 14.9283 22.4322 13.9264 22.449C13.6999 22.449 13.6736 22.3555 13.6745 22.1609C13.6809 21.1374 13.6745 20.1139 13.6745 19.0913C13.6745 18.8106 13.689 18.53 13.6745 18.2549C13.6618 18.021 13.7515 17.9574 13.968 17.9593C14.9582 17.9696 15.9484 17.9658 16.9386 17.9668Z" fill="#E5F4F9"/>
<path d="M4.30443 28.9796L8.77544 28.9869C8.61432 29.4584 8.4607 29.9335 8.28928 30.4014C8.10188 30.9423 7.74334 31.4118 7.26488 31.7428C6.78643 32.0738 6.21254 32.2494 5.62522 32.2445C5.25053 32.2445 4.87584 32.2373 4.50114 32.2445C4.33253 32.25 4.28382 32.1963 4.2857 32.0334C4.29975 31.0203 4.30068 30 4.30443 28.9796Z" fill="#9A4837"/>
<path d="M31.6328 28.9869L35.906 28.9796C35.9102 29.9968 35.9138 31.0146 35.9167 32.033C35.9167 32.1301 35.9445 32.2463 35.7807 32.2399C35.094 32.21 34.3957 32.3352 33.726 32.0793C33.3514 31.9453 33.0115 31.7274 32.7314 31.4419C32.4513 31.1564 32.2383 30.8105 32.1082 30.4301C31.9354 29.9544 31.7895 29.4679 31.6328 28.9869Z" fill="#9A4837"/>
<path d="M29.95 5.83497C29.5359 6.06306 29.0518 6.2239 28.7256 6.53651C28.3994 6.84911 28.2415 7.30438 27.9758 7.75511C27.7243 7.32529 27.5626 6.86274 27.2421 6.55286C26.9216 6.24299 26.43 6.07124 25.9185 5.7859C26.9244 5.44331 27.6203 4.85445 27.9673 3.87756C28.3559 4.81446 28.9771 5.47329 30.0001 5.74319L29.95 5.83497Z" fill="#FAC955"/>
<path d="M17.815 9.99999C17.5172 9.50367 17.3485 9.0458 17.0243 8.73549C16.7001 8.42518 16.2308 8.27941 15.7144 8.0004C16.751 7.67847 17.4107 7.065 17.7783 6.12244C18.1458 7.0641 18.7998 7.68294 19.796 8.02902C18.7961 8.37242 18.1486 8.99751 17.815 9.99999Z" fill="#FAC955"/>
<path d="M24.4704 12.0408C24.5908 12.2284 24.6994 12.4231 24.7957 12.6238C24.9963 13.1239 25.3582 13.4452 25.8512 13.6582C26.0298 13.7358 26.3322 13.7927 26.3267 13.9786C26.3221 14.1465 26.0262 14.2242 25.8429 14.2964C25.5992 14.3906 25.3781 14.534 25.1939 14.7175C25.0098 14.9009 24.8667 15.1202 24.7737 15.3614C24.6957 15.5689 24.5753 15.7585 24.42 15.9183C24.1122 14.9706 23.5038 14.3261 22.4492 14.0166C22.9531 13.7295 23.4186 13.5653 23.7319 13.2575C24.0453 12.9497 24.2157 12.4803 24.4704 12.0408Z" fill="#FAC955"/>
</svg>
