<svg width="36" height="36" viewBox="0 0 36 36" fill="none" xmlns="http://www.w3.org/2000/svg">
<circle cx="18" cy="18" r="18" fill="white"/>
<path d="M21.9548 26.9879H21.0405C21.0163 26.9732 20.9902 26.9621 20.9629 26.9548C19.9853 26.8344 19.126 26.4498 18.4202 25.7632C17.195 24.5705 16.7698 23.1264 17.1235 21.4546C17.1703 21.2345 17.2484 21.021 17.3139 20.7982L14.4817 19.0565C14.4355 19.0983 14.397 19.1324 14.3591 19.1665C13.486 19.9917 12.4539 20.3686 11.2601 20.1986C9.79895 19.9901 8.79165 19.1731 8.24591 17.8049C8.13038 17.5167 8.08087 17.1998 8 16.8994V16.0929C8.05501 15.8503 8.09792 15.6022 8.17384 15.3651C8.35383 14.7877 8.67159 14.2628 9.09971 13.8356C9.52784 13.4084 10.0535 13.0918 10.6312 12.9131C11.209 12.7344 11.8216 12.699 12.4161 12.8099C13.0107 12.9208 13.5693 13.1746 14.0438 13.5496C14.3095 13.7559 14.5346 14.0145 14.7882 14.2582C14.7777 14.2582 14.7882 14.2582 14.8003 14.2582C16.0153 13.6981 17.2308 13.1383 18.4466 12.5786C18.5319 12.5395 18.5357 12.4922 18.5352 12.4037C18.5352 12.0609 18.4978 11.7066 18.5687 11.376C18.9054 9.80206 20.333 8.82116 21.9345 9.03241C23.7549 9.27282 24.9476 11.2005 24.3479 12.9334C23.5893 15.1274 20.8788 15.7062 19.2971 14.0084C19.2151 13.9209 19.1552 13.9028 19.0446 13.9534C17.879 14.4958 16.7116 15.0341 15.5424 15.5681C15.4192 15.6231 15.4076 15.6929 15.4214 15.8129C15.4544 16.0962 15.5017 16.3845 15.4813 16.6661C15.4549 17.0353 15.3713 17.4 15.3053 17.7923C15.3268 17.806 15.3779 17.8429 15.4318 17.8759L17.8684 19.3734C18.1165 19.5258 18.1099 19.5197 18.3184 19.3184C19.614 18.08 21.139 17.6784 22.8472 18.2054C23.9545 18.5384 24.8878 19.2912 25.4476 20.303C26.0074 21.3148 26.1494 22.5054 25.8432 23.6205C25.3657 25.3985 24.1658 26.4757 22.3773 26.9042C22.2392 26.9389 22.0962 26.9603 21.9548 26.9879Z" fill="#0770E3"/>
</svg>
