<svg width="58" height="18" viewBox="0 0 58 18" fill="none" xmlns="http://www.w3.org/2000/svg">
<rect width="58" height="18" rx="7" fill="white"/>
<path d="M47.5534 4.88763C47.738 4.52062 48.262 4.52062 48.4466 4.88763L49.5706 7.12125C49.6468 7.27273 49.7946 7.37526 49.9632 7.39358L52.5491 7.67463C52.9858 7.72209 53.1534 8.2691 52.8184 8.55311L50.9679 10.1218C50.8271 10.2412 50.7635 10.4286 50.8026 10.6091L51.3027 12.916C51.3921 13.3287 50.9614 13.6595 50.5858 13.4668L48.2283 12.2571C48.085 12.1836 47.915 12.1836 47.7717 12.2571L45.4142 13.4668C45.0386 13.6595 44.6079 13.3287 44.6973 12.916L45.1974 10.6091C45.2365 10.4286 45.1729 10.2412 45.0321 10.1218L43.1816 8.55311C42.8466 8.2691 43.0142 7.72209 43.4509 7.67463L46.0368 7.39358C46.2054 7.37526 46.3532 7.27274 46.4294 7.12125L47.5534 4.88763Z" fill="#FFC444"/>
<path d="M34.5534 4.88763C34.738 4.52062 35.262 4.52062 35.4466 4.88763L36.5706 7.12125C36.6468 7.27273 36.7946 7.37526 36.9632 7.39358L39.5491 7.67463C39.9858 7.72209 40.1534 8.2691 39.8184 8.55311L37.9679 10.1218C37.8271 10.2412 37.7635 10.4286 37.8026 10.6091L38.3027 12.916C38.3921 13.3287 37.9614 13.6595 37.5858 13.4668L35.2283 12.2571C35.085 12.1836 34.915 12.1836 34.7717 12.2571L32.4142 13.4668C32.0386 13.6595 31.6079 13.3287 31.6973 12.916L32.1974 10.6091C32.2365 10.4286 32.1729 10.2412 32.0321 10.1218L30.1816 8.55311C29.8466 8.2691 30.0142 7.72209 30.4509 7.67463L33.0368 7.39358C33.2054 7.37526 33.3532 7.27274 33.4294 7.12125L34.5534 4.88763Z" fill="#FFC444"/>
<path d="M22.5534 4.88763C22.738 4.52062 23.262 4.52062 23.4466 4.88763L24.5706 7.12125C24.6468 7.27273 24.7946 7.37526 24.9632 7.39358L27.5491 7.67463C27.9858 7.72209 28.1534 8.2691 27.8184 8.55311L25.9679 10.1218C25.8271 10.2412 25.7635 10.4286 25.8026 10.6091L26.3027 12.916C26.3921 13.3287 25.9614 13.6595 25.5858 13.4668L23.2283 12.2571C23.085 12.1836 22.915 12.1836 22.7717 12.2571L20.4142 13.4668C20.0386 13.6595 19.6079 13.3287 19.6973 12.916L20.1974 10.6091C20.2365 10.4286 20.1729 10.2412 20.0321 10.1218L18.1816 8.55311C17.8466 8.2691 18.0142 7.72209 18.4509 7.67463L21.0368 7.39358C21.2054 7.37526 21.3532 7.27274 21.4294 7.12125L22.5534 4.88763Z" fill="#FFC444"/>
<path d="M9.55336 4.88763C9.73803 4.52062 10.262 4.52062 10.4466 4.88763L11.5706 7.12125C11.6468 7.27273 11.7946 7.37526 11.9632 7.39358L14.5491 7.67463C14.9858 7.72209 15.1534 8.2691 14.8184 8.55311L12.9679 10.1218C12.8271 10.2412 12.7635 10.4286 12.8026 10.6091L13.3027 12.916C13.3921 13.3287 12.9614 13.6595 12.5858 13.4668L10.2283 12.2571C10.085 12.1836 9.91503 12.1836 9.77174 12.2571L7.41425 13.4668C7.03858 13.6595 6.60788 13.3287 6.69733 12.916L7.19739 10.6091C7.23651 10.4286 7.17294 10.2412 7.03205 10.1218L5.18159 8.55311C4.84656 8.2691 5.01424 7.72209 5.45088 7.67463L8.03681 7.39358C8.20539 7.37526 8.3532 7.27274 8.42942 7.12125L9.55336 4.88763Z" fill="#FFC444"/>
</svg>
