<svg width="226" height="48" viewBox="0 0 226 48" fill="none" xmlns="http://www.w3.org/2000/svg">
<path d="M224.729 32.0742C224.028 32.0742 223.459 32.6427 223.459 33.3426C223.459 34.0425 224.028 34.611 224.729 34.611C225.43 34.611 226 34.0425 226 33.3426C226 32.6427 225.43 32.0742 224.729 32.0742ZM224.729 34.4098C224.138 34.4098 223.66 33.9298 223.66 33.3426C223.66 32.7526 224.141 32.2753 224.729 32.2753C225.32 32.2753 225.801 32.7554 225.801 33.3426C225.801 33.9298 225.32 34.4098 224.729 34.4098ZM225.143 33.1254C225.143 32.8947 224.979 32.758 224.737 32.758H224.332V33.9137H224.53V33.4954H224.748L224.957 33.9137H225.172L224.941 33.4526C225.065 33.3962 225.143 33.2835 225.143 33.1254ZM224.729 33.3158H224.533V32.9324H224.729C224.863 32.9324 224.944 32.9994 224.944 33.1227C224.944 33.2487 224.861 33.3158 224.729 33.3158ZM71.6587 19.2375V16.1698H66.9479V34.4205H71.6587V23.4771C71.6587 21.4954 72.9318 20.522 74.9166 20.522H77.495V16.1699H75.2926C73.5684 16.1698 72.0697 17.0681 71.6587 19.2375ZM81.9077 8.95105C80.2963 8.95105 79.0608 10.2221 79.0608 11.8311C79.0608 13.4025 80.2963 14.6735 81.9077 14.6735C83.5192 14.6735 84.7547 13.4025 84.7547 11.8311C84.7546 10.2221 83.5192 8.95105 81.9077 8.95105ZM79.5576 34.4206H84.2578V16.1698H79.5576V34.4206ZM106.646 25.2952C106.646 30.5054 102.416 34.729 97.1978 34.729C95.0921 34.729 93.1825 34.0398 91.6516 32.876V39.7784H86.9515V16.1698H91.6516V17.7143C93.1825 16.5506 95.0921 15.8614 97.1978 15.8614C102.416 15.8614 106.646 20.0849 106.646 25.2952ZM101.917 25.2952C101.917 22.4661 99.6177 20.1707 96.7842 20.1707C93.9507 20.1707 91.6517 22.4661 91.6517 25.2952C91.6517 28.1243 93.9507 30.4197 96.7842 30.4197C99.6177 30.4197 101.917 28.1269 101.917 25.2952ZM188.337 23.6943L185.595 22.9435C183.79 22.4741 183.089 21.9218 183.089 20.9698C183.089 20.042 184.077 19.393 185.49 19.393C186.836 19.393 187.891 20.2726 187.891 21.3988V21.5034H192.223V21.3988C192.223 18.087 189.519 15.8613 185.49 15.8613C181.502 15.8613 178.604 18.0844 178.604 21.1494C178.604 23.5333 180.186 25.3299 182.947 26.0754L185.573 26.7914C187.569 27.3438 188.31 27.9553 188.31 29.052C188.31 30.2078 187.239 30.9854 185.643 30.9854C183.981 30.9854 182.861 29.9342 182.861 28.3736V28.269H178.263V28.3736C178.263 32.1171 181.281 34.7342 185.606 34.7342C189.771 34.7342 192.795 32.1787 192.795 28.6605C192.795 26.9336 192.022 24.6758 188.337 23.6943ZM123.32 16.1698H128.02V34.4205H123.32V32.8759C121.789 34.0398 119.879 34.7289 117.774 34.7289C112.555 34.7289 108.325 30.5054 108.325 25.2951C108.325 20.0848 112.555 15.8613 117.774 15.8613C119.879 15.8613 121.789 16.5505 123.32 17.7143V16.1698ZM123.32 25.2952C123.32 22.4634 121.021 20.1707 118.187 20.1707C115.354 20.1707 113.055 22.4661 113.055 25.2952C113.055 28.1243 115.354 30.4197 118.187 30.4197C121.023 30.4197 123.32 28.1269 123.32 25.2952ZM144.991 9.67506H149.691V34.4232H144.991V32.8786C143.46 34.0424 141.551 34.7316 139.445 34.7316C134.227 34.7316 129.996 30.5081 129.996 25.2978C129.996 20.0875 134.227 15.864 139.445 15.864C141.551 15.864 143.46 16.5532 144.991 17.717V9.67506ZM144.991 25.2952C144.991 22.4661 142.692 20.1707 139.859 20.1707C137.025 20.1707 134.726 22.4661 134.726 25.2952C134.726 28.1243 137.022 30.4197 139.859 30.4197C142.692 30.4197 144.991 28.1269 144.991 25.2952ZM171.513 34.4206H176.213V16.1698H171.513V34.4206ZM173.863 8.95105C172.252 8.95105 171.016 10.2221 171.016 11.8311C171.016 13.4025 172.252 14.6735 173.863 14.6735C175.475 14.6735 176.71 13.4025 176.71 11.8311C176.71 10.2221 175.475 8.95105 173.863 8.95105ZM213.111 25.2952C213.111 30.5054 208.88 34.729 203.662 34.729C198.444 34.729 194.213 30.5055 194.213 25.2952C194.213 20.0848 198.443 15.8614 203.662 15.8614C208.88 15.8614 213.111 20.0849 213.111 25.2952ZM208.795 25.2952C208.795 22.4661 206.495 20.1707 203.662 20.1707C200.828 20.1707 198.53 22.4661 198.53 25.2952C198.53 28.1243 200.826 30.4197 203.662 30.4197C206.495 30.4197 208.795 28.1269 208.795 25.2952ZM69.2523 9.67506H51.2227V13.861H57.8969V34.4205H62.5808V13.861H69.255V9.67506H69.2523ZM160.432 29.4221L156.25 16.1699H151.313L157.585 34.4206H163.241L169.55 16.1699H164.613L160.432 29.4221ZM219.997 19.2375V16.1698H215.286V34.4205H219.997V23.4771C219.997 21.4954 221.27 20.522 223.255 20.522H225.833V16.1699H223.631C221.906 16.1698 220.41 17.0681 219.997 19.2375Z" fill="black"/>
<path d="M24.0377 48C37.3133 48 48.0754 37.2548 48.0754 24C48.0754 10.7452 37.3133 0 24.0377 0C10.762 0 0 10.7452 0 24C0 37.2548 10.762 48 24.0377 48Z" fill="#34E0A1"/>
<path d="M38.8846 19.318L41.7853 16.1671H35.3528C32.1326 13.9709 28.2436 12.6918 24.0376 12.6918C19.837 12.6918 15.9588 13.9736 12.7439 16.1671H6.29541L9.19605 19.318C7.4181 20.9376 6.3035 23.2706 6.3035 25.861C6.3035 30.7495 10.2731 34.7128 15.1693 34.7128C17.4952 34.7128 19.6142 33.8172 21.1962 32.353L24.0377 35.4422L26.8793 32.3557C28.4612 33.8199 30.5775 34.7128 32.9034 34.7128C37.7996 34.7128 41.7746 30.7495 41.7746 25.861C41.7772 23.2679 40.6626 20.935 38.8846 19.318ZM15.1719 31.8516C11.8576 31.8516 9.17193 29.1701 9.17193 25.861C9.17193 22.5519 11.8577 19.8704 15.1719 19.8704C18.4861 19.8704 21.1719 22.5519 21.1719 25.861C21.1719 29.1701 18.4861 31.8516 15.1719 31.8516ZM24.0403 25.6867C24.0403 21.7448 21.1693 18.3606 17.3796 16.9153C19.4289 16.0598 21.6768 15.5852 24.0376 15.5852C26.3984 15.5852 28.6491 16.0598 30.6984 16.9153C26.9115 18.3633 24.0403 21.7448 24.0403 25.6867ZM32.9061 31.8516C29.5918 31.8516 26.9061 29.1701 26.9061 25.861C26.9061 22.5519 29.5918 19.8704 32.9061 19.8704C36.2204 19.8704 38.9061 22.5519 38.9061 25.861C38.9061 29.1701 36.2204 31.8516 32.9061 31.8516ZM32.9061 22.7181C31.1684 22.7181 29.761 24.1233 29.761 25.8583C29.761 27.5933 31.1684 28.9984 32.9061 28.9984C34.6438 28.9984 36.0512 27.5933 36.0512 25.8583C36.0511 24.126 34.6438 22.7181 32.9061 22.7181ZM18.3169 25.861C18.3169 27.5959 16.9096 29.0011 15.1719 29.0011C13.4343 29.0011 12.0269 27.5959 12.0269 25.861C12.0269 24.126 13.4343 22.7208 15.1719 22.7208C16.9096 22.7181 18.3169 24.126 18.3169 25.861Z" fill="black"/>
</svg>
