<svg width="30" height="30" viewBox="0 0 30 30" fill="none" xmlns="http://www.w3.org/2000/svg">
<path d="M15 30C23.2843 30 30 23.2843 30 15C30 6.71573 23.2843 0 15 0C6.71573 0 0 6.71573 0 15C0 23.2843 6.71573 30 15 30Z" fill="black"/>
<path d="M23.9997 15C23.9997 15.3073 23.9848 15.6144 23.9538 15.9202C23.9228 16.2202 23.8777 16.5184 23.8167 16.8138C23.7567 17.1068 23.6827 17.3943 23.5947 17.6763C23.5077 17.9581 23.4067 18.2338 23.2927 18.5032C23.1787 18.7724 23.0527 19.0346 22.9137 19.2899C22.7747 19.545 22.6248 19.7923 22.4628 20.032C22.3008 20.2714 22.1278 20.5023 21.9448 20.7248C21.7608 20.9471 21.5678 21.1601 21.3638 21.364C21.1598 21.5675 20.9468 21.7612 20.7248 21.9448C20.5028 22.1283 20.2718 22.301 20.0318 22.4629C19.7928 22.6247 19.5448 22.7749 19.2898 22.9137C19.0348 23.0523 18.7727 23.1786 18.5027 23.2927C18.2337 23.4066 17.9577 23.5075 17.6757 23.5954C17.3947 23.683 17.1067 23.757 16.8137 23.8172C16.5177 23.8776 16.2198 23.9231 15.9198 23.9535C15.3078 24.0155 14.6917 24.0155 14.0797 23.9535C13.7797 23.9231 13.4817 23.8776 13.1857 23.8172C12.8927 23.7572 12.6058 23.6833 12.3238 23.5954C12.0417 23.5077 11.7657 23.4068 11.4967 23.2927C11.2277 23.1789 10.9648 23.0525 10.7098 22.9137C10.4548 22.7752 10.2077 22.6249 9.96775 22.4629C9.72875 22.3012 9.49774 22.1285 9.27474 21.9448C9.05274 21.7614 8.83975 21.5678 8.63575 21.364C8.43175 21.1604 8.23874 20.9473 8.05474 20.7248C7.87174 20.5026 7.69875 20.2716 7.53675 20.032C7.37475 19.7926 7.22474 19.5452 7.08574 19.2899C6.94774 19.0349 6.82075 18.7726 6.70675 18.5032C6.59275 18.234 6.49274 17.9584 6.40474 17.6763C6.31674 17.3945 6.24274 17.107 6.18274 16.8138C6.12174 16.5184 6.07675 16.2202 6.04575 15.9202C5.98475 15.3083 5.98475 14.6917 6.04575 14.0798C6.07675 13.7798 6.12174 13.4816 6.18274 13.1862C6.24274 12.8932 6.31674 12.6057 6.40474 12.3237C6.49174 12.0419 6.59275 11.7662 6.70675 11.4968C6.82075 11.2276 6.94674 10.9654 7.08574 10.7101C7.22474 10.455 7.37475 10.2077 7.53675 9.968C7.69875 9.7286 7.87074 9.4977 8.05474 9.2752C8.23874 9.0529 8.43175 8.8399 8.63575 8.636C8.83975 8.4325 9.05274 8.2388 9.27474 8.0552C9.49674 7.8717 9.72775 7.699 9.96775 7.5371C10.2067 7.3753 10.4548 7.2251 10.7098 7.0863C10.9648 6.9477 11.2267 6.8214 11.4967 6.7073C11.7657 6.5934 12.0417 6.4925 12.3238 6.4046C12.6048 6.317 12.8927 6.243 13.1857 6.1829C13.4817 6.1224 13.7797 6.0769 14.0797 6.0465C14.6917 5.9845 15.3078 5.9845 15.9198 6.0465C16.2198 6.0769 16.5177 6.1224 16.8137 6.1829C17.1067 6.2428 17.3937 6.3167 17.6757 6.4046C17.9577 6.4923 18.2337 6.5932 18.5027 6.7073C18.7717 6.8211 19.0348 6.9475 19.2898 7.0863C19.5448 7.2248 19.7918 7.3751 20.0318 7.5371C20.2708 7.6988 20.5018 7.8715 20.7248 8.0552C20.9468 8.2386 21.1598 8.4322 21.3638 8.636C21.5678 8.8396 21.7608 9.0527 21.9448 9.2752C22.1278 9.4974 22.3008 9.7284 22.4628 9.968C22.6248 10.2074 22.7747 10.4548 22.9137 10.7101C23.0517 10.9651 23.1787 11.2274 23.2927 11.4968C23.4067 11.766 23.5067 12.0416 23.5947 12.3237C23.6827 12.6055 23.7567 12.893 23.8167 13.1862C23.8777 13.4816 23.9228 13.7798 23.9538 14.0798C23.9848 14.3856 23.9997 14.6927 23.9997 15Z" fill="#D9270B"/>
<path d="M16.299 22.7354C15.985 22.7354 15.674 22.7202 15.368 22.6898C15.062 22.6596 14.76 22.615 14.464 22.556C14.167 22.4971 13.876 22.4246 13.591 22.3383C13.306 22.2523 13.027 22.1533 12.754 22.0413C12.482 21.9296 12.217 21.8056 11.958 21.6694C11.7 21.5334 11.45 21.386 11.207 21.227C10.965 21.0683 10.732 20.8988 10.506 20.7186C10.282 20.5386 10.066 20.3486 9.86 20.1486C9.654 19.9488 9.458 19.7397 9.272 19.5214C9.086 19.3033 8.912 19.0766 8.748 18.8414C8.584 18.6065 8.43201 18.3638 8.29201 18.1132C8.15101 17.8629 8.024 17.6056 7.908 17.3412C7.435 16.2568 7.19199 15.0864 7.19299 13.9034C7.19299 13.7456 7.197 13.5888 7.205 13.4331C7.214 13.2773 7.226 13.1227 7.243 12.9692C7.26 12.8157 7.27999 12.6634 7.30499 12.5123C7.32999 12.3613 7.35801 12.2115 7.39101 12.0631C7.42301 11.9147 7.45899 11.7677 7.49899 11.6222C7.53899 11.4766 7.583 11.3326 7.63 11.1901C7.678 11.0476 7.729 10.9068 7.783 10.7675C7.838 10.6283 7.896 10.4908 7.957 10.355C8.019 10.2193 8.08399 10.0854 8.15199 9.95328C8.21999 9.82118 8.292 9.69107 8.366 9.56277C8.441 9.43467 8.51901 9.30848 8.60001 9.18438C8.68101 9.06028 8.765 8.93828 8.853 8.81848C8.94 8.69858 9.03 8.58108 9.123 8.46568C9.216 8.35038 9.312 8.23738 9.411 8.12678C9.509 8.01618 9.611 7.90798 9.715 7.80218C9.819 7.69648 9.926 7.59338 10.035 7.49268C9.883 7.59338 9.735 7.69857 9.589 7.80807C9.444 7.91757 9.302 8.03137 9.164 8.14927C9.026 8.26717 8.89099 8.38917 8.75999 8.51517C8.62899 8.64107 8.502 8.77088 8.379 8.90458C8.256 9.03818 8.137 9.17538 8.022 9.31638C7.907 9.45718 7.796 9.60157 7.69 9.74937C7.584 9.89717 7.482 10.0483 7.384 10.2026C7.287 10.3569 7.194 10.5143 7.106 10.6748C7.018 10.8352 6.934 10.9986 6.856 11.1648C6.778 11.331 6.704 11.5 6.636 11.6716C6.567 11.8432 6.504 12.0173 6.446 12.194C6.388 12.3706 6.336 12.5495 6.289 12.7308C6.241 12.912 6.2 13.0954 6.164 13.2809C6.128 13.4664 6.09801 13.6539 6.07401 13.8433C6.04901 14.0326 6.031 14.2237 6.019 14.4167C6.006 14.6095 6 14.8039 6 15C6 15.3073 6.01501 15.6144 6.04601 15.9202C6.07701 16.2201 6.122 16.5184 6.183 16.8138C6.243 17.1067 6.317 17.3942 6.405 17.6763C6.492 17.9581 6.593 18.2337 6.707 18.5032C6.821 18.7724 6.947 19.0346 7.086 19.2899C7.225 19.545 7.375 19.7923 7.537 20.032C7.699 20.2714 7.87199 20.5023 8.05499 20.7248C8.23899 20.9471 8.432 21.1601 8.636 21.3639C8.84 21.5675 9.05299 21.7611 9.27499 21.9448C9.49699 22.1282 9.728 22.3009 9.968 22.4629C10.207 22.6246 10.455 22.7749 10.71 22.9137C10.965 23.0523 11.227 23.1786 11.497 23.2927C11.766 23.4066 12.042 23.5074 12.324 23.5953C12.605 23.683 12.893 23.7569 13.186 23.8171C13.482 23.8775 13.78 23.9231 14.08 23.9535C14.386 23.9845 14.693 24 15 24C15.166 24 15.331 23.9955 15.494 23.9866C15.658 23.9778 15.82 23.9646 15.982 23.947C16.143 23.9296 16.303 23.9078 16.461 23.8819C16.62 23.856 16.777 23.826 16.933 23.7919C17.088 23.7579 17.242 23.7198 17.395 23.6778C17.547 23.6358 17.698 23.5899 17.847 23.5402C17.996 23.4904 18.144 23.437 18.289 23.3797C18.435 23.3226 18.579 23.2617 18.72 23.1972C18.862 23.1328 19.002 23.0648 19.14 22.9933C19.277 22.9218 19.413 22.847 19.546 22.7687C19.68 22.6904 19.811 22.6088 19.94 22.524C20.069 22.4392 20.195 22.3511 20.32 22.26C20.444 22.1688 20.565 22.0746 20.685 21.9773C20.804 21.88 20.921 21.7798 21.035 21.6766C21.149 21.5735 21.26 21.4675 21.369 21.3587C21.477 21.25 21.583 21.1385 21.686 21.0242C21.592 21.0914 21.496 21.1569 21.399 21.2207C21.302 21.2844 21.204 21.3463 21.104 21.4065C21.004 21.4667 20.904 21.525 20.801 21.5815C20.699 21.638 20.596 21.6926 20.491 21.7453C20.387 21.798 20.281 21.8488 20.174 21.8976C20.067 21.9465 19.959 21.9934 19.85 22.0382C19.741 22.0831 19.631 22.126 19.519 22.1668C19.408 22.2077 19.296 22.2464 19.183 22.2831C19.069 22.3198 18.955 22.3543 18.84 22.3868C18.725 22.4192 18.609 22.4494 18.492 22.4775C18.374 22.5056 18.257 22.5315 18.138 22.5551C18.019 22.5788 17.899 22.6001 17.779 22.6193C17.659 22.6384 17.537 22.6552 17.415 22.6696C17.293 22.6841 17.171 22.6962 17.047 22.706C16.924 22.7157 16.8 22.7231 16.675 22.728C16.55 22.7329 16.425 22.7354 16.299 22.7354Z" fill="#C81D1A"/>
<path d="M22.336 10.5738C22.336 10.5489 22.335 10.5242 22.335 10.4995C22.334 10.4749 22.333 10.4503 22.332 10.4258C22.331 10.4013 22.329 10.3768 22.327 10.3525C22.326 10.3282 22.323 10.3039 22.321 10.2797C22.319 10.2556 22.316 10.2315 22.313 10.2075C22.31 10.1835 22.307 10.1596 22.303 10.1358C22.299 10.112 22.296 10.0882 22.291 10.0646C22.287 10.041 22.283 10.0175 22.278 9.99405C22.273 9.97055 22.268 9.94725 22.263 9.92405C22.258 9.90085 22.252 9.87775 22.246 9.85475C22.241 9.83175 22.234 9.80885 22.228 9.78605C22.222 9.76325 22.215 9.74055 22.208 9.71805C22.201 9.69545 22.194 9.67305 22.187 9.65075C22.179 9.62835 22.172 9.60615 22.164 9.58415C22.156 9.56205 22.148 9.54005 22.139 9.51825C22.131 9.49645 22.122 9.47475 22.113 9.45315C22.084 9.41595 22.055 9.37905 22.025 9.34245C21.995 9.30575 21.966 9.26935 21.935 9.23315C21.905 9.19695 21.875 9.16095 21.844 9.12525C21.813 9.08955 21.782 9.05405 21.751 9.01885C21.72 8.98365 21.688 8.94865 21.656 8.91395C21.625 8.87915 21.592 8.84475 21.56 8.81045C21.528 8.77625 21.495 8.74225 21.462 8.70855C21.429 8.67485 21.396 8.64135 21.363 8.60815C21.33 8.57495 21.296 8.54205 21.262 8.50935C21.228 8.47665 21.194 8.44425 21.159 8.41215C21.125 8.37995 21.09 8.34805 21.056 8.31645C21.021 8.28485 20.985 8.25345 20.95 8.22235C20.915 8.19125 20.879 8.16045 20.843 8.12995C20.807 8.09945 20.771 8.06915 20.735 8.03915C20.698 8.00915 20.662 7.97945 20.625 7.95005C20.588 7.92065 20.551 7.89145 20.514 7.86265C20.492 7.85385 20.471 7.84545 20.449 7.83715C20.428 7.82895 20.406 7.82095 20.384 7.81325C20.362 7.80555 20.341 7.79805 20.319 7.79085C20.296 7.78355 20.274 7.77665 20.252 7.76985C20.23 7.76315 20.207 7.75675 20.185 7.75055C20.162 7.74435 20.14 7.73835 20.117 7.73275C20.094 7.72705 20.072 7.72165 20.049 7.71645C20.026 7.71135 20.003 7.70645 19.98 7.70185C19.956 7.69725 19.933 7.69295 19.91 7.68895C19.887 7.68485 19.863 7.68105 19.84 7.67755C19.816 7.67405 19.793 7.67085 19.769 7.66795C19.745 7.66505 19.722 7.66235 19.698 7.66005C19.674 7.65765 19.65 7.65555 19.626 7.65385C19.602 7.65205 19.578 7.65055 19.554 7.64935C19.529 7.64815 19.505 7.64725 19.481 7.64665C19.457 7.64605 19.432 7.64575 19.408 7.64575C19.308 7.64575 19.208 7.65075 19.108 7.66085C19.011 7.67075 18.914 7.68555 18.818 7.70525C18.722 7.72475 18.629 7.74875 18.537 7.77735C18.445 7.80585 18.356 7.83875 18.268 7.87585C18.18 7.91285 18.095 7.95395 18.012 7.99915C17.929 8.04425 17.849 8.09305 17.771 8.14575C17.693 8.19845 17.618 8.25455 17.545 8.31435C17.473 8.37405 17.404 8.43705 17.337 8.50335C17.271 8.56955 17.208 8.63885 17.148 8.71125C17.089 8.78355 17.032 8.85865 16.98 8.93665C16.927 9.01455 16.878 9.09505 16.833 9.17805C16.788 9.26105 16.747 9.34635 16.71 9.43405C16.673 9.52155 16.64 9.61125 16.611 9.70305C16.583 9.79465 16.559 9.88825 16.539 9.98365C16.52 10.0798 16.505 10.1768 16.495 10.2744C16.475 10.4734 16.475 10.674 16.495 10.8731C16.505 10.9707 16.52 11.0677 16.539 11.1638C16.559 11.2591 16.583 11.3527 16.611 11.4444C16.64 11.5361 16.673 11.6258 16.71 11.7135C16.747 11.801 16.788 11.8863 16.833 11.9694C16.878 12.0524 16.927 12.1328 16.98 12.2108C17.032 12.2887 17.089 12.3638 17.148 12.4362C17.208 12.5085 17.271 12.5778 17.337 12.6441C17.404 12.7104 17.473 12.7734 17.545 12.8331C17.618 12.8928 17.693 12.949 17.771 13.0017C17.849 13.0543 17.929 13.1032 18.012 13.1483C18.095 13.1934 18.18 13.2345 18.268 13.2716C18.356 13.3087 18.445 13.3415 18.537 13.3701C18.629 13.3986 18.722 13.4226 18.818 13.4422C18.914 13.4619 19.011 13.4767 19.108 13.4866C19.307 13.5068 19.508 13.5068 19.707 13.4866C19.805 13.4767 19.902 13.4619 19.998 13.4422C20.093 13.4227 20.187 13.3987 20.278 13.3701C20.37 13.3416 20.46 13.3087 20.547 13.2716C20.635 13.2346 20.72 13.1935 20.803 13.1483C20.886 13.1032 20.967 13.0544 21.045 13.0017C21.123 12.949 21.198 12.8929 21.27 12.8331C21.342 12.7734 21.412 12.7104 21.478 12.6441C21.544 12.5779 21.607 12.5086 21.667 12.4362C21.727 12.3639 21.783 12.2888 21.836 12.2108C21.888 12.1329 21.937 12.0525 21.982 11.9694C22.027 11.8864 22.068 11.8011 22.106 11.7135C22.143 11.6259 22.175 11.5362 22.204 11.4444C22.233 11.3528 22.257 11.2592 22.276 11.1638C22.296 11.0677 22.311 10.9707 22.321 10.8731C22.331 10.7737 22.336 10.6737 22.336 10.5738Z" fill="white"/>
<path d="M21.6731 9.58134C21.6731 9.62444 21.6711 9.66744 21.6671 9.71024C21.6621 9.75234 21.6561 9.79404 21.6481 9.83544C21.6391 9.87654 21.6291 9.91684 21.6171 9.95634C21.6041 9.99584 21.5901 10.0344 21.5741 10.0721C21.5581 10.1099 21.5401 10.1466 21.5211 10.1824C21.5021 10.2181 21.4811 10.2528 21.4581 10.2864C21.4351 10.3199 21.4111 10.3523 21.3851 10.3834C21.3601 10.4146 21.3321 10.4444 21.3041 10.473C21.2751 10.5015 21.2451 10.5286 21.2141 10.5544C21.1831 10.5801 21.1511 10.6043 21.1171 10.627C21.0841 10.6496 21.0491 10.6707 21.0131 10.6901C20.9781 10.7096 20.9411 10.7273 20.9031 10.7432C20.8651 10.7592 20.8271 10.7733 20.7871 10.7856C20.7481 10.7979 20.7071 10.8083 20.6661 10.8167C20.6251 10.8252 20.5831 10.8316 20.5411 10.8358C20.4551 10.8445 20.3691 10.8445 20.2831 10.8358C20.2411 10.8316 20.1991 10.8252 20.1581 10.8167C20.1171 10.8083 20.0771 10.798 20.0371 10.7856C19.9981 10.7734 19.9591 10.7592 19.9211 10.7432C19.8841 10.7273 19.8471 10.7096 19.8111 10.6901C19.7751 10.6707 19.7411 10.6497 19.7071 10.627C19.6741 10.6043 19.6411 10.5801 19.6101 10.5544C19.5791 10.5287 19.5491 10.5015 19.5201 10.473C19.4921 10.4445 19.4651 10.4146 19.4391 10.3834C19.4131 10.3523 19.3891 10.3199 19.3661 10.2864C19.3441 10.2528 19.3231 10.2182 19.3031 10.1824C19.2841 10.1466 19.2661 10.1099 19.2501 10.0721C19.2341 10.0344 19.2201 9.99584 19.2081 9.95634C19.1961 9.91684 19.1851 9.87654 19.1771 9.83544C19.1681 9.79404 19.1621 9.75234 19.1581 9.71024C19.1491 9.62454 19.1491 9.53814 19.1581 9.45244C19.1621 9.41034 19.1681 9.36854 19.1771 9.32724C19.1851 9.28614 19.1951 9.24584 19.2081 9.20634C19.2201 9.16684 19.2341 9.12824 19.2501 9.09044C19.2661 9.05274 19.2841 9.01604 19.3031 8.98024C19.3231 8.94454 19.3441 8.90984 19.3661 8.87624C19.3891 8.84274 19.4131 8.81034 19.4391 8.77924C19.4651 8.74804 19.4921 8.71824 19.5201 8.68964C19.5491 8.66114 19.5791 8.63404 19.6101 8.60824C19.6411 8.58254 19.6741 8.55834 19.7071 8.53564C19.7411 8.51304 19.7751 8.49194 19.8111 8.47254C19.8471 8.45304 19.8841 8.43534 19.9211 8.41934C19.9591 8.40344 19.9981 8.38934 20.0371 8.37694C20.0771 8.36474 20.1171 8.35434 20.1581 8.34594C20.1991 8.33744 20.2411 8.33104 20.2831 8.32684C20.3691 8.31814 20.4551 8.31814 20.5411 8.32684C20.5831 8.33104 20.6251 8.33744 20.6661 8.34594C20.7071 8.35434 20.7481 8.36464 20.7871 8.37694C20.8271 8.38924 20.8651 8.40344 20.9031 8.41934C20.9411 8.43534 20.9771 8.45304 21.0131 8.47254C21.0491 8.49194 21.0841 8.51294 21.1171 8.53564C21.1511 8.55834 21.1831 8.58254 21.2141 8.60824C21.2451 8.63394 21.2751 8.66104 21.3041 8.68964C21.3321 8.71814 21.3601 8.74804 21.3851 8.77924C21.4111 8.81034 21.4351 8.84274 21.4581 8.87624C21.4801 8.90984 21.5021 8.94444 21.5211 8.98024C21.5401 9.01594 21.5581 9.05274 21.5741 9.09044C21.5901 9.12824 21.6041 9.16684 21.6171 9.20634C21.6291 9.24584 21.6391 9.28614 21.6481 9.32724C21.6561 9.36854 21.6621 9.41034 21.6671 9.45244C21.6711 9.49524 21.6731 9.53824 21.6731 9.58134Z" fill="#65140C"/>
<path d="M21.2518 9.57154C21.2518 9.60024 21.2498 9.62884 21.2478 9.65744C21.2448 9.68544 21.2398 9.71324 21.2348 9.74084C21.2288 9.76814 21.2218 9.79494 21.2138 9.82124C21.2058 9.84754 21.1968 9.87334 21.1858 9.89844C21.1748 9.92354 21.1628 9.94804 21.1508 9.97184C21.1378 9.99564 21.1238 10.0187 21.1078 10.0411C21.0928 10.0634 21.0768 10.0849 21.0598 10.1057C21.0428 10.1264 21.0248 10.1463 21.0058 10.1653C20.9868 10.1843 20.9668 10.2024 20.9458 10.2195C20.9258 10.2367 20.9038 10.2528 20.8818 10.2679C20.8588 10.283 20.8358 10.297 20.8118 10.31C20.7888 10.3229 20.7638 10.3347 20.7388 10.3453C20.7138 10.3559 20.6878 10.3654 20.6618 10.3736C20.6358 10.3817 20.6088 10.3886 20.5808 10.3943C20.5538 10.3999 20.5258 10.4041 20.4978 10.407C20.4408 10.4128 20.3828 10.4128 20.3258 10.407C20.2978 10.4041 20.2698 10.3999 20.2428 10.3943C20.2148 10.3887 20.1888 10.3818 20.1618 10.3736C20.1358 10.3654 20.1098 10.356 20.0848 10.3453C20.0598 10.3347 20.0358 10.3229 20.0118 10.31C19.9878 10.297 19.9648 10.283 19.9428 10.2679C19.9198 10.2528 19.8988 10.2367 19.8778 10.2195C19.8568 10.2024 19.8368 10.1844 19.8178 10.1653C19.7988 10.1463 19.7808 10.1265 19.7638 10.1057C19.7468 10.085 19.7308 10.0634 19.7158 10.0411C19.7008 10.0187 19.6868 9.99564 19.6738 9.97184C19.6608 9.94804 19.6488 9.92354 19.6378 9.89844C19.6278 9.87334 19.6178 9.84764 19.6098 9.82124C19.6018 9.79494 19.5948 9.76814 19.5888 9.74084C19.5838 9.71324 19.5788 9.68544 19.5768 9.65744C19.5708 9.60034 19.5708 9.54274 19.5768 9.48564C19.5788 9.45764 19.5838 9.42984 19.5888 9.40234C19.5948 9.37494 19.6018 9.34814 19.6098 9.32184C19.6178 9.29554 19.6278 9.26984 19.6378 9.24464C19.6488 9.21954 19.6608 9.19504 19.6738 9.17124C19.6868 9.14744 19.7008 9.12434 19.7158 9.10204C19.7308 9.07964 19.7468 9.05814 19.7638 9.03734C19.7808 9.01664 19.7988 8.99674 19.8178 8.97774C19.8368 8.95874 19.8568 8.94064 19.8778 8.92354C19.8988 8.90634 19.9198 8.89024 19.9428 8.87514C19.9648 8.86004 19.9878 8.84604 20.0118 8.83314C20.0358 8.82014 20.0598 8.80834 20.0848 8.79774C20.1098 8.78714 20.1358 8.77764 20.1618 8.76944C20.1888 8.76134 20.2148 8.75444 20.2428 8.74884C20.2698 8.74314 20.2978 8.73894 20.3258 8.73604C20.3828 8.73024 20.4408 8.73024 20.4978 8.73604C20.5258 8.73894 20.5538 8.74314 20.5808 8.74884C20.6088 8.75434 20.6348 8.76124 20.6618 8.76944C20.6878 8.77764 20.7138 8.78704 20.7388 8.79774C20.7638 8.80834 20.7888 8.82014 20.8118 8.83314C20.8358 8.84604 20.8588 8.86004 20.8818 8.87514C20.9038 8.89024 20.9258 8.90634 20.9458 8.92354C20.9668 8.94064 20.9868 8.95864 21.0058 8.97774C21.0248 8.99674 21.0428 9.01654 21.0598 9.03734C21.0768 9.05804 21.0928 9.07964 21.1078 9.10204C21.1238 9.12434 21.1378 9.14744 21.1508 9.17124C21.1628 9.19504 21.1748 9.21954 21.1858 9.24464C21.1968 9.26974 21.2058 9.29544 21.2138 9.32184C21.2218 9.34814 21.2288 9.37494 21.2348 9.40234C21.2398 9.42984 21.2448 9.45764 21.2478 9.48564C21.2498 9.51424 21.2518 9.54284 21.2518 9.57154Z" fill="black"/>
<path d="M21.4882 8.92086C21.4882 8.93476 21.4872 8.94876 21.4862 8.96266C21.4842 8.97626 21.4822 8.98986 21.4792 9.00326C21.4772 9.01656 21.4732 9.02966 21.4692 9.04246C21.4652 9.05526 21.4612 9.06776 21.4562 9.07996C21.4502 9.09226 21.4452 9.10416 21.4382 9.11576C21.4322 9.12736 21.4252 9.13856 21.4182 9.14946C21.4102 9.16036 21.4032 9.17086 21.3942 9.18096C21.3862 9.19106 21.3772 9.20066 21.3682 9.20996C21.3592 9.21916 21.3492 9.22796 21.3392 9.23636C21.3292 9.24466 21.3182 9.25256 21.3072 9.25986C21.2972 9.26726 21.2852 9.27406 21.2742 9.28036C21.2622 9.28666 21.2502 9.29236 21.2382 9.29756C21.2262 9.30276 21.2132 9.30736 21.2002 9.31136C21.1882 9.31536 21.1742 9.31866 21.1612 9.32136C21.1482 9.32416 21.1342 9.32626 21.1212 9.32756C21.0932 9.33046 21.0652 9.33046 21.0372 9.32756C21.0232 9.32626 21.0102 9.32416 20.9962 9.32136C20.9832 9.31866 20.9702 9.31536 20.9572 9.31136C20.9442 9.30736 20.9322 9.30276 20.9202 9.29756C20.9072 9.29246 20.8952 9.28666 20.8842 9.28036C20.8722 9.27406 20.8612 9.26726 20.8502 9.25986C20.8392 9.25256 20.8292 9.24466 20.8192 9.23636C20.8092 9.22796 20.7992 9.21916 20.7902 9.20996C20.7802 9.20066 20.7722 9.19106 20.7632 9.18096C20.7552 9.17086 20.7472 9.16036 20.7402 9.14946C20.7322 9.13856 20.7262 9.12736 20.7192 9.11576C20.7132 9.10416 20.7072 9.09226 20.7022 9.07996C20.6972 9.06776 20.6922 9.05526 20.6882 9.04246C20.6842 9.02966 20.6812 9.01656 20.6782 9.00326C20.6752 8.98986 20.6732 8.97626 20.6722 8.96266C20.6692 8.93486 20.6692 8.90686 20.6722 8.87906C20.6732 8.86546 20.6752 8.85186 20.6782 8.83846C20.6812 8.82516 20.6842 8.81206 20.6882 8.79926C20.6922 8.78646 20.6972 8.77396 20.7022 8.76166C20.7072 8.74946 20.7132 8.73756 20.7192 8.72596C20.7262 8.71436 20.7322 8.70316 20.7402 8.69226C20.7472 8.68136 20.7552 8.67086 20.7632 8.66076C20.7722 8.65066 20.7802 8.64096 20.7902 8.63176C20.7992 8.62246 20.8092 8.61366 20.8192 8.60536C20.8292 8.59696 20.8392 8.58916 20.8502 8.58186C20.8612 8.57446 20.8722 8.56766 20.8842 8.56136C20.8952 8.55506 20.9072 8.54926 20.9202 8.54416C20.9322 8.53896 20.9442 8.53436 20.9572 8.53036C20.9702 8.52636 20.9832 8.52306 20.9962 8.52026C21.0102 8.51756 21.0232 8.51546 21.0372 8.51406C21.0652 8.51126 21.0932 8.51126 21.1212 8.51406C21.1342 8.51546 21.1482 8.51756 21.1612 8.52026C21.1742 8.52306 21.1882 8.52636 21.2002 8.53036C21.2132 8.53436 21.2262 8.53896 21.2382 8.54416C21.2502 8.54926 21.2622 8.55506 21.2742 8.56136C21.2852 8.56766 21.2962 8.57446 21.3072 8.58186C21.3182 8.58916 21.3292 8.59696 21.3392 8.60536C21.3492 8.61366 21.3592 8.62246 21.3682 8.63176C21.3772 8.64096 21.3862 8.65066 21.3942 8.66076C21.4032 8.67086 21.4102 8.68136 21.4182 8.69226C21.4252 8.70316 21.4322 8.71436 21.4382 8.72596C21.4452 8.73756 21.4502 8.74946 21.4562 8.76166C21.4612 8.77396 21.4652 8.78646 21.4692 8.79926C21.4732 8.81206 21.4772 8.82516 21.4792 8.83846C21.4822 8.85186 21.4842 8.86546 21.4862 8.87906C21.4872 8.89296 21.4882 8.90686 21.4882 8.92086Z" fill="white"/>
</svg>
