<svg width="30" height="30" viewBox="0 0 30 30" fill="none" xmlns="http://www.w3.org/2000/svg">
<path d="M15 30C23.2843 30 30 23.2843 30 15C30 6.71573 23.2843 0 15 0C6.71573 0 0 6.71573 0 15C0 23.2843 6.71573 30 15 30Z" fill="#717376"/>
<path d="M12.3059 21.3103C11.7709 21.3103 11.3359 21.7454 11.3359 22.2801C11.3359 22.8149 11.7709 23.25 12.3059 23.25C12.8399 23.25 13.2749 22.8149 13.2749 22.2801C13.2749 21.7454 12.8399 21.3103 12.3059 21.3103Z" fill="#FCB615"/>
<path d="M9.595 21.3103C9.06 21.3103 8.625 21.7454 8.625 22.2801C8.625 22.8149 9.06 23.25 9.595 23.25C10.13 23.25 10.565 22.8149 10.565 22.2801C10.565 21.7454 10.13 21.3103 9.595 21.3103Z" fill="#ED353F"/>
<path d="M15.0149 21.3103C14.4799 21.3103 14.0449 21.7454 14.0449 22.2801C14.0449 22.8149 14.4799 23.25 15.0149 23.25C15.5499 23.25 15.9849 22.8149 15.9849 22.2801C15.9849 21.7454 15.5499 21.3103 15.0149 21.3103Z" fill="#02AF56"/>
<path d="M20.4358 21.3103C19.9008 21.3103 19.4658 21.7454 19.4658 22.2801C19.4658 22.8149 19.9008 23.25 20.4358 23.25C20.9708 23.25 21.4058 22.8149 21.4058 22.2801C21.4058 21.7454 20.9708 21.3103 20.4358 21.3103Z" fill="#00A8DF"/>
<path d="M17.7259 21.3103C17.1909 21.3103 16.7559 21.7454 16.7559 22.2801C16.7559 22.8149 17.1909 23.25 17.7259 23.25C18.2609 23.25 18.6959 22.8149 18.6959 22.2801C18.6959 21.7454 18.2609 21.3103 17.7259 21.3103Z" fill="#A14699"/>
<path d="M19.518 12.9959C19.518 10.4291 17.582 8.4928 15.016 8.4928C12.449 8.4928 10.513 10.4291 10.513 12.9959C10.513 15.5615 12.449 17.4989 15.016 17.4989C17.581 17.4989 19.518 15.5615 19.518 12.9959ZM8.625 12.9959C8.625 9.4375 11.481 6.75 15.016 6.75C18.574 6.75 21.406 9.4129 21.406 12.9713V18.4424C21.406 18.9991 21.018 19.3859 20.438 19.3859C19.833 19.3859 19.47 18.9991 19.47 18.4424V16.8449H19.373C18.623 18.1283 17.122 19.2418 14.895 19.2418C11.458 19.2418 8.625 16.5789 8.625 12.9959Z" fill="white"/>
</svg>
