<svg width="30" height="30" viewBox="0 0 30 30" fill="none" xmlns="http://www.w3.org/2000/svg">
<path d="M15 30C23.2843 30 30 23.2843 30 15C30 6.71573 23.2843 0 15 0C6.71573 0 0 6.71573 0 15C0 23.2843 6.71573 30 15 30Z" fill="#EEC218"/>
<path d="M23.5152 17.9064C25.1202 13.2035 22.6092 8.09 17.9062 6.4847C13.2032 4.8797 8.09022 7.391 6.48522 12.0936C4.88022 16.7965 7.39121 21.91 12.0942 23.5153C16.7972 25.1203 21.9102 22.609 23.5152 17.9064Z" fill="black"/>
<path d="M7.38089 19.7873C8.78189 19.1192 13.5479 16.7801 14.4869 16.2295C15.2579 15.7799 16.4069 15.117 16.4069 15.117L16.8939 16.1102L17.6379 21.0043L18.2069 20.6763L18.5849 13.8402C19.7329 13.1224 20.7449 12.4238 21.8039 11.6931C22.1919 11.4251 22.5859 11.1526 22.9959 10.8735C22.8659 10.6226 22.7249 10.3781 22.5729 10.1413C22.1259 10.3564 21.6929 10.5618 21.2669 10.764C20.1049 11.3156 18.9939 11.8423 17.7979 12.4776L11.6889 9.38745L11.1209 9.71555L14.9869 12.8069L15.6019 13.7236L15.6029 13.7255C15.6029 13.7255 14.4549 14.3887 13.6799 14.8323C12.7339 15.3703 8.3239 18.3286 7.0459 19.2066C7.1509 19.4046 7.26289 19.5981 7.38089 19.7873Z" fill="#EEC218"/>
</svg>
