<svg width="30" height="30" viewBox="0 0 30 30" fill="none" xmlns="http://www.w3.org/2000/svg">
<path d="M15 30C23.2843 30 30 23.2843 30 15C30 6.71573 23.2843 0 15 0C6.71573 0 0 6.71573 0 15C0 23.2843 6.71573 30 15 30Z" fill="#003580"/>
<path d="M14.8559 18.771L12.6493 18.7688V16.1303C12.6493 15.5665 12.868 15.2731 13.3504 15.2061H14.856C15.9296 15.2061 16.6242 15.883 16.6242 16.9787C16.6242 18.104 15.9472 18.77 14.856 18.771H14.8559ZM12.6493 11.6543V10.9597C12.6493 10.352 12.9064 10.063 13.4702 10.0256H14.5999C15.5681 10.0256 16.1483 10.6048 16.1483 11.5752C16.1483 12.3136 15.7505 13.1763 14.6351 13.1763H12.6493V11.6543ZM17.6736 14.2874L17.2747 14.0632L17.6231 13.7654C18.0286 13.417 18.7078 12.6334 18.7078 11.2817C18.7078 9.2113 17.1022 7.8761 14.6175 7.8761H11.7822V7.875H11.4591C10.7228 7.9025 10.1327 8.5014 10.125 9.2421V20.9898H14.6735C17.4352 20.9898 19.2177 19.4865 19.2177 17.1578C19.2177 15.9039 18.6418 14.8324 17.6736 14.2874Z" fill="white"/>
<path d="M20.4023 19.3669C20.4023 18.4695 21.1261 17.7434 22.0179 17.7434C22.9119 17.7434 23.6391 18.4695 23.6391 19.3669C23.6391 20.2632 22.9119 20.9904 22.0178 20.9904C21.1261 20.9904 20.4023 20.2632 20.4023 19.3669Z" fill="#00BAFC"/>
</svg>
