<svg width="30" height="30" viewBox="0 0 30 30" fill="none" xmlns="http://www.w3.org/2000/svg">
<path d="M15 30C23.2843 30 30 23.2843 30 15C30 6.71573 23.2843 0 15 0C6.71573 0 0 6.71573 0 15C0 23.2843 6.71573 30 15 30Z" fill="#CC0D21"/>
<path d="M22.7558 14.4338C23.2578 14.9341 23.6328 15.6195 23.5038 16.38C23.3768 16.9397 23.0879 17.45 22.6749 17.8481C22.2609 18.2462 21.7398 18.5147 21.1758 18.6207C20.8228 18.6892 20.4649 18.7277 20.1059 18.7357H16.9339L18.4418 12.7232L20.9908 11.8449L19.7298 16.8822C20.6778 16.8692 21.3149 16.1501 21.2639 15.4919C21.2109 14.8309 20.8928 14.4896 20.4738 14.301C20.5728 14.2646 21.9698 13.3735 21.6788 12.4518C21.3718 11.5286 19.9709 11.6523 19.1579 11.8646C18.3919 12.0423 17.6389 12.2726 16.9039 12.5538L15.3539 18.7357H12.9319L14.2229 13.5807C14.1929 13.5792 12.2979 14.4425 12.2979 14.4425L12.9449 11.8398C13.6899 11.5015 16.8568 10.2224 18.8868 9.88835C21.6218 9.44025 23.3519 10.2265 23.8389 11.5705C24.3249 12.9134 23.6348 13.9523 22.7558 14.4338Z" fill="white"/>
<path d="M9.564 13.5521L9.041 15.6383C8.771 16.709 8.03299 17.7922 6.64799 17.8388L6 20.4218C6.8 20.3666 7.587 20.1927 8.336 19.906C9.895 19.2572 11.089 18.1067 11.52 16.2736L12.596 11.9773C12.552 11.9992 10.414 13.0145 9.56799 13.5336L9.564 13.5521Z" fill="white"/>
<path d="M10.5149 9.75L9.56787 13.5336C10.4139 13.0145 12.5519 11.9991 12.5959 11.9773L13.1559 9.75H10.5149Z" fill="#B1B1B1"/>
</svg>
