<svg width="30" height="30" viewBox="0 0 30 30" fill="none" xmlns="http://www.w3.org/2000/svg">
<path d="M15 30C23.2843 30 30 23.2843 30 15C30 6.71573 23.2843 0 15 0C6.71573 0 0 6.71573 0 15C0 23.2843 6.71573 30 15 30Z" fill="#D32F2F"/>
<path d="M17.042 10.4164C17.042 9.98041 17.178 9.57641 17.407 9.24121C16.716 9.44471 16.209 10.0764 16.209 10.833V12.1661L17.042 12.2078V10.4164Z" fill="white"/>
<path d="M16.209 19.5834C16.209 20.34 16.716 20.9717 17.408 21.1751C17.178 20.8399 17.042 20.4359 17.042 20V17.4995H16.209V19.5834Z" fill="white"/>
<path d="M18.292 17.5H17.459V20.0005C17.459 20.7571 17.967 21.3887 18.657 21.5922C18.428 21.257 18.292 20.853 18.292 20.417V17.5Z" fill="white"/>
<path d="M18.292 9.99981C18.292 9.56391 18.428 9.15991 18.657 8.82471C17.967 9.02821 17.459 9.65981 17.459 10.4164V12.229L18.292 12.2708V9.99981Z" fill="white"/>
<path d="M8.897 9.46582C8.288 9.82912 7.875 10.4889 7.875 11.2494V19.1665C7.875 19.928 8.288 20.5867 8.897 20.95C8.776 20.6574 8.70799 20.3368 8.70799 19.9996V10.4162C8.70799 10.0801 8.776 9.75942 8.897 9.46582Z" fill="white"/>
<path d="M9.95799 9.58321C9.95799 9.24701 10.026 8.92631 10.147 8.63281C9.538 8.99611 9.125 9.65491 9.125 10.4163V20.0007C9.125 20.8959 9.69299 21.6525 10.486 21.947C10.157 21.5237 9.95799 20.9937 9.95799 20.4173V9.58321Z" fill="white"/>
<path d="M20.375 8.3331C19.455 8.3331 18.709 9.0791 18.709 9.9994V12.7082L14.542 12.5V9.5829C14.542 8.433 13.609 7.5 12.458 7.5C11.307 7.5 10.375 8.433 10.375 9.5829V20.4171C10.375 21.568 11.307 22.5 12.458 22.5C13.609 22.5 14.542 21.568 14.542 20.4171V17.0834H18.709V20.4171C18.709 21.3374 19.455 22.0834 20.375 22.0834C21.296 22.0834 22.042 21.3374 22.042 20.4171V9.9995C22.042 9.0792 21.296 8.3332 20.375 8.3332" fill="white"/>
</svg>
