<svg width="30" height="30" viewBox="0 0 30 30" fill="none" xmlns="http://www.w3.org/2000/svg">
<path d="M15 30C23.2843 30 30 23.2843 30 15C30 6.71573 23.2843 0 15 0C6.71573 0 0 6.71573 0 15C0 23.2843 6.71573 30 15 30Z" fill="#297FFF"/>
<path d="M19.3739 13.2314C19.13 13.2321 18.8892 13.286 18.6682 13.3893C18.4472 13.4926 18.2515 13.6428 18.0945 13.8295V13.4447H16.8125V19.7038H18.2375V17.5116C18.556 17.7787 18.9583 17.9251 19.3739 17.9251C19.9861 17.9162 20.5698 17.6648 20.9969 17.226C21.4239 16.7873 21.6595 16.197 21.6518 15.5848C21.6595 14.9725 21.4239 14.3823 20.9969 13.9435C20.5698 13.5048 19.9861 13.2534 19.3739 13.2444V13.2314ZM21.6518 15.5848C21.6595 14.9725 21.4239 14.3823 20.9969 13.9435C20.5698 13.5048 19.9861 13.2534 19.3739 13.2444L21.6518 15.5848ZM19.2335 16.6249C19.0261 16.6337 18.8208 16.5803 18.6441 16.4715C18.4673 16.3627 18.3271 16.2035 18.2416 16.0144C18.156 15.8253 18.129 15.6149 18.164 15.4103C18.199 15.2057 18.2944 15.0163 18.438 14.8664C18.5815 14.7164 18.7667 14.6129 18.9695 14.569C19.1724 14.5252 19.3838 14.543 19.5764 14.6203C19.7691 14.6976 19.9342 14.8307 20.0506 15.0026C20.167 15.1745 20.2292 15.3772 20.2294 15.5848C20.2325 15.7185 20.2092 15.8516 20.1608 15.9763C20.1124 16.101 20.0399 16.2149 19.9473 16.3116C19.8548 16.4082 19.7441 16.4856 19.6216 16.5394C19.4991 16.5932 19.3672 16.6222 19.2335 16.6249Z" fill="white"/>
<path d="M24.0001 17.0721C24.0006 17.2414 23.9509 17.4071 23.8572 17.5481C23.7635 17.6892 23.6301 17.7992 23.4738 17.8644C23.3175 17.9295 23.1454 17.9468 22.9793 17.9141C22.8131 17.8814 22.6605 17.8001 22.5406 17.6806C22.4207 17.561 22.3389 17.4086 22.3057 17.2426C22.2725 17.0766 22.2893 16.9044 22.3539 16.7479C22.4186 16.5915 22.5283 16.4577 22.669 16.3636C22.8098 16.2694 22.9753 16.2192 23.1446 16.2192C23.2568 16.2189 23.368 16.2407 23.4718 16.2834C23.5756 16.3261 23.6699 16.3889 23.7494 16.4681C23.8288 16.5473 23.8919 16.6415 23.9349 16.7451C23.978 16.8488 24.0001 16.9599 24.0001 17.0721Z" fill="#FCAF17"/>
<path fill-rule="evenodd" clip-rule="evenodd" d="M15.1017 12.8466C14.9437 12.8471 14.7891 12.8008 14.6575 12.7133C14.5258 12.6259 14.4231 12.5014 14.3623 12.3556C14.3015 12.2098 14.2853 12.0492 14.3158 11.8942C14.3463 11.7391 14.4221 11.5966 14.5337 11.4847C14.6452 11.3728 14.7875 11.2965 14.9424 11.2655C15.0973 11.2345 15.258 11.2502 15.404 11.3105C15.55 11.3709 15.6748 11.4732 15.7627 11.6045C15.8505 11.7359 15.8974 11.8903 15.8974 12.0483C15.8977 12.153 15.8774 12.2568 15.8376 12.3536C15.7977 12.4505 15.7392 12.5385 15.6653 12.6126C15.5913 12.6868 15.5035 12.7457 15.4068 12.7858C15.3101 12.826 15.2064 12.8466 15.1017 12.8466Z" fill="white"/>
<path d="M15.8169 13.4446H14.3945V17.7144H15.8169V13.4446Z" fill="white"/>
<path fill-rule="evenodd" clip-rule="evenodd" d="M6 11.4529V12.6464H7.8489V17.7119H9.2739V12.6464H11.1227V11.4529H6Z" fill="white"/>
<path d="M13.3972 13.4214C13.1432 13.4209 12.8931 13.4839 12.6697 13.6047C12.4463 13.7255 12.2566 13.9003 12.1179 14.1131V13.4448H10.8359V17.712H12.2661V15.9333C12.2595 15.7748 12.2858 15.6167 12.3435 15.4689C12.4011 15.321 12.4888 15.1868 12.601 15.0746C12.7131 14.9625 12.8474 14.8748 12.9952 14.8171C13.143 14.7595 13.3011 14.7331 13.4597 14.7398C13.5347 14.741 13.6096 14.7488 13.6833 14.7632V13.463C13.5886 13.4485 13.493 13.4407 13.3972 13.4396" fill="white"/>
</svg>
